<svg width="60" height="49" viewBox="0 0 60 49" fill="none" xmlns="http://www.w3.org/2000/svg">
  <path d="M56.8164 28.191C52.6244 18.9579 40.7495 16.4449 29.8179 18.5627C30.1858 16.3206 30.0895 14.0277 30.0194 11.7727C29.957 9.75658 30.1141 7.45118 29.6744 5.39525C29.6729 5.38587 29.6704 5.37725 29.6689 5.36812C29.5888 4.99669 29.495 4.63109 29.3699 4.27994C29.1246 3.59032 27.8729 3.57029 27.6401 4.27994C27.5969 4.41051 27.5724 4.54565 27.5392 4.67875C23.0394 5.39297 18.9058 8.12001 15.4433 10.3559C13.4856 11.6201 11.5803 12.941 9.70394 14.2885C9.51488 14.2614 9.33947 14.3879 9.36276 14.5342C6.24239 16.7902 3.23007 19.1466 0.383837 21.6279C-0.0588693 22.0141 -0.192054 22.7734 0.383837 23.142C9.76417 29.1422 18.2203 36.456 28.247 41.7308C28.4441 41.8345 28.6344 41.8107 28.7748 41.7245C29.1253 41.7813 29.4959 41.686 29.7474 41.3954C30.8489 40.1194 30.1665 37.3378 30.1069 35.8536C30.0079 33.3968 29.9955 30.9231 29.7036 28.4749C29.6086 27.6768 28.2799 27.6768 28.1849 28.4749C28.1203 29.0172 28.0722 29.5603 28.0322 30.1044C21.6912 25.8551 14.8007 21.8386 7.88034 18.2716C8.85579 17.4588 9.86228 16.6447 10.8936 15.843C16.4566 20.2707 23.1214 23.9564 29.4714 27.531C29.6487 27.6309 29.8179 27.6484 29.966 27.6187C29.5912 27.8796 29.4882 28.1562 30.0628 28.3923C31.0659 28.804 32.5216 28.3641 33.5803 28.3337C36.8313 28.2404 40.1538 28.7898 43.2832 29.4546C51.7303 31.2489 54.7258 37.6907 54.4182 44.2363C54.3679 45.3032 55.9521 45.5205 56.6547 44.9041C63.3747 43.7183 58.1098 31.0397 56.8164 28.191ZM27.5798 39.9279C20.3261 33.4336 11.6989 27.6656 3.23535 22.2666C3.90437 21.6796 4.59824 21.0737 5.30545 20.4614C11.2131 26.9311 20.1147 30.9718 27.7773 35.9003C27.7189 36.9403 27.4007 38.5933 27.5798 39.9279ZM27.9524 31.4078C27.9021 32.4283 27.8735 33.4498 27.8369 34.4706C20.4347 29.7023 12.0621 25.862 5.77827 20.0522C6.32528 19.5809 6.8872 19.1047 7.45533 18.6273C14.4076 22.6639 20.6365 27.8312 27.9524 31.4078ZM54.3999 28.7351C54.5203 28.979 54.6625 29.2751 54.8118 29.592C53.5498 28.5274 52.155 27.5374 50.9026 26.5298C48.2756 24.4156 45.5243 22.4073 42.7557 20.4191C42.7327 20.4026 42.7082 20.3952 42.6846 20.3851C47.7909 21.5146 52.1224 24.108 54.3999 28.7351ZM27.3265 6.87184C27.3554 7.98132 27.5221 9.10626 27.6304 10.182C27.2349 9.95967 26.8301 9.75227 26.4656 9.54184C25.5727 9.0269 24.6485 8.55178 23.711 8.0944C24.9 7.61268 26.1046 7.19561 27.3265 6.87184ZM22.8023 8.48155C23.7619 8.98735 24.7013 9.5142 25.6153 10.0743C26.3057 10.4972 26.985 11.061 27.7329 11.4804C27.7717 12.048 27.8108 12.6155 27.845 13.1841C26.8257 12.5166 25.6687 11.9553 24.6116 11.3554C23.3676 10.6495 22.0677 9.98553 20.684 9.47592C21.3826 9.1197 22.0907 8.79314 22.8023 8.48155ZM19.8508 9.91175C21.1503 10.4751 22.4099 11.0585 23.629 11.741C25.0624 12.5435 26.384 13.5906 27.9114 14.2744C27.9409 14.771 27.9694 15.2677 28.0017 15.7641C26.7174 15.017 25.1154 14.4501 23.8643 13.8547C21.8929 12.9169 19.9722 11.9291 18.0675 10.9132C18.6562 10.5651 19.2519 10.2332 19.8508 9.91175ZM32.3912 26.6964C32.2909 26.7106 31.0848 27.025 30.3078 27.4164C30.5214 27.1743 30.545 26.7874 30.1712 26.5529C24.0469 22.7082 17.6146 19.2338 11.4918 15.3813C12.2745 14.7829 13.0767 14.1998 13.8879 13.6258C21.1323 17.9281 28.6329 21.8647 35.5852 26.4958C34.4837 26.4979 33.4052 26.5557 32.3912 26.6964ZM37.026 26.527C37.1446 26.3457 37.1356 26.1206 36.8791 25.934C30.0877 20.988 22.0823 17.2729 14.5098 13.192C15.4656 12.531 16.4405 11.8952 17.4308 11.2905C19.1094 12.3421 20.8936 13.2876 22.6585 14.2328C24.3666 15.1473 26.1958 16.4522 28.0995 17.1728C28.147 17.783 28.1976 18.3928 28.2613 19.0008C27.8689 19.3436 28.0194 19.9259 28.5109 20.1645C28.7375 20.3722 29.1389 20.4236 29.3677 20.2307C30.4462 20.0552 31.5344 19.9277 32.6219 19.8344C35.5038 22.711 39.3004 25.0324 42.8833 27.2803C41.0426 26.8959 39.0268 26.6178 37.026 26.527ZM43.9395 27.5077C43.8513 27.4864 43.7541 27.4692 43.6644 27.4486C43.9655 27.2988 44.1422 26.9256 43.8153 26.7174C40.2541 24.4541 36.6721 22.3797 33.5324 19.7647C34.8652 19.68 36.1912 19.6709 37.4994 19.7261C37.4072 19.8108 37.3793 19.9409 37.5059 20.0492C41.4679 23.425 45.6761 26.3942 49.5068 29.6815C47.9238 28.7607 46.0747 28.0224 43.9395 27.5077ZM37.984 19.748C39.5515 19.8367 41.0817 20.04 42.552 20.3572C42.3124 20.358 42.1047 20.5976 42.327 20.7689C44.7653 22.6428 47.2132 24.5086 49.599 26.4271C51.8486 28.2356 53.6942 30.3724 55.9319 32.1636C56.3889 33.3094 56.8347 34.574 57.1567 35.8457C53.3055 29.0695 44.5153 24.642 37.984 19.748ZM56.9602 42.1243C56.8093 39.5086 56.1244 37.0592 54.8572 34.9127C55.4309 35.5719 55.9888 36.2468 56.5171 36.9514C56.7202 37.2222 57.1697 37.2136 57.4262 37.0488C57.7829 38.9858 57.7639 40.8295 56.9602 42.1243Z" fill="black" />
</svg>
  