<svg width="146" height="134" viewBox="0 0 146 134" fill="none" xmlns="http://www.w3.org/2000/svg">
  <path d="M106.46 116.312C118.13 117.247 139.261 102.555 123.006 80.8467C106.184 55.6936 134.904 37.6987 111.252 23.7626C94.1076 13.661 73.4999 35.487 59.7027 31.1539C30.2706 23.7626 11.6457 51.0687 24.6253 68.4293C34.3244 81.4021 10.801 90.316 20.2453 100.589C30.7573 112.024 39.0873 99.6629 54.5066 102.251C76.8933 106.008 92.9384 115.229 106.46 116.312Z" fill="#357F7F"/>
  <path d="M84.2722 27.5806L84.4579 27.6822L84.6417 27.7848C87.2323 29.2466 86.5672 31.5864 89.9722 35.0631C97.3474 42.5935 104.399 50.4072 111.105 58.4785L111.634 59.1162L111.788 59.3022C114.284 62.3338 115.382 64.2823 115.443 66.6201C115.489 68.3491 117.422 69.5108 116.02 70.8502L115.945 70.9216L115.937 70.9276L115.914 70.9511C115.581 71.2797 115.207 71.5717 114.8 71.8205L114.691 71.8853L114.657 71.9073C112.941 72.9812 110.921 73.4272 109.036 73.0977L108.936 73.0794L108.854 73.0631L108.843 73.1292C106.934 84.6862 103.041 95.9653 97.3536 106.424L97.1807 106.741L97.0032 107.063L96.9012 107.247L96.7972 107.43C96.2695 108.352 95.8871 108.861 95.3157 109.329C94.5169 109.982 93.5044 110.347 92.2548 110.495C91.3701 110.6 90.5377 110.599 89.1323 110.525L88.8856 110.512C83.2447 110.198 77.5809 110.2 71.9364 110.517L71.4073 110.548L70.9702 110.574L70.9063 110.581C70.0524 110.664 69.2779 110.724 68.5368 110.761L68.3522 110.77L68.1455 110.778L68.1078 110.781C67.2287 110.853 66.3505 110.932 65.4733 111.02L63.9778 111.175L62.7189 111.307L62.1649 111.363C61.9936 111.379 61.8334 111.394 61.6771 111.409L61.0848 111.459L61.0431 111.488C61.0221 111.502 61.0009 111.515 60.9792 111.529L60.9131 111.567L60.8441 111.605L60.6209 111.716L60.4713 111.613L60.4283 111.582L60.3873 111.548L60.3488 111.513L60.2496 111.52C58.0982 111.657 56.3113 111.607 54.6257 111.311L54.4727 111.283L54.3246 111.255C50.5051 110.513 47.3373 108.212 46.5076 105.212C43.3809 93.9043 39.0069 82.8878 33.4744 72.385L33.3991 72.2428L33.3625 72.2628C32.0504 72.945 30.4018 72.7778 28.9498 71.913L28.8749 71.8676L28.7988 71.8199L28.7812 71.8131C28.3258 71.6278 27.9214 71.295 27.633 70.8767L27.5926 70.8163L27.5641 70.7583L27.5533 70.7626C27.0832 70.233 26.7353 69.6389 26.5408 69.0203L26.5127 68.9273L26.487 68.834C25.8643 66.4604 26.6653 64.0146 28.6262 60.9117C29.196 60.01 32.6596 54.6935 37.3047 52.1704C42.4145 49.3948 41.463 49.6405 42.5607 48.7757C43.4106 47.7933 39.9991 42.1526 36.9866 39.3067C33.974 36.4607 45.8319 33.5655 46.7538 33.8784C46.9954 33.9604 47.2184 34.0619 47.4246 34.183L47.5119 34.2361L47.5214 34.2422L47.5448 34.1872L47.6135 34.303L47.6474 34.3261C48.0644 34.6178 48.4065 35.0001 48.6909 35.473L48.7435 35.5627L48.7872 35.6407C49.1078 36.2243 49.7317 36.5197 50.0292 37.6093L50.2313 38.3632L50.289 38.5754L50.3455 38.7776C50.5786 39.6004 51.0027 40.1823 51.2631 40.677L51.2946 40.736L51.3106 40.7652L51.3834 40.6768C55.6844 35.4805 60.6428 31.4631 66.9711 28.4913L66.9251 28.4922C66.2256 28.4922 68.0547 27.7358 72.6821 26.2327L72.9448 26.1482L73.2162 26.0626C76.6348 24.9953 80.6822 25.636 84.2722 27.5806Z" fill="white"/>
  <path d="M109.789 72.6514L109.688 72.633L109.606 72.6168L109.596 72.6829C107.686 84.2399 103.794 95.5189 98.1062 105.978L97.9333 106.294L97.7557 106.617L97.6538 106.8C97.0706 107.839 96.6766 108.385 96.0683 108.882C95.2695 109.536 94.257 109.9 93.0074 110.049C92.1227 110.153 91.5057 109.823 89.2494 109.636C96.9259 105.793 98.1154 98.5263 100.8 93.8C108.599 80.0721 103.76 76.3364 109.789 72.6514Z" fill="#E7EAEE"/>
  <path d="M75.4536 123.229C75.3533 123.447 75.0291 123.53 74.8313 123.388C74.9515 123.234 75.0775 123.075 75.2533 122.985C75.4291 122.895 75.6701 122.894 75.8046 123.037C75.7009 123.107 75.5971 123.177 75.4934 123.247L75.4536 123.229Z" fill="#00160A"/>
  <path d="M75.5247 123.938C75.2936 123.957 75.0624 123.976 74.8313 123.995C74.9325 123.876 75.0336 123.758 75.1348 123.64C75.2675 123.635 75.4122 123.632 75.5192 123.694C75.6263 123.757 75.6494 123.911 75.5297 123.957L75.5247 123.938Z" fill="#00160A"/>
  <path d="M83.0896 115.24C82.9831 115.194 82.9895 115.065 83.054 114.983C83.1186 114.9 83.2221 114.841 83.282 114.757C83.3461 114.667 83.3534 114.559 83.3592 114.455C83.378 114.121 83.3968 113.787 83.4155 113.453C83.6006 113.729 83.6368 114.066 83.5131 114.363C83.7005 114.337 83.9031 114.423 83.9805 114.563C83.7031 114.804 83.4052 115.031 83.0896 115.24Z" fill="#00160A"/>
  <path d="M82.7883 115.061C82.4882 115.006 82.2464 114.752 82.2285 114.472C82.435 114.543 82.6679 114.403 82.7677 114.223C82.8675 114.043 82.8741 113.834 82.9041 113.635C82.9726 113.18 83.1753 112.743 83.4852 112.381C83.6755 112.662 83.6023 113.066 83.3235 113.275C82.8947 113.597 83.2792 114.308 82.9386 114.709C82.8465 114.817 82.6987 114.951 82.7883 115.061Z" fill="#00160A"/>
  <path d="M48.9406 47.7562C47.6436 49.0405 45.3731 49.5984 43.7489 48.6766C42.4199 47.9223 41.8457 46.4589 41.216 45.1494C40.5692 43.8044 39.7736 42.5193 38.8452 41.3202C38.2277 40.5226 37.3457 39.6817 36.2872 39.816C36.4873 39.4973 36.9772 39.4162 37.3549 39.5415C37.7326 39.6669 38.0209 39.9463 38.2847 40.2234C39.6133 41.6192 40.706 43.2025 41.512 44.9C41.9085 45.735 42.2409 46.6055 42.8017 47.3576C43.3625 48.1097 44.2059 48.7469 45.1958 48.8417C46.0562 48.9241 46.8925 48.5938 47.6823 48.2708C48.1017 48.0993 48.5211 47.9278 48.9406 47.7562Z" fill="#00160A"/>
  <path d="M63.4391 121.68C64.7563 121.099 66.2582 121.044 67.7132 120.999C69.6202 120.941 71.5514 120.884 73.4133 121.274C74.0537 121.408 74.8061 121.736 74.8284 122.35C74.8508 122.964 74.7388 123.582 74.5014 124.155C74.2143 123.667 73.473 123.686 72.8847 123.764C69.7502 124.182 66.5261 124.427 63.4418 123.757C63.0786 123.679 62.6839 123.564 62.4873 123.268C62.2936 122.975 62.3611 122.579 62.5706 122.296C62.7802 122.013 63.1065 121.826 63.4391 121.68ZM67.1132 123.635C66.114 123.565 65.1169 123.469 64.1233 123.348C63.8315 123.313 63.5293 123.271 63.2826 123.121C63.036 122.971 62.8618 122.68 62.9533 122.418C62.6639 122.472 62.5914 122.868 62.7655 123.091C62.9397 123.314 63.2478 123.399 63.5352 123.462C66.6411 124.14 69.8845 123.811 73.0533 123.473C73.6884 123.405 74.4879 123.19 74.5455 122.594C74.6052 121.976 73.8028 121.636 73.151 121.524C70.5018 121.068 67.777 121.246 65.1008 121.531C64.6914 121.575 64.2725 121.624 63.9056 121.799C63.5388 121.975 63.2288 122.305 63.2096 122.691C64.1441 123.354 65.4592 123.122 66.6132 123.317C66.8246 123.352 67.071 123.438 67.1132 123.635Z" fill="#00160A"/>
  <path d="M64.0746 97.768C64.2871 97.9731 64.3792 98.2747 64.2782 98.5354C64.1771 98.7961 63.871 98.9955 63.5524 98.9805C63.2338 98.9656 62.9446 98.7163 62.9569 98.4417C62.9731 98.0823 63.0796 97.6264 63.4897 97.5591C63.7066 97.5235 63.9276 97.6262 64.0746 97.768ZM63.3827 98.287C63.2214 98.478 63.5463 98.7602 63.8009 98.6724C64.0555 98.5846 64.1294 98.2809 64.0136 98.0667C63.9771 97.9992 63.9245 97.936 63.8513 97.8961C63.613 97.7661 63.2557 98.0277 63.3662 98.2512L63.3827 98.287Z" fill="#00160A"/>
  <path d="M74.1232 118.103C74.0348 118.047 73.9463 117.992 73.8579 117.937C74.1179 117.371 74.1586 116.723 73.9713 116.133C74.7814 116.458 73.9821 117.944 74.7794 118.294C74.8275 117.614 75.4113 117.045 76.0853 116.764C76.7593 116.482 77.5165 116.432 78.2551 116.387C81.0773 116.214 83.9668 116.047 86.6851 116.766C87.2074 116.904 87.8054 117.167 87.8687 117.664C87.9317 118.159 87.4113 118.548 86.9104 118.736C86.1052 119.039 85.2196 119.099 84.3505 119.133C81.9065 119.228 79.4542 119.143 77.0249 118.878C76.3486 118.805 75.6118 118.687 75.1659 118.214C74.8502 118.534 74.2856 118.616 73.8782 118.401C73.9598 118.302 74.0415 118.202 74.1232 118.103ZM76.4815 116.95C76.2865 116.985 76.0723 117.034 75.9603 117.185C75.81 117.388 75.9319 117.683 76.1482 117.827C76.3645 117.97 76.6427 118.001 76.9077 118.028C78.868 118.226 80.8283 118.424 82.7886 118.622C80.9206 118.759 79.0323 118.66 77.1932 118.329C76.6234 118.226 76.0299 118.088 75.6067 117.722C75.4533 117.855 75.5084 118.106 75.6638 118.237C75.8192 118.368 76.0378 118.41 76.2451 118.445C79.4344 118.979 82.7129 119.06 85.9287 118.684C86.4106 118.628 86.9332 118.541 87.255 118.206C87.5768 117.871 87.501 117.212 87.0275 117.112C83.5757 116.383 79.9577 116.327 76.4815 116.95Z" fill="#00160A"/>
  <path d="M63.1195 91.9081C63.0113 92.0198 63.0869 92.1964 63.1428 92.3389C63.2615 92.6414 63.263 92.9728 63.263 93.2959C63.2629 94.1265 63.2628 94.9571 63.2627 95.7876C63.2627 95.9398 63.216 96.1421 63.057 96.1482C63.0514 95.1443 63.0458 94.1404 63.0402 93.1365C63.0381 92.753 63.0274 92.3427 62.7968 92.0289C62.6549 91.8358 62.9773 91.5828 63.2042 91.6759C63.431 91.7691 63.5235 92.0262 63.5711 92.2579C63.6732 92.7545 63.6842 93.2635 63.6949 93.7695C63.7082 94.4012 63.7216 95.0329 63.7349 95.6646C63.7403 95.9202 63.6864 96.2515 63.4242 96.3013C63.5477 95.4714 63.5431 94.6295 63.5383 93.7912C63.5345 93.1386 63.5158 92.4394 63.1195 91.9081Z" fill="#00160A"/>
  <path d="M62.4783 111.87C62.6456 112.118 62.8129 112.366 62.9802 112.615C62.9709 112.132 63.2016 111.648 63.5973 111.323C63.4062 111.715 63.3493 112.16 63.4364 112.581C63.6901 112.19 63.8628 111.756 63.9431 111.309C63.9767 111.637 64.0103 111.966 64.0439 112.294C64.8827 111.924 65.8418 111.866 66.7732 111.815C67.6617 111.765 68.5502 111.716 69.4388 111.667C72.1868 111.514 74.9459 111.362 77.6904 111.561C78.5214 111.621 79.385 111.725 80.077 112.144C80.569 112.443 80.9645 112.965 80.8441 113.489C80.6752 114.224 79.6865 114.493 78.8658 114.613C76.4262 114.97 73.9723 115.247 71.5106 115.444C68.529 115.682 65.4025 115.782 62.6752 114.668C62.2585 114.498 61.8256 114.272 61.6498 113.891C61.474 113.509 61.729 112.961 62.1864 112.962C62.1024 112.688 61.8805 112.45 61.5951 112.33C61.9357 112.153 62.4393 112.38 62.488 112.732C62.4848 112.444 62.4816 112.157 62.4783 111.87ZM63.8691 114.354C65.3036 114.54 66.7381 114.727 68.1726 114.914C66.3531 115.028 64.511 114.843 62.7634 114.371C63.7283 114.827 64.7875 115.119 65.8696 115.229C66.6818 115.311 67.5021 115.29 68.3186 115.259C72.1383 115.115 75.9475 114.746 79.714 114.154C80.435 114.04 80.5816 113.057 80.0969 112.561C79.6123 112.066 78.8177 111.95 78.089 111.89C74.6089 111.599 71.1045 111.846 67.6204 112.093C66.2326 112.191 64.8284 112.292 63.5083 112.691C63.0621 112.826 62.556 113.084 62.5473 113.509C62.5367 114.044 63.2821 114.278 63.8691 114.354ZM62.1334 113.239C61.8529 113.333 61.8372 113.716 62.0251 113.927C62.154 114.071 62.3502 114.165 62.555 114.181C62.2766 113.983 62.1627 113.616 62.2864 113.316C62.2661 113.261 62.1959 113.226 62.1334 113.239H62.1334Z" fill="#00160A"/>
  <path d="M71.98 85.0498C72.0438 85.0256 72.1079 85.1049 72.1058 85.1793C72.1037 85.2537 72.0595 85.3175 72.0173 85.3756C71.8869 85.5552 71.7302 85.7502 71.5219 85.76C71.5211 85.4498 71.7142 85.1504 71.98 85.0498Z" fill="#00160A"/>
  <path d="M82.1505 89.9694C78.2938 92.0265 74.4272 94.0883 70.3453 95.7381C69.6869 96.0042 68.9433 96.2626 68.2679 96.0355C67.7935 95.876 67.4465 95.5038 67.1396 95.1351C66.073 93.8542 65.2127 92.4285 64.5952 90.9188C64.4402 90.5397 64.2984 90.1437 64.3217 89.7393C64.345 89.3348 64.5674 88.9165 64.9683 88.7484C66.0166 88.3088 67.0649 87.8692 68.1131 87.4296C68.2824 87.3586 68.4584 87.2829 68.5732 87.1483C68.7083 86.9899 68.7356 86.7779 68.758 86.5777C68.9258 85.0747 69.0937 83.5718 69.2615 82.0688C69.3029 81.6986 69.366 81.2891 69.6774 81.0511C69.9889 80.8132 70.6095 80.9618 70.5849 81.3334C70.5689 81.5762 70.8329 81.7457 71.0643 81.8639C72.297 82.4936 73.5298 83.1233 74.7625 83.7529C74.9937 83.871 75.2743 83.991 75.5099 83.8804C76.5563 83.3891 77.6235 82.9354 78.7084 82.5206C79.0746 82.3805 79.4823 82.2432 79.8581 82.36C80.1611 82.4541 80.3778 82.695 80.5718 82.9287C81.6905 84.2765 82.6137 85.7612 83.3092 87.3312C83.4959 87.7525 83.6688 88.2114 83.5546 88.654C83.3957 89.2695 82.7458 89.6519 82.1505 89.9694ZM64.778 90.143C65.1629 91.3918 65.8473 92.562 66.7683 93.546C67.2455 94.0558 67.8175 94.5329 68.5261 94.7008C69.4147 94.9113 70.3423 94.6019 71.1878 94.2742C73.7176 93.2936 76.1455 92.1069 78.5694 90.922C79.9764 90.2342 81.3834 89.5463 82.7904 88.8585C82.983 88.7644 83.1924 88.6523 83.2582 88.4612C83.3114 88.3066 83.2554 88.14 83.1973 87.987C82.5494 86.2815 81.5914 84.676 80.375 83.257C80.1556 83.001 79.9021 82.736 79.5562 82.6645C79.1982 82.5905 78.8357 82.7423 78.5061 82.8904C74.0838 84.8779 69.6953 86.9288 65.3427 89.0422C65.0996 89.1603 64.8371 89.2982 64.7416 89.5353C64.6637 89.7289 64.7168 89.9443 64.778 90.143ZM82.7621 89.1985C81.97 89.5894 81.1779 89.9803 80.3858 90.3712C77.3403 91.8742 74.2898 93.3795 71.1107 94.6271C70.0289 95.0516 68.6974 95.4236 67.7516 94.7809C67.257 94.4448 66.9741 93.8836 66.4489 93.5893C67.0157 94.6083 67.837 95.7759 69.0821 95.7534C69.5262 95.7454 69.9459 95.5766 70.3506 95.4081C74.6454 93.6205 78.7973 91.5432 82.7621 89.1985ZM70.5805 82.0949C70.4408 82.1195 70.3678 82.2563 70.2773 82.3571C70.1868 82.458 69.9904 82.5202 69.9192 82.407C69.9474 82.2921 69.9756 82.1772 70.0038 82.0623C69.9583 81.9922 69.8357 82.0009 69.7729 82.0585C69.7101 82.1162 69.6913 82.2017 69.6757 82.282C69.3924 83.7395 69.1908 85.2104 69.0717 86.6869C69.0633 86.7907 69.0688 86.9182 69.1688 86.967C69.4956 86.8327 69.4605 86.4067 69.4213 86.0796C69.3303 85.3197 69.5295 84.5197 70.0399 83.916C70.5502 83.3123 71.3837 82.9299 72.2129 82.9911C72.3058 82.9204 72.1978 82.7887 72.0959 82.7294C71.6882 82.4922 71.2551 82.2918 70.805 82.132C70.7331 82.1065 70.6562 82.0816 70.5805 82.0949ZM70.5962 85.2459C70.5477 85.5205 70.5126 85.884 70.2167 85.943C70.1591 86.1315 70.5159 86.2172 70.6579 86.0712C70.7998 85.9251 70.7861 85.7066 70.8047 85.5115C70.8554 84.9789 71.2302 84.4822 71.7553 84.2519C72.2803 84.0216 72.9363 84.0661 73.4188 84.3649C73.6725 84.522 74.011 84.7457 74.236 84.5552C74.3726 84.4395 74.3504 84.223 74.2337 84.0901C74.117 83.9572 73.9342 83.8904 73.7562 83.8416C73.1213 83.6675 72.4185 83.6573 71.8093 83.8965C71.2001 84.1357 70.7024 84.6449 70.5962 85.2459ZM73.4024 83.3752C72.5548 83.0611 71.5374 83.1692 70.7902 83.6528C70.0429 84.1363 69.5893 84.9801 69.6254 85.8193C69.6337 86.0131 69.6662 86.2052 69.6987 86.3968C69.716 86.4987 69.7642 86.6268 69.8764 86.6278C70.0248 86.6291 70.0371 86.429 70.0084 86.2952C69.8532 85.5702 70.094 84.783 70.6375 84.2385C71.181 83.6941 72.0138 83.4058 72.8131 83.4855C73.0231 83.5065 73.2805 83.5336 73.4024 83.3752ZM71.0996 85.9417C71.7925 85.9359 72.2572 85.3211 72.721 84.848C72.7583 84.81 72.7994 84.7707 72.8534 84.7579C72.9288 84.74 73.0152 84.7877 73.0333 84.8574C72.9547 84.9399 72.8761 85.0224 72.7975 85.1049C73.0793 85.1585 73.391 85.0092 73.5047 84.7663C73.0794 84.3669 72.3604 84.2645 71.8235 84.5269C71.2866 84.7893 70.977 85.3944 71.0996 85.9417ZM69.8792 81.6562C70.0852 81.7003 70.3172 81.5904 70.3976 81.4106C70.184 81.2267 69.7777 81.3098 69.6691 81.5596C69.7357 81.598 69.8022 81.6363 69.8688 81.6747L69.8792 81.6562ZM74.5396 84.0991C74.4756 84.2424 74.747 84.3708 74.8471 84.2462C74.9472 84.1216 74.7684 83.9213 74.6103 83.975C74.5561 83.9935 74.5128 84.0312 74.471 84.068L74.5396 84.0991Z" fill="#00160A"/>
  <path d="M93.5827 93.4322C92.7318 92.9144 92.4568 91.8985 92.302 90.9725C91.8872 88.4903 91.8516 85.955 92.1966 83.4639C92.2479 83.0931 92.3171 82.703 92.5756 82.4141C93.0501 81.884 93.9236 81.9119 94.6704 81.944C96.6432 82.0288 98.6309 81.8146 100.529 81.3127C100.845 81.2289 101.185 81.4283 101.345 81.693C101.504 81.9578 101.526 82.2715 101.544 82.5735C101.644 84.2109 101.744 85.8484 101.844 87.4858C101.928 88.8802 101.986 90.3776 101.173 91.5581C100.119 93.0887 97.9573 93.5886 95.993 93.7594C95.1679 93.8311 94.2734 93.8526 93.5827 93.4322ZM93.8215 82.2185C93.6023 82.2327 93.3765 82.2582 93.1863 82.3593C92.8324 82.5474 92.6886 82.9431 92.593 83.3079C92.2418 84.6487 92.1593 86.0484 92.351 87.4162C93.8503 87.4822 95.3559 87.4265 96.8445 87.2499C96.9275 87.2401 97.0145 87.2284 97.0811 87.1818C97.2024 87.097 97.2096 86.9346 97.2048 86.7947C97.1682 85.728 97.0746 84.6629 96.9246 83.6046C96.878 83.2758 96.8145 82.925 96.5659 82.6844C96.3436 82.4692 96.0133 82.383 95.6962 82.3256C95.0801 82.2143 94.4479 82.1781 93.8215 82.2185ZM95.4707 92.8982C95.8952 92.8703 96.3947 92.799 96.5852 92.4498C96.6523 92.3268 96.6683 92.1865 96.6832 92.0496C96.7925 91.0466 96.9017 90.0436 97.011 89.0406C97.0284 88.8805 97.0423 88.7061 96.9458 88.5718C96.7612 88.3149 96.3398 88.3807 96.0176 88.4661C94.8763 88.7686 93.6927 88.9364 92.5051 88.9641C92.1889 89.6986 92.6415 90.5026 92.7557 91.2854C92.7926 91.5387 92.7946 91.8005 92.8939 92.0393C93.0691 92.4608 93.5266 92.7402 94.0033 92.851C94.4799 92.9617 94.9803 92.9303 95.4707 92.8982ZM99.3709 91.6039C98.7686 92.2483 97.7004 92.5089 97.3296 93.2867C99.6904 93.1218 101.691 91.0379 101.571 88.8682C101.453 86.7339 101.335 84.5996 101.217 82.4653C101.208 82.299 101.197 82.1259 101.108 81.9807C100.912 81.6608 100.427 81.6067 100.037 81.6894C99.6477 81.7721 99.2786 81.952 98.8788 81.961C100.029 82.5789 100.159 84.0296 100.156 85.2524C100.154 85.8072 100.152 86.362 100.151 86.9168C100.445 86.6549 101.012 86.8534 101.113 87.2177C101.214 87.582 100.915 87.9719 100.525 88.0881C99.9341 88.2645 99.9358 89.0144 99.9656 89.5842C100.003 90.298 99.8779 91.0615 99.3709 91.6039ZM98.2884 82.1047C98.0871 82.0813 97.8834 82.1086 97.6826 82.1357C97.4726 82.1642 97.2627 82.1926 97.0527 82.221C97.7171 82.7792 98.0608 83.5964 98.208 84.4119C98.3552 85.2274 98.3276 86.0596 98.371 86.8853C98.3748 86.9573 98.3854 87.0398 98.4506 87.0801C98.5014 87.1114 98.5682 87.1055 98.629 87.0983C98.9025 87.0661 99.176 87.0338 99.4495 87.0015C99.5165 86.9936 99.5878 86.984 99.6385 86.943C99.7019 86.8918 99.7148 86.8072 99.7237 86.7301C99.8516 85.6192 99.9761 84.4722 99.6182 83.4045C99.4167 82.8034 98.9684 82.1835 98.2884 82.1047ZM96.6065 93.2705C96.9835 93.1237 97.3475 92.8977 97.5236 92.5584C97.6502 92.3144 97.6678 92.0365 97.6832 91.7666C97.7721 90.2103 97.861 88.6541 97.9499 87.0978C98.0428 85.4703 98.0731 83.6641 96.9122 82.4306C97.8323 85.3524 97.4727 88.4681 97.1054 91.4908C97.0175 92.2144 96.7519 93.117 95.9663 93.2194C95.1978 93.1965 94.4294 93.1737 93.661 93.1508C94.5576 93.5895 95.6712 93.6348 96.6065 93.2705ZM99.6859 89.3376C99.6977 89.0379 99.7095 88.7381 99.7213 88.4384C99.2058 88.4144 98.6861 88.4709 98.191 88.6046C98.0754 89.7279 98.0186 90.8563 98.021 91.9846C98.0211 92.0077 98.0214 92.0317 98.0322 92.0526C98.0742 92.1337 98.2075 92.0954 98.2891 92.046C98.5649 91.879 98.8445 91.7091 99.0612 91.4801C99.6003 90.9102 99.6563 90.0917 99.6859 89.3376ZM92.5886 88.7636C93.7871 88.5622 94.9856 88.3609 96.1841 88.1595C96.4747 88.1107 96.8106 88.0723 97.0335 88.2502C97.0956 88.1036 97.1588 87.9481 97.1311 87.7928C97.1034 87.6376 96.9476 87.4899 96.7792 87.5194C95.5459 87.7359 94.2788 87.7902 93.0288 87.6801C92.7454 87.6552 92.4549 87.822 92.3554 88.0668C92.2559 88.3115 92.3566 88.6122 92.5886 88.7636ZM100.225 87.123C99.6712 87.2331 99.1176 87.3432 98.5641 87.4533C98.4815 87.4697 98.3931 87.4891 98.3367 87.5469C98.2664 87.619 98.2678 87.7267 98.2733 87.8233C98.2826 87.9881 98.2919 88.1529 98.3012 88.3177C98.8776 88.201 99.454 88.0842 100.03 87.9675C100.264 87.9202 100.513 87.8652 100.676 87.7046C100.839 87.544 100.855 87.2409 100.646 87.1335C100.521 87.0689 100.365 87.0951 100.225 87.123Z" fill="#00160A"/>
  <path d="M85.0509 27.2233L85.2366 27.3249C87.9148 28.8053 89.9911 30.6113 93.4762 34.1698C100.851 41.7002 107.903 49.5139 114.609 57.5852L115.138 58.2229L115.292 58.4089C117.788 61.4405 118.886 63.389 118.948 65.7268C118.993 67.4558 118.201 69.1535 116.799 70.4929L116.723 70.5643L116.716 70.5703L116.693 70.5938C116.359 70.9224 115.986 71.2144 115.579 71.4632L115.47 71.528L115.436 71.55C113.72 72.6239 111.699 73.0699 109.815 72.7404L109.714 72.7221L109.632 72.7058L109.622 72.7719C107.712 84.3289 103.82 95.608 98.1323 106.067L97.9594 106.384L97.7818 106.706L97.6799 106.889C97.0967 107.928 96.7027 108.474 96.0944 108.971C95.2956 109.625 94.2831 109.989 93.0335 110.138C92.1488 110.243 91.3164 110.242 89.911 110.168L89.6643 110.154C84.0234 109.84 78.3595 109.842 72.7151 110.16L72.186 110.19L71.7489 110.217L71.685 110.223C70.831 110.306 70.0566 110.366 69.3155 110.403L69.1309 110.412L68.9242 110.421L68.8865 110.424C68.0074 110.496 67.1292 110.575 66.252 110.662L64.7565 110.818L63.4975 110.95C63.0967 110.991 62.7683 111.023 62.4558 111.051C58.8786 111.183 56.5281 111.151 55.4044 110.954L55.2514 110.926L55.1033 110.898C51.2838 110.156 48.116 107.855 47.2862 104.854C44.1596 93.547 39.7856 82.5305 34.253 72.0277L34.1778 71.8855L34.1412 71.9055C32.8291 72.5877 31.1805 72.4205 29.7285 71.5557L29.6536 71.5103L29.5775 71.4626L29.5599 71.4558C29.1045 71.2705 28.7001 70.9377 28.4117 70.5194L28.3713 70.459L28.3497 70.4249L28.332 70.4053C27.8619 69.8757 27.5139 69.2816 27.3194 68.663L27.2914 68.57L27.2657 68.4767C26.643 66.1031 27.444 63.6573 29.4049 60.5544C32.9743 54.9062 37.3606 50.6642 42.591 48.2873L42.7498 48.2159L43.0351 48.6825C38.4161 51.4036 34.4122 55.0006 31.3494 59.1807C29.2493 62.0469 28.0947 64.681 28.0911 67.1869L28.0917 67.3007L28.0933 67.3949L28.0986 67.3858C29.4159 65.0079 31.6173 63.0241 35.1316 60.6708L35.283 60.5698L35.4241 60.4761C39.2642 57.9342 43.4471 55.5368 48.2812 53.0583L48.9296 52.7274C52.5037 50.9112 55.5441 49.4636 61.472 46.7249L67.6587 43.8665C69.3573 43.077 70.6301 42.4771 72.0563 41.795L72.4155 41.622C75.32 40.2124 77.5231 38.8859 79.2635 37.3852C81.5049 35.4526 82.7825 33.3581 82.9718 31.0108C83.1247 29.1146 82.3595 27.318 80.897 26.4776C79.4756 25.6607 77.6498 25.7209 75.1073 26.4082C65.9412 28.8862 57.7321 34.2523 52.1841 41.3925C51.8426 41.832 52.0752 42.2309 52.1841 42.4686C52.8964 44.0239 52.4607 45.7719 51.619 47.2709L51.5723 47.3524L50.912 48.4814L51.4449 45.7798C51.3974 41.3925 50.5019 38.9752 48.5215 35.3175L48.4383 35.1654L48.3895 35.0781L48.3571 35.1365C47.4362 36.7614 45.667 38.0278 43.5087 38.7244L43.3968 38.76L43.2896 38.7928C41.4998 39.3321 39.9557 39.4907 36.8211 39.5686L36.0794 39.5851L35.9907 39.4598C35.4529 38.6997 35.9775 37.753 36.9823 37.0059C39.1173 35.4183 41.6191 34.2488 44.2737 33.5973C45.6137 33.2685 46.6106 33.2082 47.5325 33.5211C47.7741 33.6031 47.9971 33.7046 48.2033 33.8257L48.2906 33.8788L48.3001 33.8849L48.3235 33.8299L48.3922 33.9457L48.4261 33.9688C48.8431 34.2605 49.1852 34.6428 49.4695 35.1157L49.5222 35.2054L49.5659 35.2834C49.8865 35.867 50.0832 36.4261 50.3807 37.5157L50.5828 38.2696L50.6405 38.4817C50.8973 39.4137 51.1162 40.0451 51.3974 40.5794L51.429 40.6384L51.4449 40.6677L51.5178 40.5792C57.0739 33.8666 64.802 28.6879 73.4608 25.8754L73.7235 25.7909L73.9949 25.7053C77.4135 24.638 81.4608 25.2787 85.0509 27.2233ZM70.2859 72.8075C66.6898 72.9817 63.1646 74.4589 60.5946 76.8491C59.4305 77.9319 58.6811 79.0126 58.4049 80.1532L58.3807 80.2577C58.2193 80.9856 58.2306 81.6531 58.3684 82.9653L61.3227 110.098C61.3457 110.309 61.3733 110.458 61.4152 110.571L61.4259 110.598L61.6309 110.582L61.659 110.558C62.01 110.247 62.2437 109.771 62.3147 109.249L62.3249 109.163L62.327 109.142C62.3749 108.636 62.3192 108.21 62.1251 107.314L62.0702 107.063L61.9879 106.677C61.3984 103.859 61.1158 101.273 60.7655 96.4332L60.6555 94.9038C60.2018 88.7173 59.8287 85.8415 58.8592 82.3712C58.4216 80.805 58.929 79.0285 60.1169 77.618C61.1234 76.423 62.5527 75.4856 64.404 74.6951C66.65 73.7361 68.988 73.2028 71.2745 73.1678C73.1204 73.1395 74.9518 73.4057 77.4963 73.9854L77.7418 74.0421C79.836 74.5328 81.0741 75.0113 82.1254 75.8908C83.1822 76.7749 83.8647 77.9607 84.4949 79.7173C85.8904 83.6071 86.4257 87.8946 86.3479 93.0598L86.3365 93.6586C86.2989 95.3142 86.2151 96.86 86.0396 99.3602L85.786 102.898C85.6659 104.625 85.6049 105.688 85.5553 106.939L85.55 107.09C85.5296 107.774 85.5713 108.139 85.7448 108.501C85.916 108.858 86.2503 109.124 86.5934 109.194L86.6409 109.202L86.8492 96.2318C86.9259 90.9523 86.8745 88.4035 86.5438 85.335L86.5332 85.2369C86.3547 83.6039 86.1201 82.2583 85.7682 80.9993C85.59 80.3613 85.3767 79.7316 85.1293 79.1133C84.4301 77.3654 83.5756 76.081 82.3995 75.2093C81.0755 74.2279 79.6464 73.8154 76.7039 73.3627L76.4403 73.3227C73.3829 72.8635 71.9942 72.7247 70.2859 72.8075ZM62.8086 109.725L62.8067 109.732C62.7256 110.013 62.6025 110.278 62.4401 110.514L63.0625 110.455C63.2418 110.437 63.4347 110.417 63.6483 110.395L64.6923 110.285C64.6142 110.276 64.5362 110.266 64.4585 110.256L64.2704 110.231L64.0272 110.197L64.0218 109.952L63.9954 109.966C63.7619 110.085 63.5038 110.163 63.2383 110.192L63.1718 110.198L62.9084 110.218L62.8086 109.725ZM54.0728 109.939L54.0538 109.963C54.0239 109.998 53.9903 110.03 53.9533 110.059C54.3659 110.184 54.7905 110.289 55.2243 110.374C55.3639 110.401 55.5043 110.426 55.6455 110.45C55.1359 110.322 54.6359 110.162 54.1506 109.97L54.0728 109.939ZM70.3902 60.8391C58.2367 61.4523 45.7727 64.3991 33.1715 69.3867L32.7361 69.5598L33.1827 69.7526C34.2016 70.1921 34.7788 70.9437 35.5383 72.4723L36.7366 74.9118C38.9502 79.4344 40.243 82.1866 41.5673 85.2562C43.4356 89.5866 44.8728 93.5195 45.9425 97.3647L46.5238 99.4948C46.5975 99.7617 46.665 100.002 46.7321 100.236L46.8208 100.543C47.4403 102.663 48.0284 104.206 48.7965 105.573C49.7797 107.322 51.0061 108.634 52.5904 109.527C53.0293 109.774 53.5653 109.76 53.6189 109.565L53.6224 109.548L53.6675 109.174L54.0376 109.335C55.9706 110.175 58.1799 110.472 60.2948 110.181L60.4103 110.165L57.5064 83.6417L57.4788 83.388C57.2933 81.6588 57.2951 80.6766 57.5972 79.6288C57.9972 78.2418 58.96 76.9698 60.3779 75.7786C62.8487 73.7028 66.05 72.3732 69.38 72.0398C71.6103 71.8164 73.8642 71.9933 76.9928 72.5213L77.2658 72.5681C79.6873 72.9899 81.1791 73.437 82.5354 74.2871C84.2699 75.3742 85.465 77.0074 86.2402 79.1479C86.8561 80.8487 87.1853 82.7541 87.3827 85.2384C87.9925 92.9146 87.9925 100.632 87.3827 108.308C87.3251 109.034 88.3666 109.523 89.7589 109.583L89.8288 109.586L90.0249 109.592L90.2618 109.598C92.6763 109.653 94.0573 109.425 95.1604 108.584C95.7641 108.124 96.1671 107.577 96.7903 106.488L96.84 106.401C102.467 96.4901 106.336 85.7411 108.249 74.7048L108.307 74.3703C108.515 73.1417 108.74 72.2783 109.105 71.5087C109.575 70.5208 110.24 69.8293 111.162 69.4801L111.238 69.4526L111.327 69.421L111.288 69.3934C110.522 68.8581 109.607 68.3573 108.412 67.7874L108.146 67.6619C97.0207 62.4399 83.9097 60.157 70.3902 60.8391ZM70.9468 74.0134C69.0003 74.0841 66.9929 74.5699 64.9553 75.4156C62.0197 76.6339 60.0405 78.4163 59.7453 80.538C59.7263 80.6744 59.7141 80.8135 59.7085 80.9558L59.7053 81.0599C59.6921 81.6633 59.7766 82.2087 60.0095 83.2025L60.1898 83.9545C60.7822 86.4523 61.1011 88.8913 61.4179 92.7174L61.6595 95.73C62.1743 102.053 62.589 105.621 63.3571 109.498L63.3815 109.621L63.4213 109.611C63.6551 109.545 63.872 109.427 64.0439 109.268L64.086 109.228L64.5788 108.732L64.6009 109.733L64.7246 109.748C65.9523 109.897 67.2374 109.941 68.6397 109.895L68.8735 109.887L69.3076 109.852C69.8987 109.806 70.4902 109.763 71.0815 109.723L71.6859 109.684L72.1649 109.636C72.7913 109.571 73.3908 109.501 74.5359 109.365L75.5312 109.248C78.7017 108.881 80.352 108.756 82.2634 108.793L82.5219 108.799L83.2531 108.822L83.4496 108.825C83.9576 108.831 84.34 108.807 84.6878 108.735L84.7203 108.728L84.7146 108.349C84.693 106.506 84.7589 104.643 84.9161 102.056L85.05 99.9754L85.1769 98.0386C85.2749 96.4975 85.3246 95.5492 85.3653 94.4333C85.5756 88.6703 85.1284 84.2311 83.6718 80.1835C83.0096 78.3431 82.2549 77.1015 81.1235 76.2638C80.1438 75.5385 79.0331 75.1655 76.9543 74.7265L76.651 74.663C74.2088 74.1571 72.6085 73.9531 70.9468 74.0134ZM87.2231 109.32L87.2201 109.502L87.4643 109.511C87.3761 109.452 87.2955 109.388 87.2231 109.32ZM85.3077 108.894L85.3128 109.128L85.1026 109.188C84.6158 109.326 84.1256 109.37 83.4389 109.361L83.1809 109.356L82.5913 109.337L82.5053 109.335C81.5202 109.309 80.6223 109.325 79.5672 109.394C81.6613 109.37 83.7557 109.391 85.8482 109.454C85.6334 109.309 85.4469 109.117 85.3077 108.894ZM111.765 69.7465L111.518 69.9168C110.864 70.3685 110.339 70.9764 110.006 71.6623L109.981 71.7146L109.992 71.7168C110.853 71.8827 111.355 71.8933 111.831 71.713L111.876 71.6956C112.498 71.4438 112.797 70.6613 112.411 70.3005C112.227 70.1283 112.037 69.9634 111.837 69.8034L111.765 69.7465ZM33.0727 71.5982L32.7748 71.6926C32.65 71.7311 32.5366 71.7635 32.4322 71.7893C32.9153 71.7796 33.3796 71.6735 33.8009 71.4654C33.6322 71.4485 33.4159 71.4921 33.0727 71.5982ZM82.9584 27.1992L82.9657 27.2144C84.1518 29.7621 84.0168 32.8099 82.5626 35.2442C81.1609 37.5907 79.0054 39.1684 74.9935 41.2366L74.2898 41.5959C71.3017 43.1131 68.607 44.3975 63.7542 46.6407L58.8289 48.9135C53.742 51.2686 51.0059 52.5849 47.7888 54.2447C42.8626 56.7862 38.6705 59.2574 34.8762 61.9216L34.6036 62.114C32.2739 63.768 30.787 65.0704 29.6264 66.6145C28.8396 67.6612 28.4662 68.5886 28.5926 69.4618C28.6206 69.6548 28.6861 69.8495 28.7836 70.0333L28.8217 70.1017L28.8321 70.1191L28.8396 70.1275C29.1072 70.4193 29.4131 70.6845 29.7434 70.9119L29.8431 70.979L29.8599 70.9897L29.8925 71.0015C30.0627 71.059 30.2349 71.0862 30.4051 71.0817L30.4153 71.081L30.4113 71.0408C30.327 70.0384 31.3232 69.173 32.8226 68.5711L32.8944 68.5426C46.3173 63.2841 59.5336 60.2925 72.3646 59.913C86.587 59.4923 100.296 62.382 111.596 68.4792C111.941 68.6653 112.235 68.8393 112.484 69.0124L112.652 69.134C113.119 69.4874 113.404 69.8474 113.56 70.3083C113.72 70.7815 113.591 71.3168 113.289 71.7111L113.27 71.7347C113.866 71.6555 114.456 71.4593 115.011 71.1582L115.098 71.1098L115.143 71.084L115.214 71.0387C115.527 70.8365 115.823 70.614 116.099 70.3751L116.216 70.2718L116.286 70.2079L116.314 70.1796C116.724 69.7659 117.057 69.2972 117.294 68.8009C118.134 67.0385 118.011 64.8515 117.077 62.748L117.01 62.5978C116.292 61.0299 115.355 59.7576 113.356 57.4062C107.894 50.9811 102.124 44.5466 96.0156 38.0523L95.4234 37.4237C92.853 34.6989 91.2339 33.0882 89.4186 31.5373L89.332 31.4635C87.2428 29.6868 85.1923 28.2913 83.0454 27.2415L82.9584 27.1992ZM32.391 69.7058L32.3409 69.7288C31.9527 69.908 31.7329 70.0633 31.5656 70.2827C31.3171 70.6086 31.3568 71.0823 31.6402 71.2432C31.8512 71.3629 32.0772 71.3437 32.616 71.176L32.7564 71.1314C33.0567 71.0345 33.2958 70.9684 33.5018 70.9383L33.5212 70.9356L33.4063 70.7985C33.2697 70.6382 33.1292 70.4806 32.985 70.326L32.8395 70.1724L32.391 69.7058ZM44.6748 34.4624L44.6051 34.4758L44.6129 34.5469C44.6714 35.0929 44.302 35.5465 43.6617 35.9537L43.6045 35.9895C42.6694 36.5661 41.6284 36.9973 40.5386 37.2594C39.6504 37.4731 38.9486 37.4823 38.3499 37.1844C38.2852 37.1522 38.1359 37.2026 37.9478 37.3459C37.5169 37.6744 37.1389 38.0614 36.8297 38.4901L36.7659 38.5805L38.9814 38.568C39.7267 38.5606 40.1432 38.5439 40.6184 38.4973L40.6714 38.492C43.2599 38.2288 45.7195 37.0029 47.3695 35.1537L47.4388 35.0739C47.5891 34.8959 47.6593 34.7719 47.6755 34.6464C47.6922 34.5179 47.6097 34.3916 47.5316 34.3814C46.5839 34.2575 45.6134 34.2879 44.6748 34.4624ZM44.2722 34.5695C41.8817 34.7582 39.6552 35.8675 38.6705 36.9961C38.6705 37.077 38.7487 37.1277 38.8865 37.1508C39.2074 36.7893 39.6552 36.4304 40.1944 36.1038C40.3801 36.6092 41.5363 36.3956 42.3403 36.2072C43.4162 35.6696 44.2722 35.0074 44.2722 34.5695ZM81.7795 26.4181L81.8009 26.4354C81.8621 26.486 81.9217 26.5382 81.9799 26.5919L81.8996 26.4567L81.8009 26.4248L81.7795 26.4181Z" fill="#00160A"/>
  <path d="M80.7576 70.603C85.4216 72.8751 87.8771 76.7799 87.3392 77.0052C86.8012 77.2306 82.4267 70.1842 71.6088 71.0074C57.6568 71.451 55.931 80.3036 55.3711 80.1292C54.8111 79.9547 56.9825 74.3145 62.1633 71.3048C67.3441 68.2951 76.0937 68.3309 80.7576 70.603Z" fill="#E7EAEE"/>
  <path d="M77.8506 89.0605C77.8047 88.9233 77.7352 88.7933 77.6448 88.6756C77.5108 88.52 77.3665 88.3723 77.213 88.2333C77.017 88.0439 76.2543 87.4407 76.2121 87.2847C76.198 87.2584 76.176 87.2363 76.1489 87.2213C76.1082 87.1915 76.0636 87.1665 76.0219 87.1378C75.9204 87.0683 75.8216 86.9947 75.7173 86.9293C75.679 86.9052 75.6177 86.9104 75.5849 86.8831C75.4528 86.773 75.3343 86.648 75.1983 86.5426C75.0346 86.4158 74.8539 86.3085 74.6887 86.1831C74.537 86.0801 74.3653 86.0071 74.1846 85.9688C73.956 85.9006 73.7138 85.8961 73.4882 85.9556C73.2815 86.0124 73.1574 86.1439 73.0295 86.2767C72.9079 86.4025 72.8547 86.5748 72.8843 86.747C72.8657 86.745 72.8472 86.7419 72.829 86.7379C72.5394 86.6555 72.2959 86.7484 72.0762 86.8977C71.9343 86.9924 71.8201 87.1184 71.7428 87.2651C71.6693 87.3921 71.6332 87.5363 71.6383 87.6834C71.6368 87.7385 71.632 87.7934 71.624 87.8477C71.614 87.9966 71.6048 88.1456 71.5963 88.2946C71.5919 88.3752 71.614 88.4666 71.5823 88.5347C71.5132 88.6708 71.4905 88.825 71.5172 88.9772C71.532 89.056 71.5422 89.1356 71.6283 89.1556C71.6093 89.1875 71.5948 89.2218 71.5851 89.2575C71.5759 89.3289 71.5765 89.4018 71.5733 89.4741C71.563 89.6989 71.5492 89.9235 71.5442 90.1487C71.5416 90.2636 71.5605 90.3796 71.5602 90.4948C71.5472 90.7735 71.6095 91.0537 71.7413 91.3098C71.8259 91.4753 71.9473 91.6231 72.097 91.7428C72.2366 91.8477 72.3817 91.9466 72.5621 91.9748C72.6641 91.9907 72.7672 91.9983 72.8699 92.0088C72.9468 92.0166 73.1029 92.0283 73.1606 92.0359C73.2367 92.0177 73.329 92.0257 73.402 92.0112C73.4276 92.0061 73.4532 92.0009 73.4788 91.9958C73.6339 91.9436 73.8116 91.8687 73.917 91.8242C74.1486 91.7245 74.351 91.5762 74.5092 91.3904C74.6194 91.2767 74.693 91.1356 74.7219 90.9824C74.7503 90.781 74.7233 90.5741 74.6434 90.3809C74.5467 90.1531 74.4378 89.9294 74.3374 89.7028C74.2344 89.4702 74.1304 89.2377 74.037 89.002C73.9947 88.9211 73.9785 88.8313 73.9903 88.7439C73.9978 88.6448 73.9834 88.5444 73.948 88.449C73.9093 88.3008 73.8588 88.1549 73.8133 88.008L73.8507 87.9947C73.876 88.0304 73.8997 88.0671 73.927 88.1014C73.9922 88.2007 74.0692 88.293 74.1566 88.3765C74.2425 88.4493 74.3073 88.5413 74.3444 88.6431C74.4046 88.7813 74.4451 88.9268 74.5108 89.0626C74.6409 89.3315 74.7779 89.5978 74.9217 89.8613C74.9765 89.9646 75.0475 90.0602 75.1321 90.1447C75.4001 90.4082 75.747 90.5888 76.1228 90.6606C76.3433 90.6997 76.5681 90.6954 76.7827 90.6477C77.0641 90.5988 77.3192 90.4697 77.5137 90.2779C77.5782 90.2101 77.6343 90.1357 77.681 90.0558C77.7626 89.9343 77.8327 89.8061 77.8906 89.6725C77.9672 89.4716 77.9215 89.2604 77.8506 89.0605ZM75.0141 86.4867C75.1792 86.6267 75.3414 86.7698 75.5147 86.9204C75.4468 86.9392 75.4046 86.9667 75.3524 86.8978C75.2975 86.843 75.2376 86.7927 75.1734 86.7476C75.1521 86.7191 75.1353 86.688 75.1236 86.6553C75.0821 86.6525 75.0081 86.6559 75.0218 86.5699C74.9706 86.5554 74.9232 86.5419 74.8631 86.5249C74.9165 86.4539 74.9652 86.4452 75.0141 86.4867ZM74.9242 86.4262L74.7689 86.4705L74.8013 86.3626L74.6976 86.391C74.6551 86.3571 74.6196 86.3191 74.6571 86.2622C74.7399 86.3129 74.8226 86.3637 74.9242 86.4262ZM74.4678 86.1634L74.6556 86.2614C74.5656 86.2942 74.5049 86.2554 74.4562 86.1875L74.4678 86.1634ZM73.164 87.1094L73.2487 87.2149L73.2184 87.2378L73.137 87.1275L73.164 87.1094ZM71.7821 88.4135C71.8002 88.144 71.8104 87.8732 71.8437 87.6059C71.8539 87.4819 71.8964 87.3633 71.9676 87.2605C72.0939 87.1019 72.2368 86.9507 72.4773 86.9174C72.616 86.8866 72.7636 86.8986 72.8983 86.9516C72.9223 86.9602 72.9432 86.9755 72.958 86.9953C73.0583 87.1763 73.1887 87.3421 73.3442 87.486C73.4645 87.6104 73.5497 87.7604 73.5915 87.9215C73.6242 88.0303 73.6421 88.1425 73.6654 88.2534C73.6692 88.2802 73.6714 88.3072 73.6722 88.3341C73.3473 88.2457 73.0299 88.2678 72.7192 88.299C72.4092 88.3302 72.1064 88.4068 71.7922 88.465C71.7859 88.4483 71.7825 88.4309 71.7821 88.4135ZM73.2665 87.271L73.2968 87.2597L73.3781 87.3256C73.3466 87.3335 73.315 87.3488 73.3077 87.3418C73.2903 87.3202 73.2764 87.2963 73.2665 87.271ZM73.3988 87.3888C73.416 87.3899 73.441 87.3847 73.4488 87.3932C73.4745 87.4212 73.5207 87.4519 73.4429 87.5037L73.3988 87.3888ZM71.6158 88.8058C71.6183 88.7165 71.6321 88.6441 71.7515 88.6157C71.8728 88.5869 71.979 88.5117 72.0995 88.4778C72.2502 88.4352 72.405 88.4048 72.5624 88.387C72.7537 88.3631 72.9473 88.3532 73.1416 88.3573C73.3287 88.3684 73.5153 88.3924 73.6998 88.4293C73.8054 88.4618 73.8858 88.5453 73.9089 88.6467C73.7611 88.6861 73.4247 88.6848 73.4028 88.6876C73.2057 88.7128 73.0077 88.733 72.8107 88.7588C72.7189 88.7709 72.6293 88.7943 72.5377 88.8081C72.5076 88.8127 72.2656 88.8584 72.1904 88.8754C72.0068 88.9169 71.8205 88.9497 71.6209 88.9889C71.619 88.9305 71.6141 88.8679 71.6158 88.8058ZM72.0858 91.6307L71.8547 91.3478L71.8693 91.3351C71.8882 91.3544 71.9074 91.3735 71.926 91.393C71.9749 91.4442 72.0257 91.4941 72.0714 91.5476C72.0865 91.571 72.0981 91.5962 72.1059 91.6223L72.0858 91.6307ZM72.3655 91.797L72.3494 91.8097L72.2303 91.7334L72.3393 91.6988L72.3655 91.797ZM72.5409 91.8749C72.4822 91.8797 72.4389 91.8577 72.4315 91.8029C72.4294 91.7873 72.4686 91.7658 72.4928 91.7533C72.511 91.7636 72.5254 91.7789 72.534 91.797C72.5398 91.8227 72.5421 91.8489 72.5409 91.8749ZM72.8626 91.9193L72.8399 91.9362C72.7958 91.9002 72.7516 91.8642 72.7042 91.8256L72.668 91.9159L72.589 91.8115L72.61 91.7789C72.6904 91.793 72.7707 91.807 72.8598 91.8226L72.8626 91.9193ZM73.0465 91.9347C72.9524 91.9452 72.9504 91.9435 72.9274 91.8265C72.9462 91.8244 72.9648 91.822 72.9835 91.8204C73.0024 91.8188 73.0213 91.8181 73.0414 91.8169L73.0465 91.9347ZM73.2257 91.9372C73.1328 91.9559 73.1155 91.9388 73.1103 91.8258C73.1396 91.8261 73.1689 91.8265 73.1962 91.8268L73.2257 91.9372ZM73.5383 91.867C73.5385 91.8778 73.5184 91.8985 73.5123 91.8968C73.4958 91.8912 73.4813 91.8811 73.4708 91.8678C73.4546 91.8438 73.4346 91.8221 73.4116 91.8035C73.3934 91.86 73.4405 91.9423 73.345 91.9402C73.3146 91.9395 73.2829 91.8703 73.2427 91.8215L73.5264 91.7461C73.531 91.7879 73.5376 91.8275 73.5383 91.867L73.5383 91.867ZM73.7125 91.8421L73.6221 91.8649L73.5879 91.7367C73.6221 91.7212 73.6511 91.708 73.6843 91.6929L73.7125 91.8421ZM73.7793 91.7923L73.7524 91.6677L73.853 91.6206C73.8868 91.7645 73.8824 91.7744 73.7793 91.7923ZM74.1081 91.6283L74.0445 91.5307L74.0146 91.5359C74.0138 91.5623 74.0173 91.5888 74.025 91.6146C74.0427 91.6517 74.0525 91.6799 74.0011 91.6933C73.9543 91.7054 73.933 91.6825 73.9234 91.6425C73.9179 91.6195 73.9113 91.5966 73.9055 91.5751C73.9775 91.5263 74.0457 91.48 74.1171 91.4315L74.207 91.5683C74.1774 91.5863 74.1425 91.6074 74.1081 91.6283L74.1081 91.6283ZM74.4727 90.2251C74.5118 90.3055 74.5448 90.3882 74.5715 90.4726C74.5787 90.4946 74.5865 90.5166 74.5954 90.5381C74.6558 90.6846 74.6682 90.8428 74.6309 90.9921C74.6301 90.9959 74.6223 90.9981 74.6177 91.001C74.6202 91.0979 74.5767 91.189 74.4988 91.2498L74.3812 91.1914L74.3602 91.2122L74.4644 91.3111C74.4411 91.336 74.41 91.3691 74.3789 91.4022L74.3004 91.3109C74.2441 91.3656 74.2631 91.3985 74.3601 91.4304L74.2436 91.5295L74.1742 91.3868C74.2708 91.2454 74.3575 91.0979 74.4336 90.9454C74.4452 90.8732 74.461 90.8018 74.481 90.7315C74.4857 90.7149 74.5131 90.7024 74.533 90.6934C74.5523 90.687 74.5725 90.6827 74.5931 90.6807L74.5947 90.6576L74.5024 90.6299L74.4727 90.2251ZM74.3995 90.3396C74.4426 90.5311 74.4277 90.7277 74.3565 90.9071C74.2828 91.1635 74.1032 91.3782 73.8563 91.5052C73.7188 91.58 73.5748 91.6444 73.4256 91.6979C73.3093 91.7346 73.1855 91.7494 73.0612 91.7413C72.8546 91.7333 72.6488 91.7022 72.4481 91.6485C72.2944 91.6017 72.0034 91.3384 71.9887 91.3183C71.9424 91.2548 71.8963 91.1908 71.8568 91.1237C71.7618 90.9763 71.6972 90.8144 71.6665 90.6468C71.6456 90.4944 71.6357 90.3413 71.6368 90.1886C71.6374 90.0234 71.6553 89.8589 71.6663 89.6942C71.6767 89.5388 71.6855 89.3831 71.7013 89.2283C71.7087 89.1987 71.7301 89.1743 71.7596 89.1618C71.8419 89.132 71.9263 89.1073 72.0125 89.0878C72.0743 89.0737 72.141 89.0756 72.2029 89.0616C72.4637 89.0026 72.72 88.9248 72.9847 88.8842C73.2085 88.8498 73.4432 88.8671 73.6699 88.8425C73.8393 88.8241 73.8996 88.8981 73.9402 89.0345C73.985 89.185 74.0486 89.3313 74.1026 89.4799C74.1091 89.4977 74.1834 89.6598 74.2064 89.7425C74.2624 89.9433 74.3437 90.1388 74.3995 90.3396L74.3995 90.3396ZM73.7145 87.7033C73.6935 87.7041 73.6557 87.7095 73.6541 87.705C73.646 87.6763 73.6405 87.647 73.6379 87.6175L73.6901 87.6116L73.7145 87.7033ZM73.5515 87.6148L73.5203 87.4977L73.5489 87.4886L73.6409 87.579L73.5515 87.6148ZM73.551 87.4006C73.4019 87.2557 73.2435 87.1186 73.1494 86.9311C73.0076 86.6882 73.0894 86.3919 73.3354 86.2568C73.4972 86.1555 73.6912 86.1061 73.8898 86.1156C74.1165 86.1207 74.3372 86.2015 74.5121 86.3434C74.7028 86.4943 74.8944 86.6443 75.0827 86.7979C75.1512 86.8538 75.2112 86.919 75.2835 86.9881C75.1846 87.0307 75.0898 87.0691 74.9973 87.1118C74.7292 87.2336 74.4792 87.3857 74.2525 87.565C74.1834 87.6243 74.1216 87.6905 74.068 87.7626C74.0279 87.8128 73.9994 87.8272 73.9445 87.7732C73.8157 87.6469 73.6805 87.5264 73.551 87.4006ZM73.775 87.8158C73.7616 87.7908 73.7533 87.7638 73.7504 87.7364L73.7729 87.7279L73.8452 87.7847L73.8456 87.812C73.8211 87.8139 73.7825 87.8254 73.775 87.8158L73.775 87.8158ZM73.9107 87.9843L73.8611 87.869C73.8814 87.8683 73.9052 87.8606 73.9214 87.8681C73.9775 87.8942 73.9622 87.9273 73.9107 87.9843ZM74.1943 88.2615C74.129 88.2157 74.0716 88.1607 74.0242 88.0985C74.0049 88.0717 74.016 88.0158 74.0311 87.9803C74.1167 87.796 74.2562 87.6396 74.4342 87.5284C74.6916 87.3466 74.9759 87.1996 75.2792 87.0916C75.3282 87.0748 75.3771 87.0576 75.4245 87.0376C75.631 86.9501 75.8528 87.0595 75.9757 87.2515C75.9069 87.2649 75.8415 87.2758 75.7773 87.2907C75.1749 87.4052 74.6476 87.7244 74.2956 88.188C74.2715 88.2211 74.2034 88.2681 74.1943 88.2615ZM74.5582 88.8874C74.5002 88.7482 74.434 88.6119 74.3599 88.479C74.3299 88.4418 74.3344 88.3906 74.3702 88.361C74.4125 88.3201 74.4516 88.2762 74.4955 88.237C74.7736 87.9894 75.0625 87.7542 75.4094 87.5902C75.5148 87.5392 75.6237 87.4941 75.7353 87.4554C75.8405 87.4172 75.9505 87.3908 76.0632 87.3765C76.1084 87.372 76.169 87.4204 76.2122 87.4558C76.3155 87.5406 76.4142 87.6306 76.5121 87.721C76.6962 87.8908 76.882 88.059 77.0604 88.234C77.2606 88.4303 77.3912 88.6645 77.4982 88.9747C77.517 89.131 77.5252 89.2878 77.5228 89.4442C77.5039 89.6241 77.4066 89.7858 77.2535 89.8914C77.1042 90.0094 76.9438 90.1148 76.774 90.2062C76.4771 90.3615 76.1154 90.38 75.7896 90.2566C75.598 90.1836 75.4203 90.08 75.2646 89.9506C75.1398 89.8389 75.0285 89.7146 74.933 89.5803C74.7722 89.3668 74.6458 89.1332 74.5582 88.8874L74.5582 88.8874ZM75.3468 90.2484C75.312 90.1857 75.2866 90.14 75.2585 90.0893C75.2083 90.1184 75.1737 90.0799 75.1405 90.0334C75.0807 89.9495 75.0191 89.8666 74.9583 89.7832L74.9771 89.7696C75.1146 89.9005 75.2164 90.0685 75.4184 90.1296C75.3931 90.1715 75.3772 90.198 75.3468 90.2484L75.3468 90.2484ZM75.5939 90.3522C75.4892 90.3484 75.4446 90.2954 75.4601 90.1851C75.5971 90.2518 75.5971 90.2518 75.5939 90.3522L75.5939 90.3522ZM77.8227 89.2893C77.81 89.3309 77.8793 89.4139 77.7531 89.3993C77.7385 89.4027 77.7271 89.4132 77.7233 89.4269C77.7273 89.4411 77.7387 89.4528 77.7535 89.4579C77.7851 89.4622 77.8169 89.4639 77.8485 89.4629C77.8402 89.5197 77.8279 89.5758 77.812 89.6308C77.8092 89.6389 77.7558 89.6344 77.7273 89.6282C77.6915 89.6183 77.6564 89.6063 77.6221 89.5921L77.6057 89.6285C77.6621 89.6567 77.7185 89.6849 77.784 89.7176C77.7639 89.7677 77.7394 89.8159 77.7107 89.8619C77.6577 89.9337 77.6177 89.8178 77.5469 89.8501L77.6468 89.9631L77.5615 90.0608C77.4745 90.2331 77.3233 90.3681 77.1351 90.4416C77.0873 90.4619 77.0667 90.4583 77.0415 90.4158C77.0201 90.3853 76.9962 90.3562 76.9701 90.3291L76.9385 90.3475L77.0177 90.4968C76.9672 90.5295 76.9185 90.573 76.8607 90.5164C76.8259 90.4759 76.7952 90.4325 76.7691 90.3868L76.7426 90.3952L76.8054 90.5754C76.7584 90.573 76.6957 90.5864 76.6563 90.5633C76.6172 90.5405 76.6016 90.481 76.5697 90.4276C76.5147 90.4879 76.5688 90.5338 76.5837 90.5838C76.4771 90.6706 76.4643 90.5465 76.4074 90.4941C76.4 90.5303 76.4029 90.5586 76.3893 90.572C76.3685 90.5921 76.3412 90.6051 76.3112 90.6093C76.2993 90.6106 76.2761 90.5785 76.2678 90.5584C76.2556 90.5239 76.2458 90.4888 76.2384 90.4533L76.207 90.456L76.1948 90.6036C76.1482 90.5851 76.0927 90.5788 76.0716 90.5507C76.0481 90.5191 76.0557 90.4678 76.0498 90.4251L76.0136 90.4215L75.9903 90.5416C75.8592 90.55 75.8972 90.4313 75.8391 90.3589C75.8244 90.4066 75.8135 90.4422 75.8025 90.4779C75.6783 90.4359 75.647 90.3909 75.6828 90.3007C75.8801 90.3797 76.0917 90.4179 76.3026 90.4126C76.4975 90.4075 76.6853 90.3544 76.8472 90.2586C76.9976 90.1721 77.1428 90.0784 77.2824 89.9778C77.4093 89.8822 77.5073 89.7574 77.5676 89.6148C77.6355 89.4422 77.6414 89.2514 77.5846 89.0705C77.5463 88.9345 77.5115 88.7978 77.4727 88.6526C77.5618 88.7069 77.6316 88.785 77.6727 88.8763C77.7114 88.953 77.7456 89.0315 77.775 89.1114C77.7988 89.1509 77.7931 89.1992 77.7609 89.2307C77.7056 89.2912 77.7896 89.2721 77.8227 89.2893Z" fill="#FFB61D"/>
  <path d="M77.4053 89.8651C77.4303 89.969 77.4696 89.998 77.5615 89.992C77.5647 89.9848 77.5706 89.9741 77.5692 89.9731C77.518 89.9383 77.4659 89.9046 77.4053 89.8651Z" fill="#F93059"/>
  <path d="M77.5624 89.9903L77.5616 89.9903L77.5606 89.9925L77.5624 89.9903Z" fill="#F93059"/>
  <path d="M77.0586 90.1894C77.0978 90.2337 77.137 90.2779 77.1761 90.3221L77.209 90.292L77.0886 90.1647L77.0586 90.1894Z" fill="#F93059"/>
  <path d="M77.2227 90.0646L77.3484 90.171L77.3755 90.1401L77.2477 90.0364L77.2227 90.0646Z" fill="#F93059"/>
  </svg>
  