<svg width="152" height="140" viewBox="0 0 152 140" fill="none" xmlns="http://www.w3.org/2000/svg">
  <path fill-rule="evenodd" clip-rule="evenodd" d="M33.7764 98.1283C42.8983 107.265 84.5159 94.7862 98.5272 98.1283C108.073 100.405 141.528 102.701 128.288 71.0141C86.2881 -29.4997 4.87357 69.1794 33.7764 98.1283Z" fill="#357F7F" />
  <ellipse cx="71.4478" cy="28.2581" rx="6.8797" ry="7.53759" fill="white" />
  <path fill-rule="evenodd" clip-rule="evenodd" d="M15.0994 122.628C12.9821 123.606 11.2436 124.781 11.8914 126.242C13.0203 128.787 16.5668 129.726 20.5998 130.476C26.242 131.526 34.074 131.657 44.2076 131.252C61.1472 130.573 59.2258 129.08 75.3012 128.378C86.2417 127.9 105.22 130.553 120.444 130.505C129.758 130.476 170.382 120.134 112.713 117.838C55.0439 115.541 23.3254 118.829 15.0994 122.628Z" fill="white" />
  <path fill-rule="evenodd" clip-rule="evenodd" d="M15.0994 122.628C12.9821 123.606 11.2436 124.781 11.8914 126.242C13.0203 128.787 59.9247 120.587 76 119.885C86.9406 119.407 103.618 122.676 118.842 122.628C128.156 122.599 149.425 120.856 112.713 117.838C76 114.819 23.3254 118.829 15.0994 122.628Z" fill="#E7EAEE" />
  <path fill-rule="evenodd" clip-rule="evenodd" d="M45.3307 117.482C29.9721 118.441 19.3478 120.144 14.8723 122.211C13.6198 122.79 12.704 123.34 12.0914 123.933C11.3007 124.698 11.0332 125.541 11.4223 126.418C12.0085 127.74 13.1894 128.715 14.9454 129.456C16.3141 130.034 17.9397 130.452 20.3417 130.904L20.4995 130.933C25.8921 131.937 33.3745 132.153 44.2295 131.718L45.1277 131.681C51.4226 131.412 54.7322 131.083 59.6271 130.363L60.9631 130.164C65.877 129.438 68.9533 129.126 75.0989 128.854L75.6135 128.832C79.9307 128.658 83.9123 128.846 94.9033 129.649L101.138 130.108C102.559 130.211 103.764 130.295 104.98 130.375L106.274 130.459C111.748 130.805 116.196 130.979 120.233 130.972L120.445 130.972C122.844 130.964 127.182 130.298 131.402 129.288L131.732 129.208C136.326 128.088 140.082 126.737 142.003 125.393C144.639 123.549 143.919 121.645 139.722 120.339C135.178 118.926 126.329 117.913 112.735 117.371C85.6956 116.295 62.8755 116.386 45.3307 117.482ZM112.691 118.304L113.495 118.337C126.544 118.882 135.059 119.874 139.397 121.224L139.594 121.286C141.332 121.848 142.269 122.446 142.479 123.001C142.649 123.451 142.314 124.004 141.39 124.65C139.603 125.9 135.945 127.216 131.468 128.307L131.147 128.385C127.056 129.364 122.851 130.014 120.532 130.038L120.442 130.039C116.166 130.052 111.425 129.86 105.472 129.472L103.535 129.342C102.291 129.256 100.964 129.161 99.3287 129.04L95.3426 128.745C83.7764 127.897 79.8161 128.087 75.2771 128.285L74.3826 128.325C68.6339 128.593 65.5711 128.911 60.8041 129.616L59.3003 129.839C54.3636 130.561 51.0328 130.88 44.4125 131.15L44.1855 131.159C33.5142 131.586 26.141 131.007 20.8595 130.048L20.7001 130.019C15.6495 129.079 12.6938 128.385 11.8343 126.084C11.4784 125.132 12.9313 124.152 15.3265 123.046C19.6435 121.052 30.1709 119.364 45.3992 118.413C62.9036 117.319 85.687 117.229 112.691 118.304Z" fill="#00160A" />
  <path fill-rule="evenodd" clip-rule="evenodd" d="M65.6248 24.6177C66.834 21.9528 70.0911 20.2113 73.2057 20.5644C71.2018 19.5887 68.8789 18.0637 69.2451 16.0048C69.5267 14.4217 71.3693 13.4622 73.0983 13.258C75.6391 12.958 78.508 14.0199 79.4993 16.1937C80.4905 18.3674 78.7224 21.3726 76.1628 21.2802C78.3161 23.2409 79.0975 26.3761 78.088 29.0044C77.5811 30.3241 75.387 30.401 74.2645 29.4565C73.142 28.512 72.8196 27.0274 72.5578 25.6486C71.2951 26.4023 69.8303 26.8671 68.3311 26.9895C69.0384 27.2087 69.6325 27.719 69.9188 28.3532C68.6704 27.4561 67.213 26.8067 65.6741 26.4617C65.1145 28.1925 64.5489 29.9867 64.8066 31.7768C65.0643 33.5669 66.3805 35.3609 68.3122 35.6776C72.6906 36.3955 75.6892 29.4248 80.1179 29.7992C81.942 29.9534 83.3207 29.2072 83.9827 27.6355C84.6446 26.0637 84.045 24.1196 82.5845 23.1022C81.7164 23.1396 80.8818 22.4752 80.7971 21.6792C80.7124 20.8832 81.391 20.0823 82.2505 19.964C80.4256 17.5697 80.885 13.9423 83.2593 11.9984C85.6336 10.0545 89.602 10.0568 91.9736 12.0035C90.675 10.0742 91.9058 7.1594 94.2629 6.4924C96.6201 5.8254 99.3868 7.53824 99.6627 9.79346C99.9386 12.0487 97.7233 14.2652 95.2572 14.2562C95.6677 16.0014 97.404 17.4089 99.3371 17.5635C98.5108 18.4428 96.9281 17.6141 96.2432 16.6373C95.5583 15.6605 94.9081 14.3907 93.6504 14.2826C95.1955 15.9587 96.2149 18.0405 96.5558 20.216C95.491 18.6946 94.7281 16.995 94.3157 15.2256C94.4666 16.6408 94.1793 18.0934 93.4962 19.369C94.3008 19.0128 95.1895 19.9569 95.0601 20.7699C94.9306 21.5829 94.2208 22.1943 93.5876 22.7736C91.7852 24.4223 90.22 26.9265 91.409 28.9935C92.2102 30.3864 93.961 31.0139 95.4049 31.8614C98.5168 33.6882 100.472 36.8543 101.417 40.1378C102.362 43.4214 102.409 46.8594 102.449 50.256C102.536 57.5259 102.622 64.7959 102.709 72.0658C102.738 74.4628 102.6 77.2063 100.58 78.7203C101.815 77.1432 102.349 75.1151 102.035 73.1928C99.9617 79.6493 98.3326 86.1044 97.7654 93.5876C97.1982 101.071 98.3201 104.206 95.9343 114.409C95.7195 115.327 96.189 116.41 96.7825 117.289C97.8194 118.823 101.734 119.683 100.987 120.936C100.033 122.534 95.8526 122.159 93.2166 122.047C92.1328 122.002 90.9685 121.838 90.1926 121.14C89.2283 120.273 89.1738 118.886 89.177 117.645C89.2106 104.471 88.6663 91.2958 87.5459 78.1622C87.3318 88.3356 87.116 98.5324 85.7191 108.626C85.3256 111.47 84.5293 114.445 84.6534 117.289C84.7209 118.836 85.5015 120.495 85.7728 122.047C85.9882 123.28 85.0162 123.704 83.9827 123.634C83.7088 123.616 83.4915 123.827 83.2102 123.811C82.9769 123.797 82.7408 123.652 82.4766 123.634C82.194 123.616 81.8817 123.726 81.5786 123.704C81.3519 123.687 81.3002 123.514 80.8931 123.514C80.4861 123.514 80.3647 123.631 79.9579 123.572C79.551 123.513 78.8122 123.977 78.4422 123.464C77.7726 122.536 79.4993 120.051 79.3973 118.756C79.2953 117.462 78.7597 113.336 78.7175 112.24C78.353 102.772 76.1014 84.7076 76.1014 84.7076C76.1014 84.7076 74.787 99.0637 70.3483 107.697C69.2472 109.838 67.7473 113.362 69.2451 115.178C70.7429 116.993 69.8832 118.603 70.4192 120.452C70.8473 121.929 71.9157 123.193 72.0142 124.95C72.0629 125.818 70.6731 125.632 70.5366 125.543C70.4002 125.454 70.1689 124.947 70.0532 124.99C69.8798 125.055 70.3381 125.509 69.7916 125.822C69.2451 126.135 69.0275 125.791 68.7678 125.894C68.5148 125.994 68.3806 126.307 68.093 126.262C67.5103 126.171 67.4779 125.958 67.4168 125.977C67.3532 125.996 67.4471 126.329 67.2084 126.392C66.9697 126.455 66.2783 126.179 66.1378 126.053C65.9321 125.869 66.0067 126.539 65.7311 126.506C64.6082 126.374 64.2239 125.425 64.3274 124.86C63.7375 126.163 62.9211 127.018 61.4864 127.49C61.1614 127.597 60.9877 127.261 60.8226 127.278C60.7321 127.287 60.8982 127.552 60.6271 127.633C60.3561 127.714 60.2257 127.684 59.8825 127.59C59.5394 127.496 59.6276 126.701 59.5437 126.701C59.4598 126.701 59.464 127.111 59.314 127.227C59.0261 127.449 58.8608 127.469 58.6114 127.168C58.4717 126.999 58.6351 126.72 58.5358 126.701C58.4683 126.688 58.3413 127.025 58.1104 127.075C57.7061 127.163 57.5741 127.197 57.2654 126.813C57.1306 126.645 57.3861 126.177 57.2235 126.135C57.0609 126.093 56.8592 126.873 56.6489 127.018C56.4386 127.162 56.2984 127.037 56.1084 126.905C55.0571 125.062 56.579 122.941 57.6288 121.097C60.5965 115.884 59.851 109.554 58.2477 103.857C56.6444 98.1592 54.247 92.5506 54.1213 86.6662C54.0724 84.3741 54.3712 82.0669 54.0289 79.7961C53.656 77.3229 52.5405 75.0056 51.7275 72.6233C50.1832 68.0979 49.7291 63.321 49.5272 58.5813C49.3682 54.8491 49.367 51.0564 50.4306 47.4518C51.4941 43.8472 53.7445 40.4063 57.2235 38.4825C59.3932 37.2827 62.0832 36.6085 63.4844 34.6685C64.7951 32.8537 64.5663 30.481 64.2874 28.317C63.3598 28.1619 62.6715 27.2399 62.8469 26.3874C63.0223 25.5349 64.0291 24.9083 64.9541 25.076C64.5532 24.3546 64.1523 23.6332 63.7514 22.9118C64.008 23.2552 65.2465 25.3123 65.1686 22.6827C65.2666 23.3359 65.4406 23.534 65.6248 24.6177Z" fill="white" />
  <path fill-rule="evenodd" clip-rule="evenodd" d="M60.2794 71.0507C59.8778 71.2647 59.3578 71.542 59.0239 71.252C58.1116 70.4598 56.591 70.3556 55.5522 70.9955L55.4901 71.035L55.4408 71.5718C56.4796 70.8525 58.0784 70.9345 59.0239 71.7556C59.3236 72.0158 59.7734 71.819 60.1528 71.6212L60.3653 71.5095C61.4344 70.9729 62.8409 71.0598 63.8189 71.7296C64.366 72.1043 65.0241 71.8679 65.7055 71.6231C66.2747 71.4186 66.8602 71.2082 67.4107 71.3436C67.6681 71.4069 67.9219 71.5434 68.1706 71.6772C68.6263 71.9224 69.0648 72.1584 69.4769 71.9175C70.2932 71.4405 71.4209 71.4646 72.2123 71.976L72.1408 71.5865L72.1093 71.4097C71.3254 70.9599 70.2585 70.9573 69.4769 71.414C69.0648 71.6548 68.6263 71.4189 68.1706 71.1737C67.9219 71.0399 67.6681 70.9034 67.4107 70.8401C66.8602 70.7047 66.2747 70.915 65.7055 71.1196C65.0241 71.3644 64.366 71.6008 63.8189 71.2261C62.821 70.5426 61.3768 70.4661 60.3002 71.0396L60.2794 71.0507ZM60.2716 76.7763C59.8794 77.0044 59.3712 77.2998 59.0255 77.0219C58.0808 76.2625 55.4584 77.4681 55.4584 77.4681C55.6163 77.5334 55.9784 77.4656 56.425 77.382C57.2662 77.2245 58.407 77.0109 59.0465 77.525C59.3569 77.7745 59.7981 77.562 60.1689 77.3509L60.3766 77.2317C61.4226 76.6577 62.8317 76.6948 63.8369 77.3296C64.3992 77.6847 65.047 77.4251 65.7177 77.1564C66.278 76.9319 66.8542 76.701 67.4099 76.8168C67.6698 76.871 67.9291 76.9985 68.1831 77.1234C68.6487 77.3522 69.0968 77.5725 69.4986 77.3173L69.5546 77.2828C70.0131 77.0099 71.0266 77.1798 71.9452 77.3338C72.6135 77.4459 73.2316 77.5495 73.5493 77.4681C73.5493 77.4681 70.2395 76.3302 69.4776 76.8141C69.0758 77.0694 68.6278 76.8491 68.1622 76.6202C67.9081 76.4953 67.6488 76.3678 67.3889 76.3137C66.8332 76.1979 66.257 76.4288 65.6967 76.6533C65.026 76.922 64.3782 77.1815 63.8159 76.8264C62.7902 76.1787 61.3439 76.1533 60.2921 76.7644L60.2716 76.7763ZM60.5991 56.0823C60.2402 56.3202 59.6767 56.4675 59.4043 56.1468C58.5492 55.1398 56.5547 55.3062 55.9103 56.4382C56.6633 56.0543 57.5511 55.6603 58.3477 55.9608C58.5693 56.0444 58.7728 56.1791 58.9742 56.3123C59.3096 56.5342 59.6391 56.7522 60.037 56.724C60.3328 56.7031 60.5881 56.5453 60.8422 56.3884C61.1149 56.2199 61.3862 56.0523 61.7046 56.0556C62.0583 56.0593 62.3462 56.2711 62.6343 56.483C62.9214 56.6942 63.2087 56.9055 63.5612 56.9107C63.8497 56.915 64.1123 56.7773 64.3726 56.6409C64.6635 56.4883 64.9515 56.3373 65.2693 56.388C65.6486 56.4485 65.8765 56.7605 66.1045 57.0729C66.3314 57.3836 66.5584 57.6946 66.935 57.7586C67.1581 57.7965 67.3791 57.7338 67.5946 57.6574L67.8082 57.5798C68.3116 57.3994 68.8735 57.2993 69.3922 57.4381C69.8379 57.5574 70.2347 57.8897 70.3398 58.2961C70.3334 58.2058 70.3259 58.1158 70.3173 58.0262L70.3043 57.5127C69.733 57.078 68.9339 56.9093 68.214 57.0721C68.0906 57.1001 67.969 57.1371 67.8476 57.1742C67.6138 57.2454 67.3806 57.3165 67.136 57.3218C66.7643 57.3299 66.3425 57.106 66.34 56.7639L66.3385 56.7272C66.2984 56.16 65.4277 55.9724 64.8146 56.1203C64.6843 56.1517 64.5521 56.1899 64.419 56.2283C63.9121 56.3746 63.3938 56.5242 62.9338 56.3157C62.7561 56.2352 62.606 56.1063 62.4574 55.9788C62.2495 55.8002 62.0444 55.6242 61.7703 55.5861C61.4339 55.5394 61.1344 55.7174 60.8507 55.9103L60.5991 56.0823ZM55.94 52.0055C56.1847 51.4671 56.178 50.8723 56.1489 50.396C56.1489 50.396 55.7246 51.0836 55.1604 51.0096L55.1207 51.0056C54.8667 50.9886 54.6007 51.1223 54.3502 51.2482C54.0119 51.4182 53.7019 51.574 53.4875 51.3257C52.9619 50.7168 52.1026 50.3654 51.2593 50.4144C51.0197 50.4283 50.7661 50.4803 50.5999 50.6397C50.4337 50.7992 50.4056 51.0925 50.5962 51.2268C50.7913 50.7773 51.4731 50.691 51.9605 50.8727C52.2384 50.9764 52.4823 51.138 52.7266 51.3C52.9108 51.4221 53.0953 51.5444 53.2949 51.6421C53.7592 51.8695 54.4114 51.9236 54.7471 51.5511L54.7733 51.5239C55.0355 51.2702 55.5424 51.2751 55.7923 51.5425C55.9108 51.6693 55.9572 51.8398 55.94 52.0055ZM58.2986 45.1485C57.7259 45.3856 57.0934 44.9682 56.6669 44.544L56.4626 44.3417C56.0862 43.9757 55.6599 43.6221 55.1308 43.6484C54.8451 43.6626 54.5822 43.7912 54.3373 43.9273C53.6066 44.3337 52.9389 44.8358 52.3606 45.4138C52.9215 45.4576 53.3887 45.1022 53.8516 44.75C54.3377 44.3802 54.8191 44.0139 55.3995 44.1172C55.8423 44.196 56.1505 44.5273 56.4578 44.8575C56.7735 45.1968 57.0882 45.535 57.5469 45.5968C57.8513 45.6378 58.1492 45.5427 58.4439 45.4486C58.5156 45.4258 58.587 45.4029 58.6584 45.3822C60.0748 44.9695 61.7391 45.4126 62.6973 46.4575C63.1348 46.9346 63.9519 46.7083 64.5709 46.4201L64.741 46.3391C65.3602 46.0513 66.1797 45.8285 66.613 46.3089L66.6542 46.3528C67.3509 47.07 68.5738 47.0075 69.6356 46.8421L69.8248 46.8114C69.8358 46.8699 69.8466 46.9337 69.8572 47.0024L69.8782 47.1462C70.1066 46.408 70.0165 46.2394 69.8248 46.6305C69.4812 46.3469 68.8105 46.4333 68.3601 46.5262L68.3187 46.5343C67.8739 46.6173 67.308 46.5847 67.1418 46.2022C66.8378 45.5024 65.7277 45.6001 64.9711 45.8887L64.8734 45.9257C64.132 46.2029 63.2116 46.4725 62.6735 45.9476C61.5852 44.8859 59.745 44.5498 58.2986 45.1485ZM70.135 44.3866C70.1435 44.1517 70.1702 43.8721 70.2189 43.5543L70.231 43.477C69.7095 43.1772 69.0477 43.0928 68.4572 43.2507C67.9712 43.3807 67.5617 43.0721 67.1422 42.756C66.7688 42.4746 66.3874 42.1873 65.9371 42.1978C65.574 42.2063 65.2764 42.4067 64.9752 42.6094C64.7319 42.7731 64.4864 42.9383 64.2022 43.0053C63.5098 43.1685 62.8726 42.7222 62.3062 42.2849L62.0805 42.1097C61.4596 41.629 60.4793 41.2405 59.9028 41.7659L59.866 41.7978C59.3798 42.198 58.5853 42.0558 58.0106 41.7543C57.8286 41.6588 57.6527 41.5497 57.4769 41.4408C57.0838 41.1971 56.6916 40.954 56.2331 40.8638C55.5696 40.7332 54.7141 41.1513 54.8035 41.7702C55.29 41.296 56.1082 41.1411 56.7585 41.4C57.0648 41.522 57.3504 41.7259 57.6313 41.9265C58.1429 42.2917 58.6392 42.6461 59.2179 42.4752C59.3939 42.4232 59.546 42.3253 59.6985 42.2271C59.8275 42.144 59.9568 42.0607 60.1009 42.0051C60.8326 41.7225 61.514 42.2025 62.2038 42.6884C62.87 43.1578 63.544 43.6325 64.2784 43.4305C64.5509 43.3555 64.7896 43.1904 65.0251 43.0276C65.3477 42.8045 65.6641 42.5856 66.0529 42.6085C66.4502 42.6319 66.7561 42.9039 67.0489 43.1642C67.0679 43.1812 67.0869 43.198 67.1058 43.2148L67.1867 43.2855C67.5231 43.5752 68.031 43.8237 68.4229 43.6006C69.0506 43.2432 69.8978 43.7391 70.135 44.3866ZM70.6897 41.5454C70.8184 41.4032 70.9393 41.2229 71.0525 41.0044C71.2056 40.7092 71.208 40.2011 71.0525 40.5009C70.8638 40.865 70.4272 41.1542 70.0005 41.0618C69.8128 41.0211 69.6524 40.915 69.4927 40.8093C69.315 40.6918 69.1382 40.5748 68.9255 40.549C68.685 40.5199 68.4579 40.6137 68.232 40.707C68.1595 40.737 68.0872 40.7669 68.0146 40.7926C67.7156 40.8986 67.3021 40.8992 67.1557 40.637C66.651 39.7329 65.0809 39.5687 64.3686 40.3456C64.0752 40.6657 63.4921 40.4605 63.1834 40.1528C63.1063 40.076 63.033 39.9928 62.9595 39.9094C62.7388 39.6589 62.5169 39.4069 62.1877 39.3235C61.8168 39.2294 61.4574 39.3828 61.0944 39.5377C60.767 39.6774 60.4366 39.8184 60.0921 39.7803C59.7375 39.741 59.4564 39.5238 59.1765 39.3075C59.0822 39.2346 58.988 39.1618 58.8912 39.0959C58.5071 38.8347 57.8851 38.7082 57.6088 39.0667C58.0832 39.1308 58.4948 39.366 58.9072 39.6016C59.0812 39.701 59.2554 39.8005 59.4344 39.8873C60.0378 40.1796 60.8746 40.293 61.3283 39.8246L61.3555 39.7984C61.69 39.4993 62.2857 39.745 62.6087 40.0718C62.6676 40.1315 62.7259 40.1945 62.7846 40.258C63.0565 40.5519 63.3382 40.8564 63.7423 40.8901C64.1048 40.9203 64.4162 40.7184 64.7279 40.5164C65.0376 40.3156 65.3476 40.1147 65.7081 40.1412C66.077 40.1683 66.3489 40.4215 66.6214 40.6753C66.8888 40.9243 67.1568 41.174 67.5178 41.211C67.7116 41.2309 67.9016 41.1841 68.0919 41.1372C68.1713 41.1177 68.2506 41.0981 68.3303 41.0834C69.072 40.9463 69.8155 41.2276 70.5047 41.5289L70.6466 41.5914L70.6897 41.5454ZM57.0417 47.451C57.1482 47.5048 57.2499 47.5948 57.2616 47.7131C57.2733 47.8314 57.1442 47.9557 57.0376 47.9021C56.6222 47.6931 56.1196 47.8552 55.7015 48.0588C55.6524 48.0827 55.6032 48.1072 55.5538 48.1319C55.1819 48.3173 54.7981 48.5086 54.3887 48.4739C54.0342 48.4438 53.7049 48.248 53.3829 48.0565C52.955 47.8022 52.5399 47.5553 52.0951 47.7145C51.8695 47.7953 51.7006 47.967 51.5303 48.1401C51.4041 48.2684 51.2772 48.3975 51.1259 48.4906C51.0827 48.5172 51.0335 48.5415 50.9833 48.534C50.8451 48.5132 50.8515 48.3098 50.9114 48.1841C51.3006 47.3678 52.4102 46.986 53.2229 47.3888C53.3645 47.4589 53.4972 47.5488 53.6296 47.6385L53.6296 47.6385C53.8579 47.793 54.0848 47.9467 54.3529 47.9964C54.787 48.0769 55.2103 47.8656 55.609 47.6667L55.6906 47.626C56.113 47.4168 56.621 47.2383 57.0417 47.451ZM60.4081 48.5075C61.0138 48.8117 61.8094 48.7751 62.3779 48.4168C62.7822 48.1619 63.3443 48.3771 63.7255 48.6596C63.8009 48.7155 63.8754 48.7745 63.9502 48.8338L63.9502 48.8338C64.2536 49.0743 64.5617 49.3185 64.953 49.3697C65.2719 49.4114 65.5797 49.3152 65.8895 49.2183C66.1455 49.1383 66.403 49.0579 66.6692 49.0544C67.1138 49.0487 67.5133 49.2543 67.906 49.4563C67.9903 49.4996 68.0742 49.5428 68.1582 49.5837C68.6337 49.8152 69.2463 49.9739 69.69 49.6954L67.6641 48.9102C67.3847 48.802 67.0976 48.692 66.7939 48.6807C66.5176 48.6704 66.247 48.7422 65.9776 48.8138C65.6662 48.8964 65.3563 48.9787 65.0407 48.9334C64.6441 48.8765 64.3314 48.6341 64.02 48.3927L64.02 48.3927L64.02 48.3927L64.02 48.3927L64.02 48.3927C63.9174 48.3132 63.815 48.2338 63.7099 48.1612C63.2854 47.8683 62.6183 47.6983 62.2601 48.0565C61.9398 48.3769 61.3701 48.3662 60.9253 48.2093C60.7147 48.135 60.5169 48.0347 60.3192 47.9345C60.0993 47.8231 59.8796 47.7117 59.6424 47.6361C59.1921 47.4926 58.6144 47.519 58.3309 47.8666C58.3034 47.9798 58.452 48.0715 58.5799 48.0648C58.6619 48.0606 58.7382 48.0323 58.8148 48.0039L58.8148 48.0039L58.8148 48.0039L58.8149 48.0039L58.8149 48.0038C58.8578 47.9879 58.9008 47.972 58.9449 47.9602C59.3337 47.8566 59.6885 48.0763 60.0409 48.2945C60.1631 48.3702 60.2851 48.4457 60.4081 48.5075ZM70.7552 66.4873C70.5923 66.8743 70.0153 66.9321 69.6213 66.7522C69.3907 66.6468 69.1953 66.4884 68.9995 66.3295C68.8608 66.2171 68.7219 66.1044 68.57 66.0103C68.2037 65.7832 67.6672 65.6908 67.3628 65.9898C66.6065 66.7326 65.4068 67.0313 64.3672 66.7357C63.9692 66.6226 63.6036 66.4329 63.2375 66.243L63.2375 66.243C63.0325 66.1366 62.8273 66.0302 62.6162 65.937C62.0281 65.6776 61.328 65.5257 60.7413 65.788C60.5173 65.8882 60.3275 66.041 60.1373 66.1941C59.9744 66.3253 59.8112 66.4566 59.6261 66.5552C58.9988 66.8892 58.19 66.7918 57.5712 66.4437C57.4651 66.384 57.3623 66.3172 57.2596 66.2504C57.025 66.098 56.7909 65.9459 56.5185 65.8791C56.1269 65.7831 55.6143 65.967 55.5717 66.3511C55.2964 65.9689 55.7391 65.4209 56.2233 65.3851C56.7075 65.3492 57.1475 65.6306 57.5455 65.8965C57.9434 66.1623 58.391 66.4372 58.8736 66.3861C59.2777 66.3433 59.5911 66.089 59.9089 65.8313C60.1242 65.6566 60.3416 65.4803 60.5904 65.3672C61.4158 64.9921 62.3855 65.3763 63.1914 65.7883C63.9972 66.2004 64.8987 66.6596 65.7778 66.4205C66.124 66.3263 66.4242 66.132 66.7244 65.9377C66.8406 65.8625 66.9567 65.7873 67.0756 65.7179C67.5016 65.4692 68.0355 65.2903 68.4936 65.4798C68.6948 65.563 68.8559 65.7071 69.0173 65.8515C69.0904 65.9168 69.1634 65.9821 69.2403 66.042C69.6603 66.3687 70.2156 66.5319 70.7552 66.4873ZM75.0274 81.9084C74.5572 82.468 73.6063 82.2767 72.8868 82.0277C72.1674 81.7787 71.2243 81.5745 70.7391 82.1231C70.4633 82.4349 69.9181 82.3854 69.5364 82.1899C69.3727 82.1061 69.2221 82.0017 69.0717 81.8976L69.0717 81.8975C68.8715 81.7589 68.6718 81.6205 68.442 81.5311C67.5477 81.183 66.5738 81.6667 65.7049 82.0982L65.5506 82.1746C64.6439 82.6219 63.3657 82.9069 62.7103 82.1771C62.2624 81.6783 61.3922 81.8045 60.7624 82.092C60.6347 82.1503 60.5071 82.2138 60.3791 82.2776L60.379 82.2777L60.3789 82.2777L60.3788 82.2777L60.3788 82.2778L60.3787 82.2778C59.8755 82.5285 59.3649 82.7829 58.8068 82.7376C58.3116 82.6973 57.8651 82.4257 57.4281 82.1598C56.8735 81.8224 56.3341 81.4942 55.7295 81.6597C55.5395 81.7117 55.3683 81.8108 55.198 81.9094C54.9819 82.0345 54.7672 82.1588 54.5173 82.1849C54.5181 81.6144 55.1954 81.2089 55.8152 81.2189C56.4086 81.2284 56.9508 81.5032 57.4727 81.7678L57.5423 81.803C58.0856 82.0778 58.6808 82.3437 59.2966 82.2786C59.7218 82.2336 60.0978 82.0375 60.4745 81.841C60.6367 81.7564 60.7991 81.6717 60.9655 81.599C61.5186 81.3574 62.2725 81.284 62.6636 81.7175C63.1726 82.2818 64.1272 82.2927 64.8774 82.0456C65.2318 81.9288 65.5661 81.7672 65.9002 81.6057C66.2734 81.4253 66.6463 81.245 67.0468 81.1274C67.806 80.9045 68.7721 80.9825 69.2142 81.5926C69.4851 81.9665 70.0995 81.9396 70.5497 81.7654C70.675 81.7169 70.7984 81.6601 70.9218 81.6033L70.9219 81.6032C71.2418 81.4559 71.5616 81.3087 71.914 81.3066C72.2887 81.3045 72.6528 81.4666 73.0088 81.6251C73.4816 81.8356 73.9401 82.0398 74.3901 81.8442L75.0274 81.9084ZM64.9672 61.5693C64.4574 61.6516 64.0006 61.4 63.5377 61.145C63.1403 60.9262 62.7384 60.7048 62.2947 60.6901C61.7666 60.6726 61.2928 60.9479 60.8235 61.2206C60.3069 61.5208 59.7959 61.8177 59.2241 61.717C58.9967 61.677 58.7909 61.5758 58.5847 61.4743L58.5847 61.4743C58.4822 61.4239 58.3796 61.3734 58.2742 61.3303C57.4842 61.0077 56.506 61.1372 55.842 61.6521C55.9693 61.1103 56.5581 60.74 57.1479 60.6956C57.7377 60.6512 58.3168 60.8743 58.8165 61.1714C59.2422 61.4246 59.8092 61.32 60.26 61.1085C60.4403 61.0239 60.6125 60.9238 60.7844 60.8238C61.0422 60.6739 61.2996 60.5243 61.5837 60.4272C62.3749 60.1571 63.3257 60.3605 63.9136 60.9258C64.2712 61.2696 64.8824 61.1775 65.357 60.9967C65.4251 60.9707 65.4937 60.9433 65.5626 60.9158L65.5627 60.9158C65.9741 60.7515 66.3995 60.5816 66.8267 60.6752C67.2056 60.7582 67.5055 61.0324 67.7994 61.301C68.1574 61.6282 68.5063 61.9472 68.9776 61.9024C69.1313 61.8879 69.2747 61.8329 69.4186 61.7777C69.5242 61.7372 69.6301 61.6966 69.7405 61.6719C70.001 61.6135 70.344 61.6965 70.4002 61.9421C69.6538 62.204 68.7834 62.4582 68.0975 62.0778C67.8825 61.9585 67.6995 61.7825 67.5188 61.6087L67.5187 61.6087C67.2324 61.3333 66.9516 61.0632 66.5572 61.0318C66.2354 61.0062 65.9482 61.153 65.6576 61.3015L65.6575 61.3015C65.4352 61.4152 65.2107 61.5299 64.9672 61.5693ZM61.5775 52.4631C61.8498 52.3047 62.1221 52.1462 62.4402 52.1225C62.9242 52.0865 63.3311 52.3653 63.7255 52.6355L63.7255 52.6355L63.7255 52.6355L63.7256 52.6356C63.8134 52.6958 63.9007 52.7556 63.988 52.8114C64.4674 53.1175 65.2547 53.274 65.5709 52.8352C65.7562 52.5782 66.1993 52.5631 66.5082 52.7029C66.7329 52.8046 66.9109 52.9639 67.0889 53.1232L67.0889 53.1233L67.089 53.1233L67.089 53.1233C67.1557 53.183 67.2224 53.2427 67.2915 53.2993C67.5812 53.5366 67.9384 53.7303 68.3339 53.7637C68.7294 53.797 69.162 53.6384 69.3349 53.3262C68.3981 53.5022 67.3572 53.1167 66.8515 52.4064C66.5964 52.0481 65.9654 52.2206 65.5522 52.4397C65.1391 52.6588 64.5315 52.8603 64.2405 52.5234C63.5623 51.7381 62.0968 51.5991 61.2409 52.2387C60.8233 52.5508 60.1662 52.343 59.7465 52.033C59.6365 51.9517 59.5304 51.8633 59.4244 51.7748L59.4244 51.7748L59.4244 51.7748C59.126 51.526 58.827 51.2767 58.4356 51.1837C57.7481 51.0202 56.9601 51.5062 56.9073 52.1262C57.1005 52.1473 57.3034 52.0544 57.3933 51.9037C57.5934 51.568 58.141 51.5052 58.5405 51.6523C58.8581 51.7693 59.1115 51.9794 59.3634 52.1884L59.3634 52.1884L59.3634 52.1884C59.4284 52.2423 59.4932 52.2961 59.5591 52.3482C59.8803 52.6024 60.2779 52.8338 60.7102 52.8039C61.0301 52.7817 61.3037 52.6225 61.5775 52.4631Z" fill="#FFB61D" />
  <path fill-rule="evenodd" clip-rule="evenodd" d="M65.6248 24.6177C66.834 21.9528 70.0911 20.2113 73.2057 20.5644C71.2018 19.5887 68.8789 18.0637 69.2451 16.0048C69.5267 14.4217 71.3693 13.4622 73.0983 13.258C75.6391 12.958 78.508 14.0199 79.4993 16.1937C80.4905 18.3674 78.7224 21.3726 76.1628 21.2802C78.3161 23.2409 79.0975 26.3761 78.088 29.0044C77.5811 30.3241 75.387 30.401 74.2645 29.4565C73.142 28.512 72.8196 27.0274 72.5578 25.6486C71.2951 26.4023 69.8303 26.8671 68.3311 26.9895C69.0384 27.2087 69.6325 27.719 69.9188 28.3532C68.6704 27.4561 67.213 26.8067 65.6741 26.4617C65.1145 28.1925 64.5489 29.9867 64.8066 31.7768C65.0643 33.5669 66.3805 35.3609 68.3122 35.6776C70.539 36.0427 72.4089 34.4191 74.2915 32.7845C76.1106 31.205 77.9416 29.6152 80.1179 29.7992C81.942 29.9534 83.3207 29.2072 83.9827 27.6355C84.6446 26.0637 84.045 24.1196 82.5845 23.1022C81.7164 23.1396 80.8818 22.4752 80.7971 21.6792C80.7124 20.8832 81.391 20.0823 82.2505 19.964C80.4256 17.5697 80.885 13.9423 83.2593 11.9984C85.6336 10.0545 89.602 10.0568 91.9736 12.0035C90.675 10.0742 91.9058 7.1594 94.2629 6.4924C96.6201 5.8254 99.3868 7.53824 99.6627 9.79346C99.9386 12.0487 97.7233 14.2652 95.2572 14.2562C95.6677 16.0014 97.404 17.4089 99.3371 17.5635C98.5108 18.4428 96.9281 17.6141 96.2432 16.6373C96.1454 16.4979 96.0484 16.3526 95.9502 16.2055L95.9501 16.2052C95.3602 15.3216 94.7285 14.3753 93.6504 14.2826C95.1955 15.9587 96.2149 18.0405 96.5558 20.216C95.491 18.6946 94.7281 16.995 94.3157 15.2256C94.4666 16.6408 94.1793 18.0934 93.4962 19.369C94.3008 19.0128 95.1895 19.9569 95.0601 20.7699C94.937 21.543 94.289 22.1339 93.6812 22.6881L93.5876 22.7736C91.7852 24.4223 90.22 26.9265 91.409 28.9935C92.0245 30.0636 93.2006 30.6819 94.3673 31.2954L94.3674 31.2954C94.7193 31.4804 95.0703 31.665 95.4049 31.8614C98.5168 33.6882 100.472 36.8543 101.417 40.1378C102.362 43.4214 102.409 46.8594 102.449 50.256L102.709 72.0658C102.738 74.4628 102.6 77.2063 100.58 78.7203C101.815 77.1432 102.349 75.1151 102.035 73.1928C99.9617 79.6493 98.3326 86.1044 97.7654 93.5876C97.5812 96.017 97.5751 97.9881 97.5692 99.8915V99.8917C97.5569 103.851 97.5456 107.518 95.9343 114.409C95.7195 115.327 96.189 116.41 96.7825 117.289C97.2319 117.954 98.2218 118.492 99.1385 118.99C100.337 119.642 101.41 120.226 100.987 120.936C100.123 122.384 96.6128 122.212 94.0002 122.084L93.9983 122.084C93.7267 122.071 93.4648 122.058 93.2166 122.047C92.1328 122.002 90.9685 121.838 90.1926 121.14C89.2283 120.273 89.1738 118.886 89.177 117.645C89.2106 104.471 88.6663 91.2958 87.5459 78.1622C87.3318 88.3356 87.116 98.5324 85.7191 108.626C85.6022 109.471 85.4496 110.328 85.2962 111.19C84.9336 113.227 84.5662 115.29 84.6534 117.289C84.6931 118.198 84.9788 119.145 85.2628 120.087C85.4622 120.748 85.6609 121.407 85.7728 122.047C85.9882 123.28 85.0162 123.704 83.9827 123.634C83.846 123.625 83.7234 123.673 83.5999 123.722C83.476 123.77 83.3511 123.819 83.2102 123.811C83.0965 123.804 82.9821 123.766 82.8641 123.727C82.74 123.686 82.612 123.643 82.4766 123.634C82.3391 123.626 82.1945 123.647 82.0474 123.669C81.8922 123.692 81.7342 123.715 81.5786 123.704C81.4858 123.697 81.4224 123.664 81.3519 123.628C81.2501 123.575 81.1337 123.514 80.8931 123.514C80.7204 123.514 80.5991 123.535 80.4855 123.555C80.3316 123.581 80.192 123.606 79.9579 123.572C79.8219 123.552 79.6489 123.591 79.465 123.632C79.0985 123.714 78.6886 123.805 78.4422 123.464C78.0623 122.937 78.4537 121.91 78.8448 120.883C79.1432 120.099 79.4414 119.316 79.3973 118.756C79.3537 118.203 79.2309 117.133 79.1014 116.003C78.9277 114.489 78.7417 112.868 78.7175 112.24C78.353 102.772 77.558 93.2302 75.9503 83.8723C73.3075 85.524 70.4209 86.8448 67.3947 87.7868C66.331 88.1179 66.0805 89.3736 66.0067 90.4047C65.4662 97.9537 64.963 105.76 67.7792 112.868C71.4339 104.085 74.1837 94.9832 75.9799 85.7245C75.0998 93.2426 73.1323 100.652 70.1456 107.697C69.1398 110.069 67.7473 113.362 69.2451 115.178C70.1862 116.318 70.1966 117.378 70.2072 118.467C70.2135 119.111 70.2199 119.765 70.4192 120.452C70.5822 121.015 70.8382 121.546 71.0981 122.086C71.5205 122.963 71.9532 123.862 72.0142 124.95C72.0629 125.818 70.6731 125.632 70.5366 125.543C70.479 125.506 70.4044 125.394 70.3288 125.28C70.2254 125.124 70.12 124.965 70.0532 124.99C69.9916 125.013 70.0097 125.085 70.0342 125.183C70.0786 125.36 70.144 125.62 69.7916 125.822C69.4529 126.016 69.2405 125.958 69.0662 125.91C68.9592 125.88 68.8666 125.855 68.7678 125.894C68.6687 125.933 68.5879 126.005 68.5089 126.075C68.3862 126.184 68.268 126.289 68.093 126.262C67.6797 126.197 67.5433 126.072 67.4771 126.011C67.4499 125.986 67.4346 125.972 67.4168 125.977C67.3952 125.984 67.3918 126.026 67.3873 126.082C67.3786 126.191 67.3659 126.35 67.2084 126.392C66.9697 126.455 66.3169 126.201 66.1764 126.075C66.0747 125.984 66.0321 126.096 65.9817 126.229C65.9301 126.365 65.8704 126.523 65.7311 126.506C64.6082 126.374 64.2239 125.425 64.3274 124.86C63.7375 126.163 62.9211 127.018 61.4864 127.49C61.2871 127.556 61.1447 127.455 61.0263 127.371C60.9516 127.317 60.8865 127.271 60.8226 127.278C60.7895 127.281 60.7907 127.319 60.7923 127.369C60.7951 127.456 60.7991 127.582 60.6271 127.633C60.3561 127.714 60.2257 127.684 59.8825 127.59C59.6539 127.528 59.6168 127.154 59.5926 126.911C59.5805 126.789 59.5717 126.701 59.5437 126.701C59.5057 126.701 59.4858 126.785 59.4614 126.888C59.432 127.012 59.3961 127.164 59.314 127.227C59.0261 127.449 58.8608 127.469 58.6114 127.168C58.5336 127.074 58.5499 126.945 58.5623 126.847C58.5723 126.769 58.5798 126.709 58.5358 126.701C58.5097 126.696 58.4746 126.743 58.4281 126.806C58.3544 126.906 58.2519 127.044 58.1104 127.075L58.0967 127.078C57.7031 127.164 57.5706 127.193 57.2654 126.813C57.1985 126.729 57.2278 126.572 57.2544 126.43C57.2813 126.285 57.3053 126.156 57.2235 126.135C57.1372 126.113 57.0399 126.322 56.9362 126.544C56.8444 126.742 56.7476 126.949 56.6489 127.018C56.4555 127.151 56.3214 127.056 56.1533 126.937L56.1084 126.905C55.1768 125.271 56.2658 123.421 57.2563 121.737C57.3836 121.521 57.5093 121.307 57.6288 121.097C60.5965 115.884 59.851 109.554 58.2477 103.857C57.8333 102.384 57.3658 100.917 56.8982 99.4502C55.5568 95.2414 54.2145 91.0296 54.1213 86.6662C54.1041 85.8599 54.1299 85.0518 54.1557 84.244C54.2033 82.7554 54.2508 81.2681 54.0289 79.7961C53.764 78.0396 53.1247 76.3618 52.4851 74.6836C52.2242 73.9987 51.9631 73.3138 51.7275 72.6233C50.1832 68.0979 49.7291 63.321 49.5272 58.5813C49.3682 54.8491 49.367 51.0564 50.4306 47.4518C51.4941 43.8472 53.7445 40.4063 57.2235 38.4825C57.8561 38.1327 58.533 37.8275 59.2093 37.5227C60.8523 36.7819 62.4917 36.0429 63.4844 34.6685C64.7951 32.8537 64.5663 30.481 64.2874 28.317C63.3598 28.1619 62.6715 27.2399 62.8469 26.3874C63.0223 25.5349 64.0291 24.9083 64.9541 25.076L63.7514 22.9118C63.7759 22.9445 63.8092 22.9928 63.8495 23.0511C64.2321 23.6047 65.2391 25.0617 65.1686 22.6827C65.2132 22.98 65.2735 23.183 65.3434 23.4182C65.4271 23.6997 65.5244 24.0272 65.6248 24.6177ZM99.4162 73.417C99.6676 73.1391 99.7648 72.7727 99.846 72.419C101.128 66.8343 100.216 61.2184 97.315 56.1733C90.879 56.6806 84.3883 56.5973 77.9702 55.925C77.0203 55.8255 76.4135 56.8153 76.1117 57.6501C74.4347 62.2888 73.8377 67.2555 74.3724 72.1194C74.4646 72.9581 75.5585 73.3227 76.463 73.456C78.5361 73.7613 79.6814 73.5656 81.3798 73.2753C82.6839 73.0523 84.3142 72.7737 86.9412 72.6233C87.2512 72.6056 87.2372 71.6282 87.2194 70.3823C87.2004 69.0531 87.177 67.4182 87.538 66.317C88.6518 83.8908 89.4304 101.483 89.8732 119.082C89.887 119.629 89.9128 120.214 90.2557 120.662C90.7418 121.297 91.6849 121.443 92.527 121.497C95.1361 121.664 100.11 121.761 100.313 120.881C100.185 120.096 99.2143 119.649 98.3045 119.23C98.1224 119.146 97.9427 119.063 97.7728 118.979C96.3139 118.257 95.5393 116.696 95.3929 115.178C95.2622 113.821 95.5491 112.468 95.8334 111.127C95.8673 110.967 95.9012 110.808 95.9343 110.648C96.7965 106.495 97.1645 102.255 97.0296 98.029C97.0179 97.6631 97.0024 97.297 96.987 96.9309L96.987 96.9304C96.9328 95.6458 96.8786 94.3607 96.9863 93.0801C97.1203 91.4857 97.5031 89.9217 97.8853 88.3599L97.8855 88.3593C97.9643 88.0374 98.043 87.7156 98.1196 87.3937C99.1591 83.0219 99.7999 78.5699 100.033 74.0998C96.2354 75.6204 91.6511 75.354 88.0915 73.406C91.1802 74.527 94.5951 74.5025 97.8757 74.0323C98.4416 73.9512 99.0498 73.8221 99.4162 73.417ZM101.964 46.2163C101.562 42.9733 100.728 39.7759 99.4849 36.7189C99.2596 36.1646 98.9102 35.7466 98.536 35.299C98.4311 35.1735 98.3242 35.0457 98.2176 34.9118C97.3278 33.795 96.0412 33.0659 94.7479 32.333C93.7369 31.76 92.7218 31.1848 91.889 30.4202C90.7461 31.3952 89.1625 31.9182 87.6067 31.8346C86.0509 31.7509 84.5442 31.0618 83.5324 29.971C83.4577 29.8903 83.3252 29.8888 83.2102 29.8945C81.2967 29.9897 79.3737 30.3106 77.6396 31.061C75.9055 31.8114 74.3661 33.0182 73.4985 34.5906C73.144 35.2332 72.906 35.9241 72.6834 36.615C71.5572 40.11 70.782 43.7007 70.3708 47.3264C70.3462 47.5435 70.331 47.7867 70.4828 47.9543C70.5853 48.0674 70.7439 48.1214 70.8963 48.1663C72.2329 48.561 73.6829 48.6249 75.0544 48.3497L71.2342 47.8547C71.007 47.8252 70.7124 47.6025 70.8959 47.4757C70.9557 47.4343 71.0384 47.441 71.1126 47.4495L75.6136 47.9685C75.8138 47.9915 75.9319 47.7678 75.9649 47.5846C76.0604 47.0544 75.9864 46.4963 75.9133 45.9449C75.8037 45.118 75.6961 44.3061 76.165 43.6253C76.5772 47.315 76.5019 51.0507 75.9411 54.7237C75.8756 55.1526 76.4845 55.3638 76.9518 55.4149C83.3471 56.1131 89.8118 56.2719 96.2384 55.8885C97.2427 55.8286 98.0022 54.9434 98.1817 54.0321C98.3613 53.1209 98.0977 52.1906 97.8362 51.2963L95.8671 44.5624C95.7479 44.1548 95.6581 43.6488 96.0039 43.3714L97.1982 47.6173C97.2474 47.7924 97.3152 47.989 97.4931 48.0658C97.6234 48.122 97.776 48.0961 97.9169 48.0692L101.052 47.4692C101.316 47.4187 101.598 47.359 101.78 47.1762C102.027 46.9289 102.005 46.5498 101.964 46.2163ZM70.226 44.5222C70.226 44.1058 70.3723 43.4644 70.5347 42.7524C71.0276 40.5912 71.6687 37.7803 68.8155 38.6421L68.7656 38.6571C67.6324 38.9996 66.293 39.4043 65.0787 39.049C63.8465 38.6884 62.8009 37.8211 62.2835 36.7306C62.612 36.507 63.0183 36.8787 63.2675 37.1767C64.4754 38.6217 66.8233 39.1398 68.6119 38.356C69.4879 37.9721 69.4935 36.8448 69.3664 35.9596C67.4414 36.5579 65.0993 35.311 64.7034 33.477C64.323 34.6965 63.4396 35.777 62.2717 36.4512C61.8324 36.7047 61.3587 36.9008 60.8853 37.0969C60.7365 37.1585 60.5877 37.2201 60.44 37.2835C54.6131 39.784 50.4895 45.3537 50.093 51.2592C50.0754 51.5209 50.133 51.8664 50.4141 51.9089L54.738 52.5638C54.7896 52.5716 54.8372 52.5804 54.8827 52.5888C55.1167 52.632 55.2947 52.6648 55.6792 52.5022C56.1385 52.308 56.2248 50.2487 56.1817 49.6104C56.1385 48.9721 56.0924 48.1576 56.7201 47.8831C56.7775 49.949 56.4097 51.9913 56.0415 54.0358C55.7426 55.6956 55.4434 57.3569 55.3713 59.0334C55.3481 59.573 55.3661 60.1143 55.3841 60.655C55.4039 61.2504 55.4237 61.8453 55.3884 62.4367C54.924 70.228 54.8396 87.9138 54.8396 87.9138C54.8396 87.9138 63.006 87.3267 66.0067 86.6662C70.4305 85.6924 73.3239 84.5036 74.7841 83.9036C75.4531 83.6288 75.8213 83.4775 75.8981 83.5271C75.6286 82.0813 74.9196 79.2558 74.0974 75.9797L74.0974 75.9797L74.0974 75.9796L74.0974 75.9795L74.0973 75.9795L74.0973 75.9794L74.0973 75.9793C72.4842 69.5516 70.4359 61.3897 70.4192 58.5116C70.418 58.312 70.3176 58.0436 70.2349 57.8225C70.1116 57.4928 70.0276 57.268 70.37 57.5326L70.3037 54.9609C70.2884 54.3677 70.2431 53.0677 70.1957 52.7737C69.6855 49.6131 69.9197 47.6147 70.0951 46.1183C70.1653 45.5201 70.226 45.0021 70.226 44.5222ZM81.0751 122.712C81.1475 123.514 81.7437 123.627 82.2505 123.24C82.4178 123.112 82.4792 122.657 82.5413 122.196C82.5527 122.111 82.564 122.027 82.576 121.945C82.6695 122.146 82.6831 122.446 82.6958 122.725C82.7129 123.101 82.7282 123.437 82.934 123.437C83.7527 123.437 83.6222 122.124 83.5604 121.503C83.5563 121.462 83.5526 121.424 83.5494 121.39C83.7173 121.165 83.9892 121.767 83.92 122.116C83.8509 122.465 83.8419 122.912 84.1149 123.162C84.5495 123.56 85.2214 122.917 85.3021 122.358C85.4431 121.381 85.0852 120.445 84.7243 119.501C84.4698 118.834 84.2138 118.165 84.1303 117.474C84.0213 116.573 84.2103 115.668 84.3966 114.775L84.4246 114.641C86.1151 106.515 86.3919 98.2034 86.6639 89.9333L87.2056 73.4618C83.2418 74.3404 79.0805 74.4571 75.0658 73.8023C74.8418 73.7658 74.7664 74.0684 74.7916 74.2765C75.259 78.1277 75.9119 81.965 76.5646 85.8008L76.5646 85.8008L76.5646 85.8009L76.5646 85.801L76.5646 85.8011L76.5646 85.8011L76.5646 85.8012L76.5646 85.8013L76.5647 85.8013L76.5647 85.8014L76.5647 85.8015L76.5647 85.8015L76.5647 85.8016L76.5647 85.8017L76.5647 85.8017L76.5647 85.8018C77.804 93.0856 79.0424 100.364 79.0085 107.722C79.0061 108.226 78.9979 108.731 78.9897 109.236C78.9531 111.482 78.9164 113.734 79.3973 115.93C79.4417 116.132 79.4905 116.336 79.5394 116.541L79.5394 116.541C79.7829 117.557 80.0299 118.589 79.7582 119.587C79.6483 119.99 79.4554 120.386 79.2639 120.779C78.8971 121.532 78.5354 122.274 78.7718 123.041C78.8395 123.261 79.0251 123.503 79.2696 123.464C79.5705 123.416 79.5718 123.077 79.573 122.745C79.5743 122.41 79.5755 122.082 79.8823 122.064C79.8289 122.562 80.1386 123.391 80.4918 123.292C80.7165 123.292 80.7573 122.919 80.8011 122.519C80.8315 122.24 80.8633 121.949 80.9593 121.761C81.1359 122.024 81.1069 122.288 81.0845 122.493C81.0752 122.578 81.067 122.652 81.0751 122.712ZM73.6433 68.3097C73.6219 65.9162 74.1289 63.5484 74.6337 61.2003C75.0439 59.292 75.4802 57.3251 76.6723 55.7186C76.3166 55.8726 75.8779 55.6356 75.7074 55.3097C75.5369 54.9837 75.5614 54.6037 75.5896 54.2429L75.9794 49.2628C76.0004 48.9935 75.8687 48.6022 75.5892 48.6841C74.1473 49.1067 72.551 49.0678 71.1354 48.5757C70.9234 48.5021 70.7939 48.7898 70.7839 48.9981C70.3225 58.6315 73.6757 71.9404 73.6433 68.3097ZM68.2527 124.456C68.4611 124.43 68.6185 124.866 68.7495 125.229C68.8133 125.406 68.8709 125.566 68.925 125.646C69.0992 125.904 69.5739 125.805 69.7411 125.543C69.8297 125.405 69.8153 125.083 69.8031 124.811C69.7923 124.569 69.7832 124.367 69.8496 124.367C70.2215 124.367 70.3411 124.641 70.4551 124.902C70.5679 125.16 70.6751 125.406 71.0158 125.361C71.2942 125.324 71.474 125.067 71.5524 124.818C71.8366 123.918 71.3047 123.091 70.7616 122.246C70.4681 121.789 70.1713 121.327 69.9984 120.846C69.767 120.203 69.7632 119.516 69.7595 118.83C69.7555 118.108 69.7516 117.387 69.4815 116.717C69.3085 116.288 69.0342 115.903 68.7608 115.519L68.7607 115.519C68.7048 115.44 68.6489 115.362 68.5939 115.283C65.7773 111.245 65.2696 106.229 65.1686 101.432C65.0773 97.0901 65.2551 92.7431 65.7009 88.4195L63.936 88.6521L55.0405 89.824C56.3973 97.225 58.644 104.46 60.8862 111.676C61.1728 112.598 61.4602 113.523 61.8594 114.409C62.2862 115.356 62.8396 116.255 63.5031 117.078C64.4983 118.314 64.4232 119.979 64.3535 121.527L64.3447 121.724C64.3402 121.826 64.3352 121.93 64.3302 122.034C64.2557 123.572 64.1699 125.346 65.6248 126.026C65.9827 126.193 65.9335 125.886 65.8725 125.505C65.8253 125.211 65.771 124.872 65.8933 124.675C65.933 125.03 65.9772 125.397 66.1764 125.703C66.3756 126.009 66.7768 126.234 67.1489 126.135C67.2537 126.083 67.2102 125.847 67.1581 125.565C67.1021 125.262 67.0361 124.904 67.1323 124.66C67.2486 124.835 67.2995 125.017 67.3525 125.208C67.4091 125.411 67.4682 125.623 67.612 125.844C67.8608 126.227 68.4885 126.011 68.5304 125.657C68.5539 125.458 68.4631 125.273 68.374 125.091C68.2705 124.881 68.1693 124.675 68.2527 124.456ZM53.9442 77.5528C54.4632 71.711 54.9826 65.8591 54.911 59.9981C54.9097 59.8913 54.9082 59.7844 54.9067 59.6775C54.8942 58.7876 54.8816 57.8963 54.9814 57.0116C55.0853 56.0897 55.3114 55.1795 55.6529 54.3076L50.3655 53.7147C50.2924 53.7065 50.2075 53.7019 50.1564 53.7508C50.1179 53.7876 50.1121 53.8432 50.1085 53.8942C49.5363 61.9114 50.854 70.0384 53.9442 77.5528ZM97.6756 48.9144L98.3201 51.3123C98.5391 52.1269 98.7596 52.9564 98.7079 53.7942C98.6562 54.632 98.2899 55.4947 97.5458 55.9797C99.8216 58.9368 100.6 62.6653 100.725 66.2871C100.791 68.2132 100.69 70.1387 100.589 72.0646C100.5 73.76 100.411 75.4557 100.436 77.1521C101.971 73.3971 102.032 69.289 102.075 65.2773L102.19 54.4513C102.213 52.2313 102.236 50.0025 101.92 47.8016L98.2176 48.4753C97.9518 48.5237 97.6105 48.6724 97.6756 48.9144ZM84.2928 11.864C82.6106 12.6451 81.7381 14.4842 81.7773 16.2178C81.7936 16.9412 82.0155 17.7566 82.7065 18.1018C83.1509 18.3239 83.7337 18.2862 84.14 18.0091C84.5463 17.732 84.755 17.2298 84.6534 16.7739C84.6051 16.5574 84.9244 16.3928 85.1442 16.4816C85.3641 16.5704 85.4702 16.8041 85.5015 17.0232C85.5135 17.1076 85.5177 17.1931 85.5219 17.2784C85.5286 17.4146 85.5353 17.5505 85.5738 17.6816C85.6802 18.0434 86.046 18.3276 86.4514 18.3635C86.8569 18.3994 87.2748 18.1845 87.4542 17.848C87.5005 17.761 87.5326 17.6668 87.5646 17.5729C87.619 17.4131 87.6731 17.2543 87.7966 17.1347C87.9926 16.9449 88.4664 17.0359 88.4038 17.2913C88.2757 17.8139 88.8744 18.3292 89.453 18.2706C90.0316 18.212 90.4768 17.7034 90.5417 17.171L90.5465 17.1305C90.5813 16.8392 90.6262 16.4642 90.9338 16.439C91.1902 16.6742 91.2489 17.0264 91.3069 17.3737C91.3716 17.7617 91.4353 18.1435 91.7723 18.3492C92.2505 18.6411 92.91 18.3114 93.2351 17.8763C93.6993 17.2551 93.7913 16.4433 93.6252 15.705C93.4591 14.9668 93.0574 14.2908 92.6001 13.6652C92.2557 13.1943 91.8732 12.7411 91.4024 12.3742C89.9373 11.2326 87.8211 11.0843 85.9322 11.3996C85.3676 11.4939 84.8051 11.6261 84.2928 11.864ZM60.4861 111.897C60.2844 112.891 60.2016 113.892 60.1188 114.894C60.0359 115.895 59.9531 116.897 59.7515 117.891C59.6943 118.173 59.2568 118.941 58.7009 119.917C57.5862 121.875 55.9955 124.668 56.0397 126.053C56.0476 126.303 56.1708 126.795 56.4005 126.765C56.8327 126.707 56.913 126.267 56.9878 125.859L56.9878 125.858C56.9969 125.809 57.0059 125.759 57.0155 125.711C57.1036 125.267 57.1766 125.132 57.6615 125.198C57.81 125.241 57.81 125.413 57.6424 125.711C57.4748 126.009 57.3516 126.383 57.5481 126.666C57.7446 126.948 58.3644 126.873 58.3339 126.539C58.3096 126.272 58.5161 126.003 58.7975 125.935C58.892 126.087 58.8515 126.292 58.8135 126.485C58.7664 126.724 58.7232 126.943 58.9446 127.018C59.2479 127.119 59.4111 126.705 59.4675 126.412C59.5239 126.12 59.9539 125.806 60.0907 126.075C59.7282 126.48 59.353 127.439 60.3561 127.439C60.635 127.439 60.631 127.021 60.6269 126.602C60.6249 126.392 60.6228 126.183 60.6562 126.026C60.9242 126.01 61.033 126.348 60.9852 126.591C60.9738 126.649 60.9594 126.699 60.9463 126.746C60.9041 126.893 60.8751 126.994 61.0031 127.141C61.2413 127.415 61.7218 127.211 61.9954 126.967C63.0533 126.023 63.6188 124.855 63.8351 123.514C64.0515 122.174 63.9482 120.808 63.8445 119.456C63.7906 118.753 63.7187 118.005 63.2509 117.447C61.888 115.822 60.9345 113.908 60.4861 111.897ZM87.5907 18.481C87.0657 18.9813 86.0812 18.976 85.5627 18.4701C85.5146 18.4231 85.47 18.3726 85.4254 18.3222C85.3342 18.2189 85.2431 18.1158 85.1225 18.044C84.943 17.9373 84.6594 17.9367 84.5557 18.1087C84.122 18.8279 82.944 19.0442 82.2436 18.5333L83.6963 23.6278C83.9668 24.5762 84.2655 25.5715 85.0162 26.2673C85.4901 26.7065 86.1094 26.9894 86.7426 27.1978C87.0831 27.3099 87.4382 27.4038 87.7997 27.3944C88.2043 27.3838 88.5927 27.2443 88.9506 27.0703C90.4517 26.3406 91.5197 24.9946 92.122 23.534C92.7243 22.0733 92.9029 20.495 92.9745 18.9341C92.1598 19.1897 91.1729 18.8419 90.7522 18.1508C90.1903 18.6506 89.3035 18.8131 88.5765 18.5495L88.5473 18.5389L88.4927 18.5187C88.1809 18.4031 87.8148 18.2674 87.5907 18.481ZM77.7433 24.4723C77.2454 22.9946 76.0063 21.6924 74.3944 21.2533C73.8123 21.0947 73.1996 21.0489 72.5928 21.0613C69.6946 21.1204 66.7264 22.7548 65.9011 25.3123C65.8353 25.5161 65.7865 25.748 65.9028 25.9318C66.0147 26.1087 66.2453 26.186 66.46 26.2395C68.3384 26.7075 70.4442 26.3236 71.9868 25.2319L72.0269 25.2034C72.1965 25.0826 72.3723 24.9575 72.5829 24.9278C72.8101 24.8958 73.083 25.0334 73.0818 25.2449C73.0716 27.0594 74.0595 29.0018 75.8981 29.6573C76.2812 29.7938 76.7482 29.8607 77.077 29.634C77.2874 29.4889 77.3959 29.2531 77.4857 29.0258C78.0603 27.5719 78.2412 25.9499 77.7433 24.4723ZM69.9411 17.2553C70.2922 17.9861 70.9387 18.5604 71.6147 19.062C72.7909 19.9348 74.1781 20.6695 75.6881 20.7194C77.1981 20.7693 78.817 19.9568 79.2059 18.6132C79.4084 17.9137 79.2658 17.1671 79.0238 16.4785C78.7711 15.7594 78.3739 15.0337 77.6713 14.6424C75.7758 13.5867 73.32 13.4351 71.2882 14.2484C70.8549 14.4219 70.43 14.6443 70.1339 14.9832C69.5898 15.6059 69.59 16.5244 69.9411 17.2553ZM97.9112 11.8754C98.7536 10.4463 98.592 8.56691 97.5159 7.2775C97.3603 7.09117 97.1827 6.913 96.956 6.80509C96.734 6.6995 96.4793 6.66807 96.2297 6.65955C94.9684 6.61653 93.6992 7.15169 92.911 8.05885C92.1228 8.96601 91.8348 10.2232 92.1578 11.346C92.3377 11.2677 92.406 11.0689 92.4565 10.8918C92.5071 10.7148 92.5777 10.516 92.7589 10.4405C92.9401 10.365 93.2043 10.5638 93.0832 10.709C92.6786 11.1942 92.485 11.8243 92.5536 12.4326C92.6207 12.5657 92.8289 12.4164 92.8866 12.2796L93.1452 11.6658C93.206 11.5215 93.2743 11.3683 93.4138 11.2817C93.5533 11.1952 93.785 11.22 93.8413 11.3659L93.2004 12.5858C93.1177 12.7433 93.0721 12.9898 93.2533 13.0424L95.0412 11.7847C95.2696 12.0232 95.0596 12.4076 94.7815 12.5963C94.6962 12.6541 94.6038 12.7055 94.5115 12.7567C94.3027 12.8727 94.0947 12.9882 93.9723 13.1776C94.579 13.244 95.194 13.2467 95.8015 13.1856C96.1258 13.1529 96.4525 13.1009 96.7486 12.9749C97.2618 12.7565 97.6416 12.3328 97.9112 11.8754ZM84.4194 30.0135C85.0715 30.6338 86.0234 30.8923 86.9412 31.0698C88.3025 31.3331 89.8646 31.4299 90.9425 30.6208C91.1635 30.4549 91.3691 30.1862 91.2492 29.9481C90.7427 28.9418 90.5549 27.8017 90.7145 26.7024C90.4905 26.6677 90.3109 26.8592 90.165 27.0195C89.6129 27.6263 88.8079 28.0618 87.9487 28.097C86.7554 28.1459 85.6931 27.4554 84.7366 26.7967C84.6639 27.5402 84.4407 28.2709 84.0817 28.9403C83.8906 29.2967 84.1192 29.7278 84.4194 30.0135ZM54.971 89.0404C55.2805 89.2202 55.6753 89.1955 56.0397 89.1643C61.471 88.6983 67.0695 88.0999 71.8116 85.6188C67.8435 86.9678 63.6139 87.5058 59.423 88.0351C57.9024 88.2272 56.3549 88.4191 54.8396 88.1943C54.5404 88.3882 54.6616 88.8605 54.971 89.0404ZM69.7253 36.094L69.8496 37.4964C69.8601 37.6151 69.872 37.738 69.9358 37.8416C70.0132 37.9675 70.1552 38.046 70.291 38.1189L71.3578 38.6916C71.409 38.7191 71.4685 38.7476 71.525 38.731C71.5929 38.7111 71.6204 38.6381 71.6385 38.5747L72.6086 35.1747C71.6224 35.4079 70.6569 35.7157 69.7253 36.094ZM55.2196 53.7255C55.3101 53.729 55.4038 53.7319 55.4877 53.7005C55.7146 53.6153 55.7553 53.3407 55.7613 53.1152C53.8761 52.962 52.0046 52.6675 50.1712 52.2355C49.9001 52.4182 49.9519 52.8329 50.1894 53.0516C50.4269 53.2702 50.7769 53.3418 51.1079 53.3945C52.4646 53.6104 53.844 53.6727 55.2196 53.7255ZM64.1461 27.5675C64.4319 27.6591 64.6992 27.3691 64.7615 27.0965C64.7821 27.0064 64.7922 26.9132 64.8023 26.8202C64.8227 26.6318 64.843 26.4444 64.9501 26.2861C65.1084 26.052 64.8899 25.7207 64.5993 25.6537C64.3086 25.5867 64.0044 25.7119 63.7655 25.8783C63.3736 26.1514 63.0735 26.6475 63.2992 27.0494C63.4589 27.3337 63.8176 27.4623 64.1461 27.5675ZM94.469 20.1975C94.4433 20.1046 94.4067 20.0114 94.3375 19.9398C94.1333 19.7282 93.7283 19.8053 93.5284 20.0204C93.3284 20.2354 93.2789 20.5328 93.2406 20.8137C93.1927 21.1642 93.1498 21.5152 93.1118 21.8668C93.1019 21.9587 93.1401 22.0927 93.2377 22.0712C94.0963 21.8826 94.6862 20.9848 94.469 20.1975ZM82.4224 22.3043C82.4863 22.271 82.5473 22.2275 82.58 22.167C82.6303 22.0737 82.6033 21.9625 82.5754 21.8616L82.41 21.2633C82.3448 21.0277 82.2449 20.7563 81.9938 20.6811C81.7133 20.597 81.4294 20.8218 81.3002 21.0658C81.1091 21.4267 81.1267 21.9048 81.438 22.1859C81.6915 22.4148 82.1136 22.4656 82.4224 22.3043ZM94.8544 13.8312C94.64 13.732 94.3876 13.7046 94.154 13.7549C94.3497 13.9566 94.6806 14.0364 94.9586 13.9491C95.0381 13.9098 94.957 13.7699 94.8773 13.8089L94.8544 13.8312ZM97.386 47.4074L101.047 46.5888C101.11 46.5746 101.182 46.5614 101.238 46.5902C101.382 46.6652 101.208 46.8376 101.051 46.892C100.054 47.237 98.9935 47.4591 97.9168 47.5484C97.7189 47.5648 97.4713 47.555 97.386 47.4074ZM66.8494 28.8251C66.9615 28.7685 67.0033 28.661 67.0453 28.5529C67.0631 28.5071 67.081 28.4612 67.1042 28.419C67.1824 28.2772 67.4629 28.1871 67.5292 28.3331C67.7658 28.854 68.4118 29.2238 69.0764 29.219C69.3147 29.2172 69.4114 29.5148 69.2674 29.6741C69.1235 29.8334 68.8627 29.8764 68.6253 29.8938C68.4264 29.6349 68.0832 29.4995 67.7403 29.3643C67.3928 29.2272 67.0457 29.0902 66.8494 28.8251ZM72.9427 32.1808C72.8256 32.1644 72.7465 32.0671 72.6692 31.9721C72.5834 31.8666 72.4999 31.7639 72.3692 31.7781C71.912 31.8278 71.632 31.3359 71.4874 30.9301C71.4296 30.7679 71.4858 30.494 71.6568 30.5572C72.0943 31.0002 72.6998 31.2973 73.3405 31.3832C73.5888 31.4164 73.9082 31.4712 73.951 31.7008L73.2155 32.1012C73.1315 32.1469 73.0389 32.1943 72.9427 32.1808ZM70.8037 33.2149C69.3759 33.6731 67.5898 33.0826 66.9142 31.929C66.8391 31.8009 66.5794 31.8549 66.5177 31.988C66.456 32.121 66.5272 32.27 66.6089 32.3951C67.0266 33.0353 67.7598 33.5243 68.5958 33.7201C69.4319 33.9159 70.3598 33.816 71.1103 33.4494C71.064 33.3242 70.9493 33.1682 70.8037 33.2149ZM69.4099 30.307C69.5328 30.1564 69.6688 30.0037 69.8569 29.9303C70.045 29.8569 70.2984 29.8922 70.4002 30.0557C70.0249 30.3667 69.6858 30.715 69.3905 31.0925C69.2784 31.2359 69.1676 31.4026 69.198 31.5772C69.2285 31.7518 69.4829 31.8858 69.6185 31.761C69.7199 31.6677 69.9176 31.7651 69.9259 31.8971C69.9342 32.0291 69.8051 32.1416 69.6658 32.1715C69.5264 32.2014 69.381 32.1687 69.2434 32.1324C69.0011 32.0685 68.7322 31.9668 68.6494 31.7469C68.5735 31.5452 68.687 31.328 68.8043 31.144C68.9888 30.8547 69.1911 30.5751 69.4099 30.307ZM85.8108 19.7675C86.0997 19.7885 86.4741 19.9662 86.3564 20.1913C86.1524 20.3375 85.8717 20.2883 85.5965 20.2401C85.5147 20.2258 85.4334 20.2115 85.3548 20.2025C85.02 20.1643 84.6848 20.2327 84.3506 20.301C83.9819 20.3763 83.6146 20.4513 83.2509 20.3823C83.1523 20.3248 83.1684 20.1876 83.2517 20.1147C83.335 20.0418 83.4586 20.0163 83.5753 19.9941C84.3106 19.8539 85.06 19.7129 85.8108 19.7675ZM90.1908 19.9538C90.6898 20.0104 91.1997 19.9991 91.6944 19.9205C91.7701 19.707 91.416 19.5814 91.1511 19.5578L89.9079 19.4472C89.6394 19.4233 89.3501 19.4028 89.1162 19.5155C88.8822 19.6282 88.7663 19.9317 88.9672 20.0825C89.2491 19.8442 89.7048 19.8973 90.1099 19.9445L90.1908 19.9538ZM90.7522 21.6293C90.7349 21.6771 90.6665 21.6938 90.6083 21.7008C90.0741 21.7656 89.5118 21.6426 89.0808 21.3669C88.9781 21.3012 88.8758 21.2162 88.8648 21.1074C88.8538 20.9985 88.9921 20.8829 89.1057 20.934C89.7009 21.2016 90.4824 21.1332 91.0008 20.7682C91.1239 20.6815 91.3313 20.7867 91.3481 20.9217C91.3648 21.0568 91.2484 21.1806 91.1118 21.2511C91.0301 21.2933 90.9406 21.3221 90.8509 21.351C90.7907 21.3704 90.7305 21.3898 90.6725 21.4133C90.6478 21.4902 90.6802 21.5781 90.7522 21.6293ZM89.0994 23.917C89.5124 23.643 89.8899 23.1814 89.7115 22.7452C88.9709 23.6605 87.6828 24.1825 86.4408 24.0706C86.2285 24.0514 86.0446 24.2397 86.0257 24.4334C86.0069 24.6271 86.1123 24.8136 86.2425 24.9677C86.8443 25.6798 88.0207 25.8728 88.9225 25.5088C89.8243 25.1447 90.4361 24.3095 90.6128 23.4252C90.6489 23.2444 90.6646 23.0435 90.5527 22.8905C90.4409 22.7376 90.1544 22.6889 90.0447 22.8432C90.2365 23.0949 90.2305 23.4328 90.1442 23.729C89.9651 24.3439 89.4583 24.8721 88.8135 25.1161C88.1686 25.3601 87.4004 25.3143 86.7959 24.9958C86.699 24.9447 86.5999 24.8798 86.5662 24.7824C86.5325 24.6851 86.6047 24.5553 86.7165 24.5607C87.5601 24.6015 88.4166 24.3702 89.0994 23.917ZM86.3251 21.1365C85.8937 22.001 84.67 22.212 83.7255 21.923C83.4545 21.8401 83.4942 21.41 83.7363 21.2656C83.9783 21.1212 84.2886 21.1744 84.566 21.234C84.8435 21.2936 85.1518 21.3508 85.3974 21.2121C85.4938 21.1578 85.5701 21.0783 85.6466 20.9986C85.712 20.9304 85.7775 20.8621 85.8559 20.8093C86.0257 20.6948 86.3252 20.708 86.3727 20.9032C86.3919 20.982 86.3614 21.0637 86.3251 21.1365ZM86.9476 20.8802L86.7472 22.4598C86.732 22.5799 86.718 22.7071 86.7743 22.8167C86.8599 22.9832 87.0957 23.0575 87.2931 23.0135C87.4906 22.9695 87.6482 22.8302 87.7501 22.6714C87.854 22.5094 87.7877 22.2038 87.5924 22.2667C87.5401 22.2835 87.5027 22.3255 87.4661 22.3668C87.422 22.4163 87.3789 22.4647 87.3122 22.4668C87.1576 22.4715 87.16 22.2581 87.2115 22.1264C87.4256 21.5785 87.4587 20.974 87.3053 20.4097C87.0725 20.4023 86.9741 20.6713 86.9476 20.8802ZM72.4632 29.3208C73.128 29.5445 73.7273 29.9293 74.1834 30.4253C74.2367 30.4833 74.29 30.5464 74.3032 30.6213C74.3228 30.7319 74.2366 30.8496 74.1173 30.875C73.432 30.1631 72.4835 29.6674 71.4654 29.489C71.6218 29.179 72.113 29.203 72.4632 29.3208ZM68.2995 101.887H68.2994C68.1172 101.873 67.9304 101.858 67.7759 101.799C67.6923 101.767 67.6189 101.721 67.5455 101.675L67.5454 101.675L67.5453 101.675C67.4752 101.632 67.4051 101.588 67.326 101.556C67.1641 101.491 66.9236 101.5 66.8494 101.632C67.3848 102.078 68.2295 102.271 68.9799 102.119C68.8565 101.93 68.5835 101.909 68.2995 101.887ZM95.0372 92.9626L96.3848 92.6947C96.5016 92.6715 96.6689 92.6903 96.6758 92.8254C96.0644 93.3089 95.2625 93.4645 94.5454 93.2388C94.6423 93.0537 94.8512 92.9996 95.0372 92.9626ZM76.1424 62.8855C75.8725 62.9463 75.6009 63.0074 75.3713 63.1406C75.885 63.3642 76.5094 63.2166 77.0326 63.0098C78.2092 62.5449 79.2291 61.7923 79.9411 60.8638C80.2169 60.5041 80.4538 60.0608 80.2867 59.6549C80.0192 59.7002 79.8941 59.9578 79.7924 60.1749C79.1928 61.455 77.8738 62.4703 76.3258 62.8433C76.2653 62.8578 76.2041 62.8716 76.1429 62.8854L76.1424 62.8855ZM99.1614 63.454C99.0208 63.6424 98.7003 63.5866 98.4708 63.4935C96.6916 62.772 95.5041 61.0046 95.6182 59.2479C95.6232 59.1704 95.6344 59.0853 95.6973 59.0322C95.7601 58.9791 95.8901 58.9941 95.9031 59.0709C96.0199 59.7642 96.1386 60.4642 96.4229 61.1168C96.7071 61.7695 97.1752 62.3801 97.8475 62.7321C97.9867 62.805 98.1349 62.8674 98.2829 62.9297L98.283 62.9297L98.283 62.9297L98.283 62.9297C98.6104 63.0676 98.9367 63.205 99.1614 63.454ZM81.2829 93.8482C80.8535 93.742 80.4216 93.6352 79.9872 93.6765C80.8414 94.3296 82.1361 94.5074 83.1795 94.1148C83.2175 93.9607 82.932 93.9475 82.7565 93.9857C82.2684 94.0919 81.7773 93.9705 81.2829 93.8482ZM85.2649 59.3227C85.438 59.3565 85.5754 59.1949 85.6649 59.0544C86.0396 58.4658 86.2843 58.2515 86.7739 57.8225L86.8064 57.7941C86.8324 58.1208 86.8601 58.3116 86.8879 58.5024L86.8879 58.5025L86.8879 58.5026C86.9156 58.6934 86.9434 58.8842 86.9694 59.211C86.9778 59.3169 86.9889 59.4296 87.0597 59.5134C87.2573 59.7477 87.6754 59.5465 87.8435 59.2935C88.2335 58.7068 88.1177 57.8766 87.5794 57.3996C87.4412 57.2772 87.6452 57.0473 87.8333 57.0813C88.0215 57.1154 88.1368 57.2877 88.2171 57.448C88.4505 57.9136 88.586 58.4415 88.4624 58.9415C88.3389 59.4415 87.9105 59.8981 87.3593 59.9728C87.1647 59.9991 86.9483 59.9718 86.8064 59.8464C86.6508 59.7089 86.6219 59.4931 86.602 59.2954L86.5373 58.6515C86.3542 58.7539 86.237 58.9268 86.1205 59.0987C85.9926 59.2874 85.8654 59.475 85.6526 59.5671C85.3173 59.7122 84.8888 59.53 84.7152 59.2287C84.5415 58.9275 84.5852 58.5514 84.7415 58.2423C84.8979 57.9331 85.1538 57.6775 85.409 57.4302C85.5633 57.2807 85.7278 57.1268 85.9409 57.063C86.154 56.9993 86.4287 57.0596 86.5209 57.2475C85.7015 57.425 85.0617 58.1499 85.0411 58.9244C85.0368 59.0871 85.092 59.2889 85.2649 59.3227ZM59.0685 99.3577C59.1015 99.4004 59.1532 99.4219 59.2032 99.4395C60.1447 99.7708 61.1591 99.3224 62.0586 98.8829C62.161 98.8329 62.2819 98.717 62.2134 98.6235C62.1784 98.5757 62.1117 98.5709 62.0539 98.5737C61.7051 98.5912 61.3677 98.7352 61.0344 98.8775C60.5812 99.071 60.1356 99.2613 59.6791 99.1256C59.6443 99.1152 59.6096 99.103 59.5748 99.0907C59.4682 99.0531 59.3613 99.0154 59.2516 99.0319C59.1061 99.0537 58.9766 99.2387 59.0685 99.3577Z" fill="#00160A" />
  <path fill-rule="evenodd" clip-rule="evenodd" d="M73.3461 17.9037C73.4427 18.4662 73.8019 18.996 74.3345 19.3617C74.5545 19.5127 74.6771 19.7533 74.6531 19.987C74.7102 20.1002 74.4489 20.1088 74.3302 20.0339C73.6352 19.5953 73.1298 18.9607 72.9208 18.2645C72.8809 18.1316 72.8559 17.9787 72.9554 17.8685C73.0548 17.7583 73.3229 17.7682 73.3461 17.9037V17.9037Z" fill="#00160A" />
  <path fill-rule="evenodd" clip-rule="evenodd" d="M70.7896 24.8087C71.2233 24.5625 71.6895 24.2463 72.1756 24.3568C70.7915 25.8045 68.5814 26.1844 66.607 25.8628C66.4425 25.836 66.2601 25.7929 66.1706 25.652C66.0812 25.5111 66.1956 25.2652 66.3553 25.3129C67.8203 25.75 69.4595 25.5636 70.7896 24.8087V24.8087Z" fill="#00160A" />
  <ellipse cx="66.0693" cy="30.9867" rx="0.810667" ry="0.746667" fill="#FFB61D" />
  <ellipse cx="72.1493" cy="33.4134" rx="0.810667" ry="0.746667" fill="#FFB61D" />
  <ellipse cx="84.816" cy="23.8" rx="0.506667" ry="0.466667" fill="#FFB61D" />
  <ellipse cx="91.504" cy="23.4267" rx="0.506667" ry="0.466667" fill="#FFB61D" />
</svg>
  