<svg width="20" height="20" viewBox="0 0 20 20" fill="none" xmlns="http://www.w3.org/2000/svg">
  <path d="M10.0086 0C10.006 0 10.0024 0.000441784 9.99978 0.000441784C9.99669 0.000441784 9.99404 0 9.99095 0C4.47353 0 0 4.47704 0 10.0002C0 15.5225 4.47353 20 9.99095 20C9.99404 20 9.99669 20 9.99978 20C10.0024 20 10.006 20 10.0086 20C15.526 20 19.9996 15.5225 19.9996 10.0002C20 4.47704 15.5265 0 10.0086 0ZM10.0086 17.1372C10.006 17.1372 10.0024 17.1368 9.99978 17.1368C9.99669 17.1368 9.99404 17.1372 9.99095 17.1372C9.08786 17.1372 8.35559 16.4048 8.35559 15.5004C8.35559 14.597 9.08786 13.8645 9.99095 13.8645C9.99404 13.8645 9.99669 13.8645 9.99978 13.8645C10.0024 13.8645 10.006 13.8645 10.0086 13.8645C10.9113 13.8645 11.6444 14.597 11.6444 15.5004C11.6444 16.4043 10.9126 17.1372 10.0086 17.1372ZM12.3537 4.66435C12.2469 6.29763 11.501 11.155 11.501 11.155C11.501 11.9741 10.8305 12.6377 10.0121 12.6377C10.0077 12.6377 10.0033 12.6377 9.99934 12.6377C9.99536 12.6377 9.99051 12.6377 9.98654 12.6377C9.16863 12.6377 8.49816 11.9732 8.49816 11.155C8.49816 11.155 7.75264 6.29763 7.64582 4.66435C7.59286 3.84661 8.21875 2.3282 9.98698 2.3282C9.99139 2.3282 9.99581 2.32864 9.99978 2.32864C10.0038 2.32864 10.0082 2.3282 10.0126 2.3282C11.7804 2.3282 12.4071 3.84661 12.3537 4.66435Z" fill="black" />
</svg>
  