<svg width="162" height="153" viewBox="0 0 162 153" fill="none" xmlns="http://www.w3.org/2000/svg">
  <path fill-rule="evenodd" clip-rule="evenodd" d="M32.4166 74.3656C32.4166 74.3656 27.6151 70.4918 34.3513 57.1166C41.0875 43.7414 54.7296 46.673 63.4496 41.412C76.3337 33.6388 71.0528 27.5556 87.1182 26.575C107.346 25.3404 108.491 45.2915 118.611 45.2915C119.277 45.2915 135.036 39.3111 137.343 55.6827C138.504 63.9275 118.611 76.5004 118.611 76.5004C118.611 76.5004 110.332 83.5881 109.878 87.0879C107.971 101.766 111.947 118.577 67.3859 126.316C61.6227 127.317 52.0531 123.697 46.7736 117.009C42.6375 111.769 26.0458 115.486 24.497 98.2604C23.7164 89.5781 32.4166 74.3656 32.4166 74.3656Z" fill="#357F7F" />
  <path d="M62.1403 62.7282C62.2906 62.6444 62.4843 62.6916 62.573 62.8335L62.9306 63.4034C64.3509 65.6538 64.9189 66.3846 65.5227 66.715C66.0189 66.9865 66.532 66.9022 67.4712 66.382L67.5967 66.3109C68.1874 65.9631 70.8904 64.2095 71.9354 63.5799C72.0826 63.4912 72.2779 63.532 72.3717 63.671C72.4656 63.8099 72.4224 63.9944 72.2753 64.083L72.1144 64.1808C70.9498 64.8938 68.3337 66.5907 67.8705 66.8522C66.7334 67.4944 65.9962 67.6387 65.2575 67.2587L65.2059 67.2313C64.4122 66.797 63.7949 65.9638 62.0287 63.1368C61.9401 62.9948 61.99 62.8119 62.1403 62.7282Z" fill="white" />
  <path d="M67.2568 66.1772C67.4298 66.1554 67.5888 66.2701 67.6119 66.4334C67.7195 67.1924 67.9773 67.9536 68.3864 68.7176C68.4652 68.8646 68.4028 69.0441 68.2471 69.1185C68.0914 69.1929 67.9013 69.134 67.8226 68.9869C67.3823 68.1648 67.1029 67.3397 66.9856 66.5126C66.9625 66.3492 67.0839 66.1991 67.2568 66.1772Z" fill="white" />
  <path fill-rule="evenodd" clip-rule="evenodd" d="M104.064 84.4024C104.013 84.5242 103.901 84.6928 103.772 84.8524L103.884 84.9619L104.013 85.0924L104.042 85.1185C104.055 85.129 104.064 85.1354 104.072 85.1372C104.114 85.1429 104.143 85.1794 104.137 85.2193C104.131 85.2582 104.093 85.2864 104.051 85.2806C104.013 85.2799 103.875 85.229 103.71 85.1029C103.681 85.0801 103.651 85.0538 103.621 85.0249C103.526 85.1248 103.43 85.2106 103.348 85.2638C103.226 85.3432 103.12 85.3495 103.07 85.3174C103.021 85.2861 102.973 85.181 103.054 84.9686C103.066 84.9302 103.11 84.9099 103.15 84.9219C103.19 84.934 103.212 84.9744 103.2 85.0128C103.187 85.0522 103.186 85.0882 103.185 85.117L103.232 85.0869C103.249 85.0758 103.266 85.0632 103.281 85.0485C103.338 84.996 103.401 84.9322 103.464 84.8632C103.364 84.7531 103.261 84.6239 103.179 84.4747C103.138 84.402 103.106 84.3248 103.076 84.2436C103.055 84.1983 103.076 84.145 103.125 84.125C103.173 84.105 103.229 84.1257 103.25 84.1711C103.342 84.3531 103.46 84.5102 103.576 84.6446L103.615 84.6885C103.72 84.5578 103.811 84.4256 103.852 84.3248C103.875 84.27 103.941 84.2426 103.999 84.2636C104.058 84.2856 104.087 84.3475 104.064 84.4024Z" fill="white" />
  <path fill-rule="evenodd" clip-rule="evenodd" d="M57.0536 46.7589L56.861 46.726C55.7857 46.5371 54.9611 46.3053 53.4209 45.801C53.2442 45.7431 53.1507 45.561 53.2119 45.3942C53.2732 45.2274 53.466 45.139 53.6426 45.1969L54.0265 45.3216C55.3777 45.7571 56.1358 45.9568 57.1712 46.1292C60.6551 46.7094 63.2637 45.0201 63.4771 41.7983C63.4888 41.6221 63.6495 41.4882 63.8361 41.4992C64.0227 41.5102 64.1645 41.662 64.1528 41.8382C63.9128 45.4616 60.9162 47.4021 57.0536 46.7589Z" fill="#00160A" />
  <path fill-rule="evenodd" clip-rule="evenodd" d="M65.759 50.2091L65.9533 50.6171L66.3965 50.7372C66.4204 50.7437 66.4343 50.7673 66.4274 50.79C66.4253 50.7969 66.4213 50.8033 66.4159 50.8084L66.0792 51.125L66.0981 51.5805C66.099 51.604 66.0796 51.6238 66.0547 51.6248C66.0463 51.6251 66.0379 51.6231 66.0306 51.6192L65.6495 51.4142C65.6376 51.4078 65.6232 51.4068 65.6105 51.4116L65.2028 51.5645C65.1796 51.5732 65.1534 51.5625 65.1442 51.5407C65.1411 51.5333 65.1402 51.5252 65.1417 51.5173L65.2275 51.0687L64.9408 50.711C64.9257 50.6922 64.9297 50.6655 64.9495 50.6513C64.9557 50.6469 64.9629 50.6441 64.9705 50.6431L65.427 50.5823L65.6796 50.2039C65.6929 50.184 65.7208 50.178 65.7419 50.1906C65.7494 50.195 65.7553 50.2015 65.759 50.2091Z" fill="#00160A" />
  <path d="M110.287 39.9551C110.461 39.9433 110.612 40.0671 110.625 40.2315C110.637 40.3958 110.506 40.5386 110.332 40.5503C109.085 40.6343 108.106 41.0906 107.671 42.2193C107.645 42.2873 107.624 42.3528 107.606 42.4152L107.594 42.458L107.613 42.4204C108.161 41.3643 109.217 40.6304 110.441 40.4442L110.521 40.4328C110.694 40.4101 110.854 40.5239 110.878 40.6871C110.902 40.8503 110.782 41.0011 110.609 41.0239C109.472 41.1738 108.499 41.8876 108.074 42.9113L108.047 42.98C107.845 43.5033 107.361 43.7542 107.05 43.3064C106.86 43.0333 106.872 42.5482 107.078 42.0152C107.599 40.6633 108.794 40.0557 110.287 39.9551Z" fill="white" />
  <path d="M108.848 37.7321C109.022 37.7204 109.173 37.8441 109.186 38.0085C109.198 38.1729 109.067 38.3156 108.893 38.3273C106.91 38.461 105.171 39.6774 104.479 41.4728C104.274 42.0051 104.236 42.4601 104.309 42.6906L104.318 42.7163L104.332 42.6972C104.367 42.6467 104.407 42.5741 104.446 42.48L104.463 42.4383C105.194 40.5419 106.966 39.2137 109.044 38.9397C109.217 38.9169 109.377 39.0308 109.401 39.194C109.425 39.3572 109.304 39.508 109.131 39.5307C107.313 39.7704 105.759 40.9165 105.09 42.5585L105.056 42.6425C104.785 43.3457 104.199 43.6496 103.825 43.111C103.568 42.742 103.586 42.0454 103.885 41.2687C104.663 39.25 106.619 37.8823 108.848 37.7321Z" fill="white" />
  <path d="M106.909 34.7681C107.083 34.7563 107.234 34.8801 107.247 35.0445C107.259 35.2088 107.128 35.3516 106.954 35.3633C104.125 35.5539 101.645 37.2888 100.658 39.8497C100.322 40.7212 100.294 41.4599 100.478 41.7669L100.494 41.7929C100.521 41.8319 100.512 41.833 100.519 41.8277L100.524 41.825C100.616 41.7769 100.739 41.6127 100.851 41.3405L100.874 41.2846C101.882 38.6691 104.325 36.8374 107.192 36.4595C107.365 36.4367 107.524 36.5505 107.548 36.7138C107.573 36.877 107.452 37.0278 107.279 37.0505C104.676 37.3937 102.453 39.0393 101.504 41.3954L101.467 41.4887C101.117 42.3987 100.413 42.7632 99.9662 42.1206C99.6329 41.6415 99.6571 40.702 100.064 39.6456C101.137 36.8615 103.834 34.9753 106.909 34.7681Z" fill="white" />
  <path d="M103.447 31.9824C103.618 31.9508 103.784 32.0562 103.817 32.2179C103.851 32.3796 103.739 32.5364 103.568 32.5681C101.007 33.0417 98.9482 34.8889 98.3509 37.3322C98.1488 38.1592 98.2099 38.8315 98.4083 39.088L98.4346 39.1202L98.4367 39.1247L98.4403 39.122C98.5114 39.0614 98.5944 38.9068 98.6588 38.667L98.6723 38.6144C99.2866 36.1015 101.315 34.1563 103.906 33.5031C104.075 33.4606 104.248 33.5552 104.293 33.7144C104.338 33.8736 104.238 34.0372 104.069 34.0797C101.735 34.6682 99.9007 36.4039 99.3121 38.6533L99.288 38.7486C99.0713 39.6349 98.4493 40.0579 97.9454 39.4969C97.5768 39.0866 97.4864 38.2159 97.7352 37.198C98.389 34.5232 100.644 32.5009 103.447 31.9824Z" fill="white" />
  <path d="M68.424 68.7834L68.6064 68.7207C70.3301 68.1365 71.7846 67.8787 72.154 68.2337C72.478 68.545 72.7667 69.1088 73.0405 69.9358C73.0925 70.0931 72.9997 70.2605 72.8332 70.3096C72.6666 70.3588 72.4894 70.2712 72.4373 70.1139C72.2006 69.3987 71.9591 68.9173 71.7307 68.6794L71.7213 68.6701L71.7131 68.6705C71.6699 68.6621 71.605 68.6579 71.5224 68.6594C71.3404 68.6628 71.0915 68.6931 70.7943 68.7487C70.1829 68.8631 69.4101 69.0759 68.6426 69.3433C67.3595 69.7903 66.2905 70.3156 65.7 70.79C65.4832 70.9642 65.0873 70.479 65.4682 70.201C66.1536 69.7009 67.1931 69.2122 68.424 68.7834Z" fill="white" />
  <path d="M67.5565 63.1463C67.5565 64.1416 68.671 65.2193 68.9082 65.2806C69.0765 65.3241 66.1769 67.1084 66.1769 67.1084C65.1291 67.2386 64.5139 66.4022 64.5139 65.1562C64.5139 64.9914 67.5565 62.9816 67.5565 63.1463Z" fill="white" />
  <path fill-rule="evenodd" clip-rule="evenodd" d="M64.1374 63.6694C64.5045 63.602 64.7538 63.3132 64.6944 63.0244C64.6349 62.7355 64.2892 62.5559 63.9221 62.6233C63.5551 62.6907 63.3058 62.9795 63.3652 63.2684C63.4247 63.5572 63.7704 63.7368 64.1374 63.6694Z" fill="#FFB61D" />
  <path d="M101.536 30.3278C101.707 30.2995 101.871 30.4082 101.901 30.5705C101.931 30.7329 101.816 30.8874 101.644 30.9157C100.826 31.0502 100.002 31.5176 99.1519 32.261C98.0481 33.2263 97.3191 34.5601 96.9171 36.3385C96.5932 37.7713 96.8922 39.5617 97.7387 41.1356C98.7018 42.9262 100.406 43.3687 102.392 43.7114C104.432 44.0632 104.995 43.846 106.922 43.1989L107.1 43.1381C107.363 43.0439 108.594 42.5888 108.89 42.5043C109.514 42.3263 109.939 42.3412 110.247 42.6514C110.366 42.7715 110.36 42.9604 110.233 43.0731C110.113 43.1789 109.93 43.1802 109.809 43.0809L109.786 43.0597C109.695 42.9682 109.507 42.9577 109.129 43.0601L109.073 43.0755C108.789 43.1568 107.453 43.6518 107.28 43.7114C105.199 44.429 104.493 44.6805 102.279 44.2985C100.084 43.92 98.2228 43.3533 97.1753 41.4058C96.265 39.7133 95.9442 37.7843 96.2992 36.2139C96.7282 34.3159 97.5227 32.8724 98.7226 31.8231C99.6619 31.0017 100.598 30.4821 101.536 30.3278Z" fill="white" />
  <path d="M116.399 54.0706C114.597 53.9837 113.179 55.2974 113.164 57.061C113.152 58.5469 114.038 59.7705 115.255 60.0075C115.747 60.1034 116.693 59.9881 117.394 59.6168C118.458 59.0776 119.272 57.9691 119.374 57.0247C119.542 55.486 118.223 54.1587 116.399 54.0706Z" fill="white" />
  <path d="M83.7611 53.7599C84.3364 54.8573 85.2298 57.3921 84.8434 57.3799C83.7701 57.346 82.3341 55.7881 81.3297 53.6817L81.2504 53.5123C80.3734 51.5998 79.8483 50.3983 80.4581 50.1681C81.0889 49.9301 82.5737 51.495 83.7611 53.7599Z" fill="white" />
  <path fill-rule="evenodd" clip-rule="evenodd" d="M80.4581 50.1442C81.0889 49.9062 82.5956 51.3996 83.7829 53.6645C84.3582 54.7619 84.7485 55.8146 84.8504 56.5696C84.8504 56.5696 82.9075 52.7031 81.7224 51.287C81.2672 50.743 80.4581 50.1442 80.4581 50.1442Z" fill="#E7EAEE" />
  <path d="M80.1272 59.8815C80.1734 59.7227 80.3473 59.6293 80.5156 59.673C80.6838 59.7167 80.7827 59.8809 80.7364 60.0398C80.6769 60.2442 79.84 60.7803 78.014 61.8434L76.8615 62.5096C74.5861 63.8178 73.0679 64.6548 72.8781 64.6548C71.6218 64.6548 70.4897 63.5356 69.6633 61.7695C68.9416 60.2274 68.567 58.3919 68.7362 57.189C68.789 56.8136 70.1134 55.8417 72.1583 54.5396L72.4512 54.3542C74.2604 53.216 75.8068 52.3718 76.3662 52.2652C76.5373 52.2326 76.7039 52.3371 76.7384 52.4986C76.76 52.5997 71.7733 56.5696 71.2861 59.2045C70.9563 60.9885 72.2032 64.0293 72.8222 64.0568L72.8781 64.0581C72.8278 64.0581 72.8439 64.047 72.8498 64.0438L72.9068 64.0161C72.9487 63.9953 72.9985 63.9699 73.0559 63.9402L73.3188 63.8013C73.4194 63.7475 73.5315 63.6868 73.654 63.62L73.9676 63.448C74.5663 63.1179 75.3132 62.6976 76.0751 62.2622L76.7997 61.8462C77.6808 61.3377 78.4769 60.8689 79.0753 60.5048L79.3835 60.3157C79.5744 60.1974 79.7357 60.0951 79.8646 60.0103L79.9115 59.9793C79.9826 59.9319 80.0417 59.8912 80.0878 59.8578C80.0878 59.8578 80.1398 59.8383 80.1272 59.8815Z" fill="white" />
  <path fill-rule="evenodd" clip-rule="evenodd" d="M80.7536 53.9268C79.9901 52.3258 79.6528 50.8586 79.9085 49.9703C79.4465 50.1089 78.869 50.3581 78.2957 50.6687C77.5337 51.0815 76.929 51.543 76.9149 51.6432C76.7676 52.6904 77.3329 54.7277 78.2723 56.5439C79.2772 58.4867 80.4727 59.7345 81.3981 59.7345C81.4866 59.7345 81.7402 59.6852 81.9943 59.6013C82.3559 59.482 82.6945 59.3083 82.972 59.0806C83.11 58.9674 83.2527 58.8395 83.4019 58.6967L83.5816 58.5213C83.6876 58.4154 83.797 58.3014 83.9677 58.1209L84.2054 57.8701L84.2157 57.8595C83.0252 57.4486 81.7801 56.0004 80.8487 54.1224L80.7536 53.9268ZM76.2886 51.5646C76.3868 50.866 79.1561 49.356 80.4199 49.2584C80.4728 49.2271 80.5293 49.1999 80.5896 49.1772C81.6841 48.7641 83.3518 50.5334 84.6895 53.0229L84.7812 53.1957C85.385 54.3475 85.797 55.4588 85.9092 56.2901C86.0434 57.2835 85.7388 57.9421 84.9403 57.9758C84.9189 58.0541 84.8648 58.1195 84.7931 58.1589L84.7807 58.1649L84.7496 58.1943C84.7183 58.2247 84.6814 58.2624 84.6245 58.3221L84.2319 58.736C84.0894 58.8843 83.9885 58.9848 83.8517 59.1158C83.6919 59.2688 83.5375 59.4071 83.3864 59.5311C82.7748 60.0329 81.8705 60.3313 81.3981 60.3313C81.1475 60.3313 80.8942 60.2763 80.6403 60.1712C80.3691 60.4384 79.5345 60.9582 78.0141 61.8434L76.8615 62.5096C74.5862 63.8178 73.0679 64.6548 72.8781 64.6548C72.4479 64.6548 72.0322 64.5236 71.6384 64.28C71.6347 64.2824 71.631 64.2847 71.6273 64.287L71.4664 64.3848C70.9066 64.7275 70.0115 65.2975 69.1813 65.8262L69.1812 65.8262L69.1294 65.8592C69.2369 66.5839 69.4812 67.3104 69.8635 68.0396C71.2204 67.6432 72.2953 67.5094 72.6054 67.8074C72.9294 68.1187 73.2182 68.6826 73.4919 69.5095C73.5439 69.6668 73.4511 69.8342 73.2846 69.8834C73.118 69.9325 72.9408 69.8449 72.8888 69.6876C72.6521 68.9724 72.4105 68.4911 72.1821 68.2531L72.1727 68.2438L72.1645 68.2442C72.1213 68.2359 72.0565 68.2317 71.9738 68.2332C71.7918 68.2365 71.5429 68.2668 71.2457 68.3224C70.6343 68.4368 69.8615 68.6496 69.0941 68.917C67.3397 69.5282 65.9858 70.2855 65.7075 70.8594C65.6261 71.0274 65.6365 71.2732 65.7339 71.6496L65.752 71.7174C65.7666 71.7708 65.7819 71.8236 65.8018 71.8905L65.916 72.2719L65.9313 72.3271C65.9751 72.4866 65.8737 72.6495 65.7049 72.6909C65.536 72.7323 65.3635 72.6365 65.3197 72.477L65.2636 72.2841L65.1701 71.9726C65.1594 71.9358 65.1498 71.9018 65.1403 71.8672C64.9923 71.3281 64.9685 70.9503 65.133 70.611C65.412 70.0356 66.2846 69.4396 67.4998 68.8977L67.2355 68.2529L67.1702 68.0899C67.0701 67.8356 66.9536 67.4909 66.8822 67.2394C65.933 67.7226 65.2718 67.8034 64.6094 67.4627L64.5579 67.4353C64.4269 67.3636 64.3007 67.2811 64.1733 67.1805L60.4705 69.3046L60.5748 69.5165C60.7409 69.853 60.4478 70.0913 59.9984 70.2767L59.9499 70.2961C59.5636 70.4473 59.215 70.4819 59.0075 70.2668C58.1464 69.3742 57.2349 67.239 57.7252 66.7507C57.8194 66.6569 58.068 66.5173 58.5381 66.2844L58.5755 66.266C58.5851 66.2597 58.5952 66.2539 58.6057 66.2485L62.0671 64.4774C62.075 64.4733 62.0831 64.4696 62.0912 64.4662C61.8774 64.1324 61.643 63.7606 61.3839 63.3459C61.3445 63.2857 61.3299 63.2154 61.3399 63.1478C61.3463 63.1048 61.3625 63.0629 61.3886 63.0255C61.4029 63.0048 61.4201 62.9857 61.4399 62.9686C62.1515 62.3312 63.1212 61.6666 64.3376 60.951L64.4851 60.8647C65.0116 60.5581 66.0793 59.983 66.9864 59.4943L66.9864 59.4943C67.69 59.1153 68.2969 58.7884 68.4797 58.6792L68.5239 58.6515C68.59 58.6058 68.6686 58.588 68.7441 58.5956C68.684 58.078 68.6788 57.5971 68.7362 57.189C68.789 56.8136 70.1134 55.8417 72.1584 54.5396L72.4513 54.3542C74.1653 53.2758 75.6434 52.4614 76.2699 52.288C76.2531 52.0208 76.2586 51.7774 76.2886 51.5646ZM76.3391 52.8931C75.7254 53.105 74.1885 53.9667 72.5116 55.0345L72.243 55.2065C71.4884 55.6928 70.7912 56.167 70.2646 56.5534L70.1183 56.6618C69.8833 56.8377 69.6931 56.9893 69.5552 57.1108C69.4861 57.1718 69.4315 57.2239 69.3931 57.2654L69.3662 57.2954C69.3603 57.3011 69.3588 57.2989 69.361 57.2801L69.3626 57.2676C69.3619 57.2724 69.3614 57.2766 69.361 57.2801L69.3526 57.3442C69.0488 59.8623 70.9768 63.9748 72.8222 64.0568L72.8656 64.0578C72.8692 64.058 72.8734 64.0581 72.8781 64.0581L72.8656 64.0578C72.8308 64.056 72.8445 64.0467 72.8498 64.0438L72.9068 64.0161C72.9488 63.9953 72.9986 63.9699 73.056 63.9402L73.3189 63.8013C73.4194 63.7475 73.5315 63.6868 73.6541 63.62L73.9676 63.448C74.5663 63.1179 75.3133 62.6976 76.0751 62.2622L76.7997 61.8462C77.6809 61.3377 78.477 60.8689 79.0753 60.5048L79.3835 60.3157C79.5744 60.1974 79.7357 60.0951 79.8647 60.0102L79.9115 59.9793C79.9798 59.9338 80.037 59.8944 80.0823 59.8618C79.2685 59.2977 78.4671 58.2561 77.7557 56.904L77.7046 56.8059C77.019 55.4803 76.5232 54.0449 76.3391 52.8931ZM68.8313 59.1741C68.6033 59.3097 67.9308 59.6723 67.1826 60.0759C66.2959 60.554 65.3029 61.0896 64.8167 61.3727C63.6684 62.0413 62.7424 62.661 62.0549 63.2446L62.2826 63.6074C63.279 65.1862 63.8559 66.0171 64.32 66.4864C64.1659 66.1411 64.086 65.7027 64.086 65.153C64.086 65.1277 64.0893 65.1031 64.0956 65.0796C64.0649 64.9653 64.1081 64.8398 64.2149 64.7657L64.4301 64.6147C64.5592 64.5225 64.7715 64.3693 65.0129 64.1951L65.013 64.195C65.5415 63.8136 66.2091 63.3317 66.4473 63.1705C67.1966 62.6637 67.7489 62.3792 68.2517 62.2805C68.4919 62.2334 68.6785 62.3676 68.7326 62.5754L68.7415 62.6132C68.754 62.6751 68.7564 62.7359 68.7561 62.8688L68.7559 62.9109C68.7533 63.4074 68.8054 63.694 69.0281 64.0249C69.1805 64.2514 69.4043 64.4581 69.7163 64.6432C69.7489 64.6626 69.7765 64.6866 69.7987 64.7139C70.3019 64.3947 70.7733 64.0979 71.121 63.885C70.5731 63.384 70.0795 62.6587 69.6633 61.7695C69.2757 60.9412 68.9882 60.0283 68.8313 59.1741ZM85.2824 56.3656C85.1805 55.6106 84.7903 54.5579 84.215 53.4605C83.0276 51.1956 81.4549 49.4933 80.8241 49.7314C80.2143 49.9615 80.3735 51.5998 81.2505 53.5123L81.3297 53.6817C82.3342 55.7881 83.7701 57.346 84.8434 57.3799C85.2298 57.3921 85.3808 57.094 85.2824 56.3656ZM62.4176 64.9707C62.9657 65.8077 63.3662 66.3606 63.715 66.7452L60.2047 68.7589C59.8451 68.0143 59.5234 67.3213 59.2113 66.6173L62.3681 65.0021C62.3859 64.9929 62.4025 64.9824 62.4176 64.9707ZM69.2575 68.2278C68.9169 67.5624 68.6816 66.8952 68.5522 66.2265C68.0986 66.5148 67.7039 66.7644 67.4502 66.9201C67.4936 67.126 67.6552 67.6146 67.7943 67.9621L68.0536 68.5924L68.0783 68.654C68.3331 68.5524 68.5994 68.4532 68.8754 68.3571L69.0578 68.2944C69.1248 68.2717 69.1914 68.2495 69.2575 68.2278ZM69.2462 65.065C68.9226 64.8532 68.6745 64.6121 68.4947 64.345C68.2038 63.9125 68.1274 63.5432 68.1241 62.9852L68.1239 62.9353L68.0792 62.9511C67.7589 63.0685 67.3766 63.2809 66.8963 63.6013L66.8153 63.6557C66.5866 63.8104 65.936 64.2799 65.4111 64.6588L65.4108 64.659L65.4108 64.659C65.1189 64.8697 64.8659 65.0523 64.7461 65.137L64.7179 65.1567C64.7185 66.1494 64.9809 66.6049 65.4688 66.8259L65.5079 66.8429C65.6242 66.8915 65.7072 66.9159 65.9443 66.9772L65.9518 66.9793L65.9583 66.9812C66.2044 66.9031 66.4864 66.7726 66.8232 66.586L66.9487 66.5149C67.2268 66.3511 67.9734 65.8756 68.7947 65.3525L68.7947 65.3525L68.7949 65.3524L69.2462 65.065ZM58.6529 66.9028L58.7013 67.0116C59.0369 67.7631 59.3856 68.5072 59.7813 69.3188L59.9352 69.6337C59.8848 69.6657 59.8184 69.6997 59.7455 69.7298C59.6408 69.773 59.5344 69.8033 59.4545 69.8135L59.429 69.8159L59.3905 69.7723C59.0914 69.4246 58.7443 68.8337 58.4935 68.2461C58.3599 67.9332 58.2647 67.6461 58.2218 67.4256C58.2043 67.3357 58.1963 67.2603 58.197 67.203L58.1988 67.1652C58.1994 67.1561 58.1994 67.1513 58.1971 67.1506L58.2065 67.1446C58.2599 67.1098 58.3964 67.0344 58.5991 66.9304L58.6529 66.9028ZM63.0111 66.2454C62.889 66.1277 62.6889 66.1259 62.5644 66.2413C62.3453 66.4443 62.0382 66.6333 61.5019 66.9145L60.9562 67.2006C60.812 67.2781 60.6939 67.345 60.587 67.4105C60.4977 67.4653 60.4178 67.5181 60.3461 67.5705C60.208 67.6712 60.1826 67.8586 60.2892 67.989C60.3959 68.1194 60.5944 68.1435 60.7324 68.0427C60.7894 68.0011 60.8553 67.9575 60.9309 67.9112C61.0007 67.8684 61.0774 67.8241 61.1662 67.7751L61.3401 67.6811L61.8945 67.391C62.4272 67.1086 62.7481 66.907 63.0068 66.6673C63.1314 66.5519 63.1333 66.363 63.0111 66.2454Z" fill="#00160A" />
  <path d="M55.944 96.5471C57.5239 104.866 63.4455 111.121 71.0017 112.595C72.3888 112.866 74.7905 112.901 77.2776 112.597C80.482 112.206 83.6005 111.307 86.3432 109.851C93.8774 106.027 99.5944 98.2218 100.335 91.3893C100.986 85.3877 98.5586 79.8433 94.1638 75.888C94.1638 75.888 80.3581 82.2922 73.581 85.9323C67.6838 89.0999 55.944 96.5471 55.944 96.5471Z" fill="white" />
  <path d="M88.0958 71.7382C85.2639 70.4187 81.716 69.3763 78.2369 69.2083C65.4773 68.5922 55.442 78.2191 55.3374 90.6362C55.3374 90.6362 69.5785 82.0691 76.9771 77.9357C80.6579 75.8793 88.0958 71.7382 88.0958 71.7382Z" fill="white" />
  <path fill-rule="evenodd" clip-rule="evenodd" d="M114.341 65.4099C114.298 67.4845 111.973 70.9375 108.237 74.8449C105.53 77.6754 102.381 80.4115 99.7397 82.2552L99.5753 82.3688L99.6844 82.827C100.327 85.4852 101.165 88.3749 100.848 91.2889C100.08 98.3618 94.2218 106.341 86.4811 110.262C83.6579 111.758 80.4488 112.68 77.157 113.082L76.8432 113.118C74.3887 113.391 72.04 113.346 70.6046 113.067C65.0334 111.982 60.3166 108.304 57.4649 102.98C57.4553 102.962 57.4478 102.944 57.4423 102.925C57.0669 103.128 56.5618 103.354 56.3311 103.428L55.6991 103.629C48.8881 105.793 42.1358 107.603 39.3774 106.473C38.3273 106.043 37.9684 105.216 38.4075 104.105C38.8343 103.025 40.0177 101.633 42.003 99.9016L42.1121 99.8068C43.9934 98.1781 48.1712 95.2019 54.6456 90.8782L54.6472 90.7988C54.9631 77.9872 65.5001 68.2206 78.7447 69.0179C82.7958 69.2617 86.0221 70.6214 87.6334 71.4562L88.342 71.0971C94.9884 67.7407 100.321 65.3814 104.39 63.9693C111.082 61.647 114.391 62.7328 114.341 65.4099ZM104.608 65.3454C97.1258 67.9422 85.301 73.7825 68.8372 83.177L68.3368 83.4627C55.5169 90.7922 47.0279 96.3606 42.5391 100.247L42.3179 100.44L42.1081 100.625C38.7385 103.632 38.1413 105.317 39.6288 105.926C42.1752 106.969 49.0135 105.211 55.7103 103.136L56.3311 102.943C56.9283 102.756 57.3244 102.649 57.5695 102.599C57.5802 102.592 57.5919 102.585 57.6042 102.579C57.688 102.539 57.7817 102.538 57.8627 102.568C57.8802 102.571 57.8917 102.576 57.8977 102.583C57.9522 102.611 57.9986 102.655 58.0287 102.711C60.7971 107.879 65.3588 111.028 70.7322 112.074C72.1271 112.346 74.4804 112.385 76.9291 112.099L77.0761 112.082C80.2921 111.69 83.4243 111.197 86.1772 109.739C93.7415 105.907 99.4728 98.1001 100.22 91.228C100.539 88.291 100.132 85.4081 99.0485 82.7248C98.9591 82.7839 98.8704 82.8418 98.7825 82.8984C98.6162 83.0055 98.6783 82.8321 98.9686 82.3781C98.984 82.3189 99.0187 82.2649 99.0684 82.2244L99.1577 82.0906C99.1891 82.044 99.222 81.9955 99.2565 81.945L99.631 81.6467C103.16 78.8275 105.873 76.4269 107.768 74.445L107.984 74.2175C111.491 70.5114 113.671 67.2377 113.707 65.3989C113.746 63.3817 110.928 63.152 104.608 65.3454ZM72.8822 103.081C73.73 105.528 72.4475 107.102 70.19 107.184C68.1042 107.259 66.2047 106.017 66.3015 104.253C66.3852 102.729 67.4905 101.099 68.8512 100.501C70.4969 99.7767 72.0415 100.655 72.8822 103.081ZM69.1847 101.177C68.0957 101.656 67.1592 103.037 67.0903 104.292C67.0217 105.542 68.485 106.499 70.1599 106.438C71.9111 106.375 72.81 105.272 72.1315 103.313C71.4251 101.274 70.351 100.664 69.1847 101.177ZM90.1176 98.0952C91.1993 100.026 90.9161 101.922 89.2529 102.772L89.2063 102.795L89.1822 102.818C86.9518 104.904 84.1656 105.157 82.3486 103.645L82.2863 103.592C80.1934 101.781 80.692 98.6703 84.0224 96.2315C86.1657 94.6621 88.7837 95.7145 90.1176 98.0952ZM84.4372 96.7369C81.4138 98.9508 80.9888 101.602 82.7437 103.12C84.0023 104.209 85.8619 104.27 87.5988 103.213L87.6327 103.191L87.6201 103.189C87.4998 103.159 87.4033 103.067 87.3759 102.948L87.3706 102.917C87.3486 102.742 87.4812 102.583 87.6669 102.562C88.0915 102.515 88.46 102.418 88.7726 102.279L88.8153 102.26L88.8671 102.209C89.0708 102.007 89.2698 101.786 89.4627 101.548L89.5268 101.468C89.5991 101.376 89.7134 101.332 89.8257 101.34L89.8344 101.341L89.839 101.333C90.2445 100.576 90.1484 99.5503 89.5548 98.4585L89.5193 98.3943C88.3593 96.3241 86.1911 95.4525 84.4372 96.7369ZM104.57 73.7918C104.397 74.3756 103.867 75.1768 103.055 76.1255C101.64 77.7793 99.5147 79.7043 97.6567 81.0206L98.0688 80.5926C98.0648 80.5891 98.0613 80.5846 98.0583 80.5794L97.916 80.3326C96.9863 78.7298 95.9504 77.1487 94.2765 75.8598C89.9432 77.5472 84.9747 79.8537 80.4481 82.2653L78.9643 83.0575C68.0379 88.9031 62.2893 92.4027 56.142 96.7049C56.374 97.6918 56.6663 98.6549 57.0165 99.5879C57.0714 99.7343 56.3535 100.282 56.2221 100.215C54.9958 100.991 53.0755 101.554 51.9822 101.584C50.9167 101.612 50.3011 101.205 50.6182 100.393C50.8835 99.7131 51.8828 98.7441 53.6812 97.4454L53.8863 97.2983L54.3008 97.0042C61.0691 92.2185 67.7697 88.3349 80.1376 81.7456L80.6552 81.4712C89.1379 76.9993 98.9611 72.9704 103.46 72.5986C104.385 72.5222 104.805 73.0056 104.57 73.7918ZM55.3189 97.2839L53.9008 98.2945C52.6357 99.2005 51.7237 99.8705 51.231 100.3L51.1949 100.332C50.5935 100.865 51.2742 101.006 51.9643 100.987C53.0096 100.959 54.6109 100.21 55.9664 99.5291C55.7158 98.7962 55.4997 98.0469 55.3189 97.2839ZM77.5007 94.0439C77.6698 94.0845 77.7721 94.2469 77.7292 94.4066C77.6862 94.5663 77.5143 94.6629 77.3452 94.6224C76.4956 94.4186 75.9937 94.4968 75.8309 94.7129C75.7229 94.8563 75.7827 95.1007 75.9847 95.2568C76.1426 95.3787 76.3527 95.437 76.4973 95.4073C76.6231 95.3814 76.6935 95.2899 76.6935 95.0607C76.6935 94.8959 76.835 94.7623 77.0095 94.7623C77.184 94.7623 77.3254 94.8959 77.3254 95.0607C77.3254 95.559 77.0615 95.9021 76.6317 95.9904C76.2863 96.0614 75.8838 95.9498 75.5846 95.7187C75.143 95.3775 74.9987 94.7882 75.3161 94.3669C75.664 93.9052 76.4265 93.7864 77.5007 94.0439ZM63.6223 92.9485C64.1096 93.0864 64.3194 93.4398 64.3856 93.9699L64.3922 94.0273L64.4002 94.1145C64.4013 94.1291 64.4024 94.144 64.4035 94.16L64.42 94.4628L64.425 94.5311C64.4276 94.5611 64.4304 94.5857 64.4337 94.6074L64.4421 94.6531L64.4472 94.6731L64.456 94.6805C64.5536 94.7706 64.5795 94.9121 64.5164 95.0288L64.5003 95.0553C64.4057 95.1938 64.2101 95.2336 64.0635 95.1443C63.8617 95.0214 63.8159 94.8948 63.7914 94.5319L63.7714 94.1767C63.769 94.1446 63.7665 94.1168 63.7633 94.0854C63.7273 93.7378 63.6376 93.5758 63.441 93.5202C62.8891 93.364 62.5724 93.5235 62.4721 93.8718C62.3827 94.1823 62.512 94.5086 62.7385 94.5992L62.7958 94.6193C62.9438 94.679 63.0222 94.8364 62.9723 94.9842C62.9193 95.1412 62.7416 95.2279 62.5753 95.1778C61.9737 94.9967 61.6878 94.3216 61.8623 93.7153C62.0572 93.0385 62.7348 92.6974 63.6223 92.9485ZM86.4165 88.3795C87.2914 89.5412 87.1287 91.0192 85.725 91.6881C85.5692 91.7623 85.3792 91.7032 85.3006 91.5561C85.222 91.409 85.2846 91.2295 85.4404 91.1553C86.4567 90.671 86.5727 89.6165 85.9016 88.7254C85.2495 87.8596 84.3419 87.7644 83.7182 88.6999C83.057 89.6916 83.1051 90.2738 83.5811 90.5359C83.959 90.7441 84.5676 90.7004 84.7349 90.5302L84.7511 90.5115C84.8523 90.3772 85.0496 90.3459 85.1917 90.4415C85.3339 90.537 85.3671 90.7233 85.2659 90.8576C84.9147 91.3236 83.9124 91.4092 83.2628 91.0515C82.4313 90.5936 82.3517 89.6295 83.1835 88.3819C84.0742 87.046 85.527 87.1984 86.4165 88.3795ZM73.3174 86.6685C73.4816 86.6685 73.6166 86.7868 73.6319 86.9382L73.6333 86.9669C73.6333 87.0194 73.685 87.0781 73.8704 87.2066L74.0458 87.3254C74.2371 87.4572 74.3293 87.5389 74.4165 87.669C74.6157 87.9665 74.7286 88.2694 74.7286 88.6255C74.7286 89.5375 73.278 90.7778 71.6947 91.3297C69.7966 91.9913 68.2416 91.5007 67.8184 89.6612C67.7813 89.5002 67.8895 89.3413 68.06 89.3063C68.2306 89.2713 68.3988 89.3735 68.4359 89.5345C68.7643 90.9621 69.8981 91.3198 71.4759 90.7699C72.8383 90.295 74.0967 89.2189 74.0967 88.6255C74.0967 88.396 74.0227 88.1975 73.8824 87.988L73.8634 87.9628C73.8312 87.9245 73.7809 87.8829 73.6904 87.8194L73.482 87.6776C73.1356 87.4364 73.0014 87.2737 73.0014 86.9669C73.0014 86.8021 73.1429 86.6685 73.3174 86.6685ZM74.8005 70.1298L74.6009 70.151C63.8199 71.3755 55.7321 79.5194 55.2909 90.4479L56.4478 89.6792C59.768 87.478 63.622 84.9637 68.0096 82.1362L68.8646 81.6482C71.417 80.1938 73.8574 78.8252 76.1871 77.5412C76.1446 77.4708 76.1327 77.3843 76.1615 77.3013C76.3244 76.8317 76.4749 76.5162 76.7508 76.2001C77.614 75.2111 78.7967 74.728 79.6345 75.349C79.7171 75.4102 79.7586 75.5023 79.7553 75.5943L80.4996 75.1932C82.8434 73.9331 85.0612 72.7693 87.1543 71.7002L86.3367 71.4805C85.1243 71.1582 83.616 70.776 82.1135 70.4817C82.1272 71.426 81.3788 72.18 80.1355 72.6986C79.0785 73.1395 77.7012 73.3767 76.7219 73.3216C74.8898 73.2184 73.8585 71.7008 74.8005 70.1298ZM93.7124 83.0882C94.4855 85.0832 93.8476 86.8973 91.9172 86.8855C89.1666 86.8685 86.4806 84.6003 86.9148 82.5683C87.1086 81.6618 87.8301 80.8599 89.0848 80.4597C91.0887 79.8206 92.9253 81.0574 93.7124 83.0882ZM89.287 81.0251C88.25 81.3559 87.6842 81.9847 87.5342 82.6864C87.1896 84.2991 89.5281 86.2739 91.9213 86.2887C93.2921 86.2971 93.7635 84.9564 93.119 83.2933C92.437 81.5335 90.9123 80.5068 89.287 81.0251ZM66.0551 73.9613L66.0776 73.992L66.2297 74.2204C66.3042 74.3364 66.3709 74.4501 66.4344 74.5727C67.1341 75.924 67.1161 77.6953 65.9319 80.1541C65.3954 81.2679 64.0288 82.7649 62.8354 83.6582C61.3115 84.7989 60.1738 85.058 58.8157 84.9171L58.4128 84.8724L58.3636 84.8682C58.3367 84.8663 58.3195 84.8662 58.3005 84.8668L58.2729 84.8679C58.2519 84.8688 58.2446 84.8678 58.2434 84.8652L58.2433 84.8632L58.2332 84.8787C58.1416 85.0027 57.9636 85.0436 57.8206 84.9685C57.6681 84.8884 57.6133 84.7067 57.6981 84.5627C57.8117 84.3698 58.0014 84.2826 58.243 84.2718C58.307 84.2689 58.3746 84.2709 58.4552 84.2773L58.5494 84.2859L58.81 84.3158C60.047 84.4575 61.0312 84.2472 62.4429 83.1905C63.5639 82.3515 64.8668 80.9243 65.3567 79.907C66.4649 77.606 66.481 76.0211 65.8668 74.8349C65.8259 74.7559 65.7832 74.6809 65.737 74.6056L65.6708 74.5012L65.5383 74.3033C65.4456 74.1637 65.4903 73.9796 65.6382 73.892C65.7767 73.8099 65.9568 73.8419 66.0551 73.9613ZM103.515 73.1931C101.496 73.36 98.3294 74.3023 94.6794 75.704L94.786 75.7931C95.8018 76.6539 97.8514 78.695 98.4929 80.1509L99.1319 79.4817C100.709 77.8254 101.853 76.5816 102.564 75.7504L102.708 75.5799C103.388 74.7652 103.827 74.0844 103.962 73.6302L103.981 73.5612C104.066 73.2333 103.968 73.1557 103.515 73.1931ZM73.2633 74.1625C74.0496 74.5215 74.3688 75.3208 73.8514 76.0456C73.7539 76.1822 73.5575 76.2183 73.4129 76.1262C73.2682 76.0341 73.23 75.8486 73.3275 75.712C73.6121 75.3133 73.4515 74.9113 72.9882 74.6997C72.5004 74.477 71.9658 74.6051 71.6899 75.0914C71.4357 75.5395 71.4183 76.1462 71.6212 76.5435C71.7994 76.8923 72.0588 76.9592 72.4544 76.6779C72.5939 76.5787 72.7919 76.6051 72.8969 76.7368C73.0018 76.8685 72.9739 77.0555 72.8345 77.1546C72.1134 77.6672 71.3997 77.4833 71.0521 76.8028C70.7608 76.2324 70.784 75.4247 71.133 74.8096C71.5781 74.0249 72.4856 73.8073 73.2633 74.1625ZM77.2384 76.5797C77.0911 76.7485 76.9858 76.9266 76.8882 77.1552C77.7024 76.7085 78.5027 76.272 79.2893 75.846L79.2664 75.8334L79.2445 75.8185C78.762 75.4609 77.9116 75.8083 77.2384 76.5797ZM75.891 70.0385L75.6147 70.0568L75.5962 70.0789C74.504 71.3824 74.9247 72.4405 76.4162 72.5907C77.4874 72.6986 80.3311 71.948 80.6647 71.6846C80.9896 71.428 81.4005 70.8379 81.4638 70.3599C80.4987 70.1885 79.5546 70.0625 78.7124 70.0219C77.8519 69.9803 77.0032 69.9813 76.1687 70.0231L75.891 70.0385Z" fill="#00160A" />
  <path d="M104.416 65.4194C111.108 63.0971 110.954 63.7861 104.634 65.9796C97.1521 68.5763 68.9085 84.8475 68.9085 84.8475C56.0886 92.177 55.1296 91.0456 67.5555 83.9133L68.3215 83.4745C68.4657 83.3921 82.6129 74.9594 92.7218 70.4479C93.8594 69.9402 103.655 65.6838 104.416 65.4194Z" fill="white" />
  <path fill-rule="evenodd" clip-rule="evenodd" d="M115.97 53.8581C113.897 53.7579 112.278 55.2797 112.261 57.2708C112.247 58.939 113.261 60.3554 114.713 60.6381C115.095 60.7126 116.199 60.7126 117.156 60.2056L117.235 60.1643C118.442 59.519 119.262 58.2913 119.372 57.2814C119.567 55.4909 118.044 53.9582 115.97 53.8581ZM112.713 57.2742L112.713 57.2357C112.726 57.2317 112.739 57.2267 112.751 57.2204C114.377 56.3933 115.381 55.763 115.781 55.308C116.046 55.0075 116.175 54.6686 116.164 54.3003C116.437 54.3288 116.698 54.3854 116.941 54.4664C116.94 54.4774 116.939 54.4887 116.94 54.5002C116.96 55.0301 116.81 55.4538 116.492 55.7836C116.127 56.1627 115.684 56.5234 115.181 56.8636C114.642 57.2273 114.065 57.5485 113.487 57.8234C113.352 57.8876 113.224 57.946 113.103 57.9988L112.929 58.0735L112.859 58.1023L112.807 58.1229C112.743 57.8541 112.71 57.5693 112.713 57.2742ZM112.934 58.535C113.077 58.9093 113.284 59.241 113.54 59.5112L113.675 59.4379C115.797 58.2779 117.114 57.3667 117.612 56.7239C118.116 56.0739 118.296 55.5748 118.183 55.2355C118.18 55.2275 118.178 55.2195 118.177 55.2115C117.954 54.9913 117.69 54.8021 117.392 54.6527C117.38 55.216 117.191 55.6918 116.826 56.0706C116.437 56.4737 115.971 56.8537 115.443 57.2103C114.884 57.5879 114.287 57.9199 113.69 58.2041C113.515 58.287 113.351 58.3609 113.201 58.4255L113.025 58.4991L112.934 58.535ZM114.624 60.1777C114.357 60.1025 114.109 59.979 113.885 59.8155C116.069 58.6226 117.428 57.6826 117.976 56.9757C118.316 56.5372 118.534 56.1429 118.622 55.791C118.732 55.9847 118.815 56.1913 118.868 56.4071C118.857 56.4291 118.849 56.4533 118.846 56.4791C118.791 56.9774 118.519 57.472 118.022 57.9645C117.545 58.4372 116.515 59.1193 114.941 60.0011L114.624 60.1777ZM115.387 60.2467C115.871 60.2176 116.464 60.0835 116.942 59.8299C117.833 59.3789 118.548 58.5296 118.818 57.7111C118.687 57.8959 118.531 58.0785 118.349 58.2587C117.859 58.7441 116.874 59.404 115.387 60.2467ZM112.844 56.6875L112.764 56.7287C113.02 55.3202 114.211 54.3096 115.712 54.2803C115.728 54.5571 115.637 54.8054 115.434 55.0354C115.107 55.4072 114.238 55.9638 112.844 56.6875Z" fill="#00160A" />
  <path fill-rule="evenodd" clip-rule="evenodd" d="M132.262 49.7739C132.304 49.7784 132.334 49.8144 132.329 49.8539C132.329 49.9121 132.289 49.9435 132.236 49.9639C132.188 49.9821 132.111 49.9752 132.067 49.9809C131.578 50.0165 131.194 49.6769 131.025 49.2391C130.862 48.8186 130.906 48.3158 131.2 48.0056C131.234 47.9691 131.293 47.9654 131.332 47.9974C131.37 48.0295 131.59 48.0852 131.556 48.1217C131.313 48.3896 131.149 48.5521 131.378 49.188C131.607 49.8239 132.231 49.7705 132.262 49.7739Z" fill="#E7EAEE" />
  <path fill-rule="evenodd" clip-rule="evenodd" d="M54.4472 54.3265C54.3187 54.2432 54.1431 54.274 54.0549 54.3953C53.9668 54.5166 53.9994 54.6825 54.1278 54.7657C54.2689 54.8572 54.3936 54.9417 54.5036 55.0202C54.3851 55.1093 54.2667 55.2113 54.1437 55.3275L53.8942 55.5668C53.7846 55.6713 53.7854 55.8399 53.896 55.9435C54.0067 56.0471 54.1853 56.0464 54.2949 55.9419L54.5943 55.6561C54.7161 55.5441 54.8302 55.4504 54.945 55.3725C55.2001 55.6113 55.2778 55.7864 55.282 55.9605L55.282 56.0052L55.2834 56.0324C55.2979 56.1667 55.418 56.2716 55.5641 56.2716C55.7198 56.2716 55.8461 56.1523 55.8461 56.0052L55.8461 55.9528C55.8408 55.6814 55.7394 55.4232 55.4664 55.1282C55.6468 55.0775 55.85 55.0491 56.0964 55.0369C56.252 55.0293 56.3715 54.9039 56.3634 54.757C56.3553 54.6101 56.2225 54.4972 56.067 54.5048C55.6391 54.5259 55.3066 54.5933 55.0104 54.7213C54.8868 54.6258 54.7467 54.5256 54.5884 54.4195L54.4472 54.3265Z" fill="#00160A" />
  <path fill-rule="evenodd" clip-rule="evenodd" d="M96.7156 112.705L96.9113 112.706C98.005 112.715 98.8597 112.808 100.469 113.053C100.654 113.081 100.779 113.245 100.75 113.419C100.72 113.593 100.547 113.712 100.362 113.684L99.8344 113.605C98.5025 113.412 97.7351 113.344 96.7156 113.344C93.1779 113.344 90.9196 115.436 91.3017 118.644C91.3226 118.819 91.189 118.977 91.0032 118.997C90.8174 119.017 90.6499 118.891 90.629 118.715C90.1992 115.107 92.7934 112.705 96.7156 112.705ZM99.4554 113.996L99.4224 113.968C99.3906 113.943 99.3415 113.946 99.3146 113.976C99.2867 114.007 99.291 114.052 99.3228 114.078L99.3569 114.106C99.3887 114.131 99.4368 114.128 99.4647 114.098C99.4915 114.067 99.4883 114.022 99.4554 113.996ZM93.3212 114.664C93.1998 114.572 93.0222 114.591 92.9246 114.705C92.5306 115.168 92.2434 115.62 92.0642 116.06C91.8899 116.489 91.8305 117.208 91.8758 118.238L91.8866 118.455C91.8948 118.602 92.0276 118.715 92.1832 118.707C92.3387 118.699 92.4582 118.574 92.45 118.427C92.3902 117.352 92.4412 116.619 92.5908 116.251C92.7476 115.866 93.005 115.461 93.3644 115.039C93.462 114.924 93.4427 114.757 93.3212 114.664ZM96.3998 113.783C96.5382 113.715 96.7084 113.766 96.7801 113.897C96.8517 114.028 96.7977 114.188 96.6594 114.256C96.0864 114.536 95.6489 115.006 95.3438 115.676C95.0165 116.395 94.7487 117.037 94.5404 117.601C94.4891 117.74 94.3282 117.813 94.1811 117.765C94.034 117.716 93.9564 117.564 94.0077 117.425C94.2207 116.849 94.4933 116.196 94.8255 115.466C95.18 114.687 95.7058 114.123 96.3998 113.783ZM98.0398 113.769C97.9372 113.658 97.7589 113.647 97.6418 113.744C97.1709 114.134 96.8091 114.488 96.5559 114.81C96.3045 115.129 96.0102 115.606 95.6695 116.244C95.5993 116.376 95.6553 116.536 95.7944 116.602C95.9335 116.668 96.1031 116.615 96.1733 116.484C96.5006 115.871 96.7801 115.418 97.0085 115.128C97.2351 114.84 97.5703 114.512 98.0135 114.145C98.1307 114.048 98.1425 113.88 98.0398 113.769ZM97.0099 116.778C96.8927 116.875 96.7145 116.864 96.6118 116.753C96.5091 116.642 96.5209 116.474 96.6381 116.377C97.0813 116.01 97.4165 115.682 97.6431 115.394C97.8715 115.104 98.151 114.651 98.4784 114.038C98.5485 113.906 98.7181 113.854 98.8572 113.92C98.9964 113.986 99.0523 114.146 98.9822 114.278C98.6415 114.916 98.3471 115.393 98.0957 115.712C97.8425 116.034 97.4808 116.388 97.0099 116.778ZM94.8741 114C94.7459 113.917 94.5702 113.947 94.4817 114.068C93.851 114.931 93.4483 115.575 93.2703 116.013C93.0916 116.452 92.9681 117.044 92.8965 117.793C92.8824 117.94 92.9968 118.069 93.152 118.082C93.3072 118.096 93.4443 117.988 93.4583 117.841C93.5257 117.137 93.6397 116.591 93.7969 116.204C93.9435 115.844 94.2852 115.288 94.8193 114.545L94.9459 114.371C95.0345 114.25 95.0023 114.084 94.8741 114Z" fill="#00160A" />
  <path fill-rule="evenodd" clip-rule="evenodd" d="M89.519 112.429L89.7134 112.837L90.1565 112.957C90.1804 112.964 90.1943 112.987 90.1874 113.01C90.1853 113.017 90.1813 113.023 90.1759 113.028L89.8392 113.345L89.8581 113.8C89.859 113.824 89.8396 113.844 89.8147 113.845C89.8063 113.845 89.798 113.843 89.7906 113.839L89.4095 113.634C89.3976 113.628 89.3832 113.627 89.3705 113.632L88.9628 113.785C88.9397 113.793 88.9134 113.783 88.9042 113.761C88.9011 113.753 88.9002 113.745 88.9017 113.737L88.9876 113.289L88.7008 112.931C88.6858 112.912 88.6897 112.885 88.7095 112.871C88.7157 112.867 88.7229 112.864 88.7305 112.863L89.187 112.802L89.4396 112.424C89.4529 112.404 89.4808 112.398 89.5019 112.411C89.5094 112.415 89.5153 112.421 89.519 112.429Z" fill="#00160A" />
  <path fill-rule="evenodd" clip-rule="evenodd" d="M105.216 55.312C105.32 55.399 105.449 55.5558 105.564 55.7255L105.711 55.6637L105.885 55.5933C105.92 55.5782 105.943 55.5664 105.949 55.5568C105.969 55.5215 106.016 55.5081 106.054 55.5268C106.09 55.5455 106.105 55.5892 106.085 55.6244C106.071 55.6579 105.973 55.7628 105.792 55.8655C105.759 55.8841 105.723 55.9014 105.684 55.9183C105.751 56.0366 105.803 56.1509 105.828 56.2426C105.865 56.3777 105.835 56.4735 105.786 56.5071C105.738 56.5404 105.617 56.5466 105.434 56.4025C105.4 56.3781 105.394 56.3327 105.42 56.3011C105.446 56.2696 105.494 56.2638 105.527 56.2881C105.562 56.3125 105.598 56.3263 105.626 56.3363L105.612 56.2845C105.607 56.2661 105.6 56.2468 105.591 56.228C105.558 56.1599 105.516 56.0822 105.469 56.0024C105.325 56.0537 105.162 56.1002 104.985 56.1226C104.899 56.1335 104.811 56.1356 104.72 56.1349C104.667 56.1382 104.622 56.1006 104.618 56.051C104.615 56.0015 104.655 55.9586 104.707 55.9553C104.92 55.9359 105.116 55.8852 105.29 55.8282L105.347 55.8089C105.253 55.6703 105.152 55.5444 105.066 55.4734C105.019 55.4344 105.015 55.3665 105.056 55.322C105.098 55.2774 105.169 55.2729 105.216 55.312Z" fill="#00160A" />
  <path fill-rule="evenodd" clip-rule="evenodd" d="M43.0966 91.3747C42.8031 91.392 42.3377 91.4617 41.9577 91.604C41.6326 91.7258 41.6464 95.0687 42.7607 95.3389C43.8689 95.6937 45.0771 95.233 44.9252 93.4436C44.9224 93.4062 44.8901 93.3043 44.8532 93.1876C44.799 93.0166 44.7347 92.8137 44.7382 92.7344C44.752 92.4536 44.6734 92.2165 44.468 92.0671C44.2455 91.6215 43.8119 91.3333 43.0966 91.3747ZM42.95 94.5255C42.4046 94.1367 42.4162 92.3313 43.0364 92.2128C43.4238 92.4968 43.778 92.9061 43.9002 93.693C43.7689 94.1256 43.489 94.3753 43.2442 94.5935C43.2181 94.6169 43.1923 94.6399 43.1671 94.6627C43.0968 94.6245 43.0244 94.578 42.95 94.5255Z" fill="white" />
  <path fill-rule="evenodd" clip-rule="evenodd" d="M42.2842 93.4697C42.2335 93.1883 42.266 92.8736 42.4133 92.5381C42.4801 92.3862 42.6569 92.2627 42.8784 92.1801C43.1373 92.0837 43.4543 92.0365 43.6543 92.0247C44.1415 91.9965 44.4368 92.1914 44.5882 92.4929C44.7281 92.594 44.7816 92.7544 44.7721 92.9444C44.768 93.0347 44.8946 93.3619 44.8992 93.4243C45.0021 94.6352 44.179 94.9473 43.4242 94.7075C43.1384 94.845 42.8623 94.867 42.6538 94.7193C42.4668 94.5876 42.3225 94.3104 42.2876 93.8224C42.2784 93.6964 42.2772 93.5789 42.2842 93.4697ZM43.6182 92.6775C43.1874 92.7567 43.1743 93.9419 43.5518 94.1959C43.6033 94.2301 43.6535 94.2605 43.7022 94.2854C43.8835 94.1299 44.0187 94.004 44.0946 93.7457C44.1705 93.4875 43.8864 92.8631 43.6182 92.6775Z" fill="#FFB61D" />
  <path fill-rule="evenodd" clip-rule="evenodd" d="M71.9059 123.035C71.7775 122.952 71.6019 122.983 71.5137 123.104C71.4255 123.226 71.4581 123.391 71.5866 123.475C71.7277 123.566 71.8523 123.651 71.9624 123.729C71.8439 123.818 71.7255 123.92 71.6025 124.036L71.353 124.276C71.2433 124.38 71.2441 124.549 71.3547 124.652C71.4654 124.756 71.644 124.755 71.7537 124.651L72.053 124.365C72.1748 124.253 72.289 124.159 72.4038 124.081C72.6589 124.32 72.7365 124.495 72.7407 124.669L72.7407 124.714L72.7422 124.741C72.7566 124.876 72.8767 124.98 73.0228 124.98C73.1786 124.98 73.3049 124.861 73.3049 124.714L73.3048 124.662C73.2996 124.39 73.1982 124.132 72.9251 123.837C73.1055 123.786 73.3087 123.758 73.5551 123.746C73.7107 123.738 73.8302 123.613 73.8221 123.466C73.814 123.319 73.6813 123.206 73.5257 123.214C73.0979 123.235 72.7654 123.302 72.4692 123.43C72.3455 123.335 72.2054 123.235 72.0471 123.128L71.9059 123.035Z" fill="#00160A" />
  <path fill-rule="evenodd" clip-rule="evenodd" d="M71.9059 123.035C71.7775 122.952 71.6019 122.983 71.5137 123.104C71.4255 123.226 71.4581 123.391 71.5866 123.475C71.7277 123.566 71.8523 123.651 71.9624 123.729C71.8439 123.818 71.7255 123.92 71.6025 124.036L71.353 124.276C71.2433 124.38 71.2441 124.549 71.3547 124.652C71.4654 124.756 71.644 124.755 71.7537 124.651L72.053 124.365C72.1748 124.253 72.289 124.159 72.4038 124.081C72.6589 124.32 72.7365 124.495 72.7407 124.669L72.7407 124.714L72.7422 124.741C72.7566 124.876 72.8767 124.98 73.0228 124.98C73.1786 124.98 73.3049 124.861 73.3049 124.714L73.3048 124.662C73.2996 124.39 73.1982 124.132 72.9251 123.837C73.1055 123.786 73.3087 123.758 73.5551 123.746C73.7107 123.738 73.8302 123.613 73.8221 123.466C73.814 123.319 73.6813 123.206 73.5257 123.214C73.0979 123.235 72.7654 123.302 72.4692 123.43C72.3455 123.335 72.2054 123.235 72.0471 123.128L71.9059 123.035Z" fill="#00160A" />
  <path fill-rule="evenodd" clip-rule="evenodd" d="M81.5468 115.737L81.7412 116.145L82.1843 116.265C82.2083 116.271 82.2221 116.295 82.2152 116.317C82.2131 116.324 82.2092 116.331 82.2037 116.336L81.867 116.652L81.8859 117.108C81.8869 117.131 81.8675 117.151 81.8426 117.152C81.8341 117.153 81.8258 117.151 81.8185 117.147L81.4373 116.942C81.4254 116.935 81.411 116.934 81.3983 116.939L80.9907 117.092C80.9675 117.101 80.9413 117.09 80.932 117.068C80.9289 117.061 80.9281 117.053 80.9296 117.045L81.0154 116.596L80.7286 116.238C80.7136 116.22 80.7175 116.193 80.7374 116.179C80.7435 116.174 80.7507 116.171 80.7583 116.17L81.2148 116.11L81.4675 115.731C81.4808 115.711 81.5086 115.705 81.5297 115.718C81.5372 115.722 81.5432 115.729 81.5468 115.737Z" fill="#00160A" />
  <path fill-rule="evenodd" clip-rule="evenodd" d="M57.0913 112.933L57.4217 113.254L57.8817 113.224C57.9065 113.222 57.9281 113.24 57.9298 113.263C57.9303 113.27 57.9289 113.278 57.9256 113.284L57.7239 113.69L57.9066 114.112C57.916 114.134 57.905 114.159 57.8819 114.168C57.8741 114.171 57.8656 114.172 57.8573 114.171L57.4248 114.101C57.4113 114.099 57.3975 114.103 57.3873 114.111L57.0596 114.387C57.041 114.402 57.0124 114.401 56.9959 114.383C56.9903 114.377 56.9865 114.37 56.9851 114.362L56.9033 113.913L56.5043 113.669C56.4833 113.656 56.4773 113.63 56.4908 113.61C56.495 113.604 56.5008 113.599 56.5076 113.596L56.9146 113.391L57.0149 112.954C57.0202 112.931 57.0442 112.916 57.0686 112.921C57.0772 112.923 57.0851 112.927 57.0913 112.933Z" fill="#00160A" />
  <path fill-rule="evenodd" clip-rule="evenodd" d="M51.9317 83.7173L52.1261 84.1253L52.5692 84.2454C52.5932 84.2519 52.607 84.2755 52.6001 84.2982C52.598 84.3051 52.594 84.3115 52.5886 84.3166L52.2519 84.6332L52.2708 85.0887C52.2718 85.1122 52.2524 85.132 52.2274 85.133C52.219 85.1333 52.2107 85.1314 52.2033 85.1274L51.8222 84.9224C51.8103 84.916 51.7959 84.915 51.7832 84.9198L51.3755 85.0727C51.3524 85.0814 51.3261 85.0707 51.3169 85.0489C51.3138 85.0415 51.313 85.0334 51.3145 85.0256L51.4003 84.5769L51.1135 84.2192C51.0985 84.2004 51.1024 84.1737 51.1223 84.1595C51.1284 84.1551 51.1356 84.1523 51.1432 84.1513L51.5997 84.0906L51.8523 83.7121C51.8656 83.6922 51.8935 83.6862 51.9146 83.6988C51.9221 83.7032 51.928 83.7097 51.9317 83.7173Z" fill="#00160A" />
  <path fill-rule="evenodd" clip-rule="evenodd" d="M51.8866 84.1237L51.9691 84.2969L52.1574 84.348C52.1675 84.3507 52.1734 84.3608 52.1705 84.3704C52.1696 84.3733 52.1679 84.376 52.1656 84.3782L52.0226 84.5127L52.0306 84.7062C52.031 84.7162 52.0228 84.7246 52.0122 84.725C52.0086 84.7251 52.0051 84.7243 52.002 84.7226L51.8401 84.6355C51.835 84.6328 51.8289 84.6324 51.8235 84.6344L51.6503 84.6994C51.6405 84.7031 51.6294 84.6985 51.6254 84.6892C51.6241 84.6861 51.6238 84.6827 51.6244 84.6793L51.6608 84.4888L51.539 84.3368C51.5327 84.3289 51.5343 84.3175 51.5428 84.3115C51.5454 84.3096 51.5484 84.3084 51.5517 84.308L51.7456 84.2822L51.8529 84.1214C51.8585 84.113 51.8704 84.1104 51.8793 84.1158C51.8825 84.1177 51.885 84.1204 51.8866 84.1237Z" fill="#E7EAEE" />
  <path fill-rule="evenodd" clip-rule="evenodd" d="M28.8229 101.617L29.0173 102.025L29.4604 102.145C29.4844 102.152 29.4982 102.175 29.4914 102.198C29.4892 102.205 29.4853 102.211 29.4798 102.216L29.1432 102.533L29.162 102.988C29.163 103.012 29.1436 103.032 29.1187 103.033C29.1103 103.033 29.1019 103.031 29.0946 103.027L28.7134 102.822C28.7015 102.816 28.6872 102.815 28.6744 102.82L28.2668 102.973C28.2436 102.981 28.2174 102.971 28.2082 102.949C28.2051 102.941 28.2042 102.933 28.2057 102.925L28.2915 102.477L28.0048 102.119C27.9897 102.1 27.9936 102.073 28.0135 102.059C28.0196 102.055 28.0268 102.052 28.0344 102.051L28.491 101.99L28.7436 101.612C28.7569 101.592 28.7847 101.586 28.8058 101.599C28.8133 101.603 28.8193 101.609 28.8229 101.617Z" fill="#00160A" />
  <path fill-rule="evenodd" clip-rule="evenodd" d="M48.354 64.9832L48.4952 65.0763C48.6536 65.1824 49.2452 65.709 49.3689 65.8045C49.6647 65.6763 49.9972 65.609 50.4251 65.5878C50.5807 65.5802 50.7134 65.6931 50.7215 65.84C50.7297 65.9869 50.6101 66.1123 50.4545 66.12C50.208 66.1321 50.0048 66.1605 49.8244 66.2113C50.0976 66.5064 50.199 66.7645 50.2043 67.0358L50.2043 67.0882C50.2043 67.2353 50.078 67.3546 49.9222 67.3546C49.7762 67.3546 49.656 67.2497 49.6416 67.1154L49.6401 67.0882L49.6401 67.0435C49.6359 66.8695 49.5583 66.6943 49.3033 66.4556C49.1884 66.5334 49.0742 66.6271 48.9524 66.7391L48.6531 67.0249C48.5434 67.1294 48.3648 67.1301 48.2542 67.0265C48.1435 66.9229 48.1427 66.7543 48.2524 66.6498L48.5019 66.4105C48.6249 66.2943 48.7432 66.1923 48.8618 66.1032C48.6536 65.6545 47.8736 65.1733 47.9618 65.052C48.0499 64.9307 48.2255 64.8999 48.354 64.9832Z" fill="#00160A" />
  <path fill-rule="evenodd" clip-rule="evenodd" d="M102.781 95.7089L103.165 95.9704L103.612 95.8652C103.636 95.8595 103.661 95.8734 103.667 95.8963C103.669 95.9033 103.669 95.9107 103.667 95.9177L103.543 96.3508L103.8 96.7364C103.814 96.7563 103.807 96.7827 103.786 96.7952C103.779 96.7995 103.771 96.8017 103.762 96.8018L103.324 96.8042C103.31 96.8043 103.297 96.8103 103.289 96.8204L103.016 97.1453C103.001 97.1638 102.973 97.1669 102.953 97.1523C102.946 97.1474 102.941 97.1408 102.939 97.1333L102.775 96.7043L102.338 96.5299C102.315 96.5207 102.304 96.4957 102.314 96.474C102.317 96.4674 102.321 96.4615 102.327 96.457L102.691 96.1889L102.709 95.7418C102.71 95.7183 102.731 95.7 102.756 95.7009C102.765 95.7012 102.773 95.704 102.781 95.7089Z" fill="#00160A" />
  <path fill-rule="evenodd" clip-rule="evenodd" d="M107.195 79.0115L107.312 79.4451L107.726 79.6361C107.748 79.6464 107.758 79.6719 107.747 79.6931C107.743 79.6996 107.738 79.7052 107.732 79.7094L107.342 79.9659L107.277 80.4176C107.274 80.4409 107.251 80.4573 107.226 80.4541C107.218 80.453 107.21 80.4497 107.204 80.4447L106.866 80.1803C106.855 80.172 106.841 80.1687 106.828 80.1713L106.398 80.2551C106.374 80.2598 106.35 80.245 106.345 80.2219C106.343 80.2141 106.344 80.206 106.347 80.1986L106.514 79.7708L106.297 79.3715C106.286 79.3506 106.295 79.3249 106.317 79.3141C106.324 79.3108 106.331 79.3092 106.339 79.3095L106.8 79.3246L107.118 78.9933C107.135 78.9759 107.163 78.9745 107.182 78.9904C107.188 78.996 107.193 79.0033 107.195 79.0115Z" fill="#00160A" />
  <path fill-rule="evenodd" clip-rule="evenodd" d="M97.1418 61.5584L97.2582 61.992L97.6725 62.183C97.6949 62.1933 97.7042 62.2188 97.6933 62.24C97.6899 62.2465 97.6848 62.2521 97.6785 62.2563L97.2887 62.5128L97.2236 62.9645C97.2202 62.9878 97.1974 63.0042 97.1727 63.001C97.1644 62.9999 97.1565 62.9967 97.15 62.9916L96.8124 62.7272C96.8018 62.7189 96.7878 62.7156 96.7744 62.7182L96.3449 62.802C96.3204 62.8067 96.2966 62.7919 96.2915 62.7688C96.2898 62.761 96.2905 62.7529 96.2934 62.7455L96.4604 62.3177L96.2437 61.9184C96.2324 61.8975 96.2411 61.8718 96.2633 61.861C96.2702 61.8577 96.2778 61.8561 96.2855 61.8564L96.7462 61.8715L97.0646 61.5402C97.0813 61.5228 97.1099 61.5215 97.1283 61.5373C97.1349 61.5429 97.1396 61.5502 97.1418 61.5584Z" fill="#00160A" />
  <path fill-rule="evenodd" clip-rule="evenodd" d="M126.843 65.8075L127.015 65.793C127.208 65.7782 127.384 65.7699 127.544 65.7679C127.683 65.4902 127.892 65.2367 128.205 64.9608C128.319 64.8604 128.498 64.8663 128.604 64.974C128.71 65.0816 128.704 65.2502 128.59 65.3505C128.409 65.5095 128.273 65.6547 128.169 65.8031C128.58 65.8632 128.833 65.9994 129.022 66.204L129.057 66.2441C129.157 66.3568 129.142 66.5249 129.022 66.6195C128.911 66.7081 128.747 66.7008 128.645 66.6066L128.625 66.5866L128.595 66.5524C128.473 66.4216 128.294 66.3346 127.936 66.3065C127.901 66.4359 127.878 66.577 127.861 66.7368L127.826 67.1373C127.813 67.284 127.677 67.393 127.521 67.3808C127.366 67.3686 127.251 67.2399 127.264 67.0932L127.292 66.7585C127.307 66.5948 127.328 66.4448 127.358 66.3046C127.221 66.3113 127.068 66.3223 126.897 66.3378C126.742 66.352 126.604 66.2448 126.589 66.0983C126.574 65.9519 126.688 65.8216 126.843 65.8075Z" fill="#00160A" />
  <path fill-rule="evenodd" clip-rule="evenodd" d="M104.064 84.1983C104.013 84.3202 103.901 84.4888 103.772 84.6484L103.884 84.7579L104.013 84.8883L104.042 84.9145C104.055 84.9249 104.064 84.9314 104.072 84.9331C104.114 84.9388 104.143 84.9753 104.137 85.0152C104.131 85.0542 104.093 85.0824 104.051 85.0766C104.013 85.0758 103.875 85.0249 103.71 84.8989C103.681 84.8761 103.651 84.8497 103.621 84.8209C103.526 84.9207 103.43 85.0065 103.348 85.0598C103.226 85.1391 103.12 85.1455 103.07 85.1134C103.021 85.0821 102.973 84.977 103.054 84.7646C103.066 84.7262 103.11 84.7059 103.15 84.7179C103.19 84.7299 103.212 84.7704 103.2 84.8088C103.187 84.8481 103.186 84.8842 103.185 84.913L103.232 84.8829C103.249 84.8717 103.266 84.8592 103.281 84.8445C103.338 84.792 103.401 84.7282 103.464 84.6591C103.364 84.5491 103.261 84.4198 103.179 84.2707C103.138 84.198 103.106 84.1208 103.076 84.0396C103.055 83.9943 103.076 83.941 103.125 83.921C103.173 83.9009 103.229 83.9217 103.25 83.967C103.342 84.1491 103.46 84.3061 103.576 84.4406L103.615 84.4844C103.72 84.3538 103.811 84.2215 103.852 84.1207C103.875 84.0659 103.941 84.0385 103.999 84.0596C104.058 84.0815 104.087 84.1435 104.064 84.1983Z" fill="#E7EAEE" />
  <path fill-rule="evenodd" clip-rule="evenodd" d="M101.31 29.9015C101.482 29.8732 101.645 29.9819 101.675 30.1443C101.705 30.3066 101.59 30.4612 101.418 30.4894C100.601 30.6239 99.6167 31.0855 98.7667 31.8289C97.6629 32.7942 96.8486 34.1566 96.4466 35.935C96.1228 37.3678 96.4204 39.2543 97.2669 40.8282C98.23 42.6188 99.7782 43.8363 101.765 44.179C103.804 44.5308 105.53 44.3123 107.457 43.6653L107.634 43.6044C107.69 43.5843 107.791 43.5476 107.917 43.5016L107.917 43.5016C108.381 43.3324 109.192 43.0371 109.425 42.9706C110.048 42.7926 110.473 42.8075 110.781 43.1177C110.9 43.2378 110.894 43.4267 110.767 43.5394C110.648 43.6452 110.464 43.6465 110.344 43.5472L110.32 43.5261C110.229 43.4346 110.041 43.424 109.663 43.5264L109.608 43.5418C109.403 43.6004 108.652 43.8738 108.184 44.0444L108.183 44.0444L108.183 44.0444C108.002 44.1105 107.863 44.1611 107.815 44.1777C105.733 44.8953 103.865 45.148 101.651 44.766C99.457 44.3875 97.751 43.046 96.7036 41.0985C95.7932 39.406 95.4737 37.3808 95.8287 35.8104C96.2577 33.9124 97.1375 32.4403 98.3374 31.391C99.2766 30.5696 100.372 30.0558 101.31 29.9015ZM103.447 31.343C103.618 31.3114 103.784 31.4168 103.817 31.5785C103.851 31.7402 103.739 31.897 103.568 31.9287C101.007 32.4023 98.9481 34.2495 98.3508 36.6928C98.1487 37.5197 98.2098 38.1921 98.4082 38.4486L98.4345 38.4808L98.4366 38.4853L98.4403 38.4826C98.5113 38.422 98.5943 38.2674 98.6587 38.0276L98.6722 37.9749C99.2865 35.462 101.315 33.5169 103.906 32.8637C104.075 32.8212 104.248 32.9158 104.293 33.075C104.338 33.2342 104.238 33.3978 104.069 33.4403C101.735 34.0288 99.9006 35.7645 99.312 38.0138L99.2879 38.1092C99.0713 38.9955 98.4492 39.4185 97.9453 38.8575C97.5768 38.4472 97.4863 37.5765 97.7351 36.5586C98.389 33.8838 100.643 31.8615 103.447 31.343ZM107.246 34.6182C107.234 34.4538 107.083 34.3301 106.909 34.3418C103.834 34.549 101.137 36.4353 100.064 39.2193C99.6571 40.2757 99.6328 41.2152 99.9661 41.6943C100.413 42.3369 101.117 41.9724 101.467 41.0625L101.504 40.9691C102.453 38.613 104.676 36.9674 107.279 36.6243C107.452 36.6015 107.573 36.4507 107.548 36.2875C107.524 36.1243 107.365 36.0104 107.192 36.0332C104.325 36.4111 101.881 38.2428 100.873 40.8584L100.851 40.9142C100.739 41.1865 100.616 41.3506 100.523 41.3988L100.519 41.4014L100.518 41.4028C100.517 41.4034 100.516 41.4038 100.516 41.4037C100.516 41.4036 100.515 41.4028 100.514 41.4008C100.512 41.3964 100.508 41.3864 100.494 41.3666L100.477 41.3406C100.294 41.0336 100.322 40.2949 100.658 39.4234C101.645 36.8626 104.125 35.1276 106.954 34.9371C107.128 34.9253 107.259 34.7826 107.246 34.6182ZM108.622 37.5189C108.796 37.5072 108.948 37.631 108.96 37.7953C108.972 37.9597 108.841 38.1025 108.667 38.1142C106.684 38.2478 104.945 39.4642 104.253 41.2597C104.048 41.7919 104.01 42.247 104.083 42.4774L104.092 42.5031L104.106 42.4841C104.142 42.4336 104.181 42.361 104.22 42.2669L104.237 42.2252C104.968 40.3287 106.74 39.0005 108.818 38.7265C108.991 38.7038 109.151 38.8176 109.175 38.9808C109.199 39.144 109.079 39.2948 108.906 39.3176C107.087 39.5573 105.533 40.7033 104.864 42.3454L104.831 42.4293C104.56 43.1326 103.974 43.4364 103.599 42.8979C103.342 42.5289 103.36 41.8322 103.659 41.0556C104.437 39.0369 106.393 37.6692 108.622 37.5189ZM110.288 39.9231C110.275 39.7587 110.124 39.635 109.95 39.6467C108.457 39.7473 107.147 40.6633 106.626 42.0152C106.421 42.5482 106.408 43.0333 106.598 43.3064C106.91 43.7542 107.394 43.5033 107.596 42.98L107.623 42.9113C108.047 41.8876 109.02 41.1738 110.157 41.0239C110.33 41.0011 110.451 40.8503 110.427 40.6871C110.402 40.5239 110.243 40.41 110.07 40.4328L109.99 40.4442C108.766 40.6304 107.71 41.3643 107.162 42.4204L107.143 42.458L107.155 42.4152C107.172 42.3528 107.194 42.2873 107.22 42.2193C107.655 41.0906 108.748 40.326 109.995 40.242C110.169 40.2302 110.3 40.0875 110.288 39.9231Z" fill="#00160A" />
  <path fill-rule="evenodd" clip-rule="evenodd" d="M108.622 37.5189C108.796 37.5072 108.948 37.631 108.96 37.7953C108.972 37.9597 108.841 38.1025 108.667 38.1142C106.684 38.2478 104.945 39.4642 104.253 41.2597C104.048 41.7919 104.01 42.247 104.083 42.4774L104.092 42.5031L104.106 42.4841C104.142 42.4336 104.181 42.361 104.22 42.2669L104.237 42.2252C104.968 40.3287 106.74 39.0006 108.818 38.7266C108.991 38.7038 109.151 38.8176 109.175 38.9808C109.199 39.144 109.079 39.2948 108.906 39.3176C107.087 39.5573 105.533 40.7033 104.864 42.3454L104.831 42.4293C104.56 43.1326 103.974 43.4364 103.599 42.8979C103.342 42.5289 103.36 41.8322 103.66 41.0556C104.437 39.0369 106.393 37.6692 108.622 37.5189Z" fill="#00160A" />
  <path d="M88.946 76.3684C95.5696 73.4424 101.108 71.8968 104.555 71.613C105.611 71.5261 106.09 72.0759 105.823 72.9701C105.624 73.6341 105.02 74.5453 104.093 75.6243C102.477 77.5054 100.347 79.115 98.2258 80.6122C101.619 77.6539 102.485 76.4164 103.532 75.1977L103.696 75.0039C104.472 74.0772 104.974 73.3029 105.128 72.7863L105.15 72.7078C105.246 72.3349 105.135 72.2466 104.618 72.2892C101.248 72.5666 95.7316 74.1152 89.1323 77.0373C82.5222 79.9641 82.3332 79.2898 88.946 76.3684Z" fill="white" />
  <path d="M58.6529 66.9028L58.7013 67.0116C59.0369 67.7631 59.3856 68.5072 59.7813 69.3188L59.9352 69.6337C59.8848 69.6657 59.8184 69.6997 59.7455 69.7298C59.6407 69.773 59.5344 69.8033 59.4544 69.8135L59.429 69.8159L59.3905 69.7723C59.0914 69.4246 58.7443 68.8337 58.4935 68.2461C58.3599 67.9332 58.2647 67.6461 58.2218 67.4256C58.2043 67.3357 58.1962 67.2603 58.1969 67.203L58.1988 67.1653C58.1994 67.1561 58.1994 67.1513 58.197 67.1506L58.2065 67.1446C58.2599 67.1098 58.3964 67.0344 58.599 66.9304L58.6529 66.9028Z" fill="white" />
  <path fill-rule="evenodd" clip-rule="evenodd" d="M67.0261 64.1807C67.2334 63.941 67.5022 63.9767 67.8427 64.1718L67.9302 64.2239L68.175 64.3771C68.2434 64.4186 68.2731 64.4329 68.313 64.4479C68.4056 64.4828 68.4508 64.5819 68.414 64.6694C68.3771 64.7569 68.2721 64.7996 68.1794 64.7647L68.1464 64.7519C68.0838 64.7266 68.0366 64.7003 67.9097 64.6208L67.7341 64.5103C67.7052 64.4925 67.6801 64.4775 67.6555 64.4634C67.4518 64.3467 67.3593 64.3344 67.3057 64.3964C67.2719 64.4355 67.2802 64.5189 67.3473 64.6897L67.421 64.8689C67.5674 65.236 67.5683 65.4001 67.3074 65.5402C67.0829 65.6608 66.9678 65.6045 66.6453 65.306L66.567 65.2328C66.3605 65.038 66.2522 64.9703 66.1825 64.9842C66.1593 64.9888 66.1323 65.0043 66.0993 65.0375C66.0606 65.0765 66.0497 65.201 66.0734 65.422L66.1098 65.7106C66.1522 66.0634 66.1351 66.1549 65.9809 66.2523C65.7685 66.3865 65.486 66.2348 64.9623 65.7906C64.8881 65.7277 64.8819 65.6199 64.9486 65.5498C65.0152 65.4798 65.1293 65.474 65.2035 65.5369C65.4274 65.7268 65.5965 65.8505 65.7145 65.9139L65.741 65.9275L65.7631 65.9379L65.7636 65.9166L65.7622 65.8655C65.7599 65.8236 65.7544 65.773 65.7433 65.6871L65.7203 65.51C65.6764 65.1508 65.6901 64.9511 65.836 64.8042C65.917 64.7227 66.0079 64.6705 66.1078 64.6506C66.3397 64.6042 66.5044 64.6978 66.778 64.9504L66.9161 65.0787C67.065 65.2139 67.1202 65.2485 67.1289 65.2438C67.1628 65.2256 67.1576 65.1691 67.0662 64.9473L67.0261 64.8513C66.8986 64.5416 66.8742 64.3562 67.0261 64.1807Z" fill="#00160A" />
  <path fill-rule="evenodd" clip-rule="evenodd" d="M86.7358 36.4276L86.5643 36.4421C86.4092 36.4563 86.2957 36.5865 86.3107 36.7329C86.3197 36.8214 86.3737 36.8956 86.4492 36.9373L86.4193 36.9574C86.2921 37.0423 86.2619 37.2086 86.3518 37.3287C86.4417 37.4489 86.6178 37.4774 86.745 37.3925L87.035 37.1985C87.0265 37.2613 87.0193 37.326 87.0131 37.3931L86.9849 37.7279C86.972 37.8745 87.0874 38.0032 87.2426 38.0154C87.3979 38.0276 87.5342 37.9186 87.5471 37.772L87.5819 37.3714C87.5911 37.2857 87.6021 37.2054 87.6158 37.1294C87.7148 37.3068 87.7345 37.4435 87.7136 37.5727L87.7054 37.6167L87.7018 37.6438C87.6913 37.7785 87.7904 37.9014 87.9342 37.9254C88.0876 37.9509 88.2339 37.8541 88.261 37.7092L88.2706 37.6576C88.3006 37.4778 88.2869 37.2968 88.2097 37.0958C88.2502 37.1232 88.2849 37.1537 88.3159 37.187L88.3463 37.2212L88.3659 37.2412C88.4684 37.3354 88.6318 37.3427 88.7437 37.2541C88.863 37.1595 88.8786 36.9915 88.7785 36.8787L88.7428 36.8386C88.7301 36.8249 88.7172 36.8115 88.7039 36.7984C88.8511 36.8064 88.9816 36.7051 88.9999 36.5649C89.0189 36.4188 88.9089 36.2859 88.7543 36.2679C88.4884 36.2371 88.2559 36.2301 88.042 36.2482C88.1186 36.1629 88.2077 36.0763 88.3112 35.9851C88.4252 35.8848 88.4314 35.7162 88.3252 35.6086C88.219 35.501 88.0405 35.495 87.9265 35.5954C87.7353 35.7637 87.583 35.9237 87.4617 36.0859C87.4148 36.039 87.3655 35.9908 87.3139 35.9414L87.1919 35.8266C87.0807 35.7235 86.9021 35.7251 86.793 35.8301C86.6838 35.9351 86.6855 36.1038 86.7967 36.2068C86.8738 36.2784 86.9451 36.3462 87.0107 36.4103C86.9233 36.4145 86.8318 36.4203 86.7358 36.4276Z" fill="#00160A" />
  <path fill-rule="evenodd" clip-rule="evenodd" d="M75.8723 38.2718C75.8058 38.2065 75.697 38.2092 75.6293 38.2779C75.5616 38.3467 75.5606 38.4554 75.6271 38.5207C75.6897 38.5822 75.7457 38.6392 75.7957 38.6923C75.6872 38.7371 75.5781 38.7949 75.4612 38.8661L75.2839 38.9758C75.206 39.0237 75.1881 39.1183 75.244 39.1872C75.2999 39.256 75.4083 39.273 75.4862 39.2252L75.6988 39.0942C75.8099 39.0285 75.91 38.9786 76.0104 38.9434C76.1596 39.1434 76.19 39.2721 76.1695 39.3919L76.164 39.4203L76.1615 39.4378C76.1536 39.5247 76.2124 39.6029 76.2997 39.6169C76.3929 39.6319 76.4831 39.5681 76.5013 39.4745L76.5077 39.4411C76.5382 39.2673 76.5091 39.0927 76.3813 38.8778C76.4703 38.8756 76.5673 38.8811 76.6773 38.8937C76.7726 38.9045 76.8587 38.8459 76.8697 38.7628C76.8808 38.6796 76.8125 38.6034 76.7173 38.5926C76.5077 38.5686 76.332 38.5673 76.1709 38.5896C76.1063 38.5134 76.0314 38.432 75.9452 38.3446L75.8723 38.2718Z" fill="#E7EAEE" />
  <path fill-rule="evenodd" clip-rule="evenodd" d="M39.5113 82.6886L39.7057 83.0966L40.1488 83.2167C40.1728 83.2232 40.1866 83.2468 40.1797 83.2694C40.1776 83.2764 40.1736 83.2827 40.1682 83.2879L39.8315 83.6044L39.8504 84.06C39.8513 84.0835 39.8319 84.1033 39.807 84.1042C39.7986 84.1045 39.7903 84.1026 39.7829 84.0987L39.4018 83.8937C39.3899 83.8872 39.3755 83.8863 39.3628 83.8911L38.9551 84.044C38.932 84.0527 38.9057 84.042 38.8965 84.0201C38.8934 84.0127 38.8926 84.0046 38.8941 83.9968L38.9799 83.5482L38.6931 83.1905C38.6781 83.1717 38.682 83.1449 38.7019 83.1307C38.708 83.1264 38.7152 83.1235 38.7228 83.1225L39.1793 83.0618L39.4319 82.6834C39.4452 82.6634 39.4731 82.6575 39.4942 82.67C39.5017 82.6745 39.5076 82.681 39.5113 82.6886Z" fill="#00160A" />
  <path fill-rule="evenodd" clip-rule="evenodd" d="M42.1032 60.0446L42.2976 60.4526L42.7407 60.5727C42.7647 60.5792 42.7785 60.6028 42.7716 60.6254C42.7695 60.6324 42.7655 60.6387 42.7601 60.6439L42.4234 60.9604L42.4423 61.4159C42.4433 61.4395 42.4239 61.4593 42.399 61.4602C42.3905 61.4605 42.3822 61.4586 42.3749 61.4547L41.9937 61.2496C41.9818 61.2432 41.9674 61.2423 41.9547 61.2471L41.5471 61.4C41.5239 61.4087 41.4976 61.398 41.4884 61.3761C41.4853 61.3687 41.4845 61.3606 41.486 61.3528L41.5718 60.9042L41.285 60.5464C41.27 60.5277 41.2739 60.5009 41.2938 60.4867C41.2999 60.4823 41.3071 60.4795 41.3147 60.4785L41.7712 60.4178L42.0239 60.0393C42.0371 60.0194 42.065 60.0135 42.0861 60.026C42.0936 60.0305 42.0996 60.0369 42.1032 60.0446Z" fill="#00160A" />
  <path d="M47.9745 96.0964C48.1193 95.9971 48.3219 96.0275 48.427 96.1643C48.5322 96.301 43.9484 99.8271 42.1702 101.443L41.9635 101.632C40.9478 102.571 40.199 103.384 39.7769 104.026C39.3296 104.707 39.3009 105.077 39.5897 105.228C40.6853 105.801 42.2605 106.081 44.5165 105.728L44.7483 105.691C45.6071 105.548 52.0669 104.218 51.9646 104.253L51.9249 104.264C51.7212 104.315 49.0909 105.175 48.1831 105.393L48.0733 105.419C46.6855 105.749 45.5994 105.975 44.6224 106.128C42.235 106.501 40.5293 106.419 39.2756 105.763C38.5521 105.385 38.6097 104.642 39.2263 103.704C39.7112 102.965 40.5642 102.053 41.7209 101.002C43.5228 99.3645 46.0573 97.4112 47.9745 96.0964Z" fill="white" />
  <path fill-rule="evenodd" clip-rule="evenodd" d="M81.7253 53.6789C81.8044 53.6292 81.9105 53.6504 81.9623 53.7262L83.1319 55.4379C83.1837 55.5137 83.1616 55.6155 83.0826 55.6651C83.0035 55.7148 82.8974 55.6936 82.8456 55.6178L81.676 53.9061C81.6242 53.8303 81.6463 53.7286 81.7253 53.6789Z" fill="#00160A" />
  <path fill-rule="evenodd" clip-rule="evenodd" d="M81.7826 52.4143C81.8732 52.3639 81.9929 52.3892 82.0499 52.4709L82.8549 53.6222C82.9119 53.7039 82.8848 53.8109 82.7942 53.8613C82.7036 53.9116 82.5839 53.8863 82.5268 53.8047L81.7219 52.6533C81.6648 52.5717 81.692 52.4646 81.7826 52.4143Z" fill="#00160A" />
</svg>
  