<svg width="134" height="136" viewBox="0 0 134 136" fill="none" xmlns="http://www.w3.org/2000/svg">
  <ellipse cx="26.3814" cy="84.6827" rx="6.07999" ry="5.80267" fill="white"/>
  <path fill-rule="evenodd" clip-rule="evenodd" d="M23.997 63.9937C22.9605 61.3665 23.8659 59.7925 24.4462 57.7377C24.931 56.0212 28.722 53.2331 30.4668 56.1403C30.9801 56.9956 30.7741 57.804 31.896 58.5557C34.6117 60.3753 33.1302 56.6002 33.2312 55.6459C33.2804 55.1804 32.8929 54.1069 33.0372 53.6576C33.1885 53.1862 33.9954 52.5165 33.9954 51.5394C33.9954 50.5622 32.3541 50.1859 31.896 49.9458C27.8246 47.8123 25.2352 44.2488 26.5256 42.4403C28.3234 39.9205 35.3693 43.8851 37.4864 44.2488C37.5138 44.2535 37.8919 42.2502 38.2007 41.7915C38.8186 40.8738 39.5014 39.9829 40.3161 39.24C40.681 38.9072 41.1756 38.7018 41.6618 38.6352C43.1167 38.436 44.6052 38.2726 46.0626 38.4531C46.5775 38.5168 49.6443 34.9145 50.8401 33.7525C60.0146 24.8373 78.4062 35.7014 68.3811 50.4641C66.5385 53.1775 64.1824 54.0403 63.8781 54.9993C63.2021 57.1294 67.4572 56.8493 69.2596 57.0768C72.3388 57.4655 73.8565 59.0709 71.945 61.8225C70.7541 63.5367 63.7684 63.4492 60.7083 62.2097C59.5725 61.7496 58.1688 59.738 57.0954 61.3881C56.3557 62.5251 53.472 64.9374 50.3785 66.3019C48.9821 66.9178 47.3917 66.5466 46.2002 67.0966C44.523 67.8708 39.5717 71.1216 37.4864 71.1208C35.3862 71.12 32.6685 68.5549 32.3541 68.3867C31.8749 68.1302 28.1677 67.3952 26.3362 64.5268C25.7824 63.6594 24.3764 64.9553 23.997 63.9937Z" fill="white"/>
  <ellipse cx="59.6555" cy="48.7637" rx="0.644063" ry="0.64433" fill="#FFB61D"/>
  <ellipse cx="54.94" cy="47.4187" rx="0.625333" ry="0.634667" fill="#FFB61D"/>
  <ellipse cx="100.5" cy="46.8747" rx="8.48667" ry="8.61333" fill="white"/>
  <ellipse cx="73.9636" cy="95.7387" rx="24.6605" ry="21.392" fill="white"/>
  <path fill-rule="evenodd" clip-rule="evenodd" d="M53.0571 107.403L53.3339 107.606C52.7092 108.175 51.7695 107.468 51.2426 106.805C50.3954 105.739 49.5356 104.606 49.2778 103.261C49.1311 102.496 49.1898 101.708 49.2491 100.931L49.4881 97.7977C49.594 96.4094 49.7002 95.0185 49.937 93.6469C50.5779 89.9347 52.1911 86.4001 54.5666 83.5034L54.5904 83.4744C55.0099 82.9631 55.468 82.4048 55.4599 81.7419C55.4428 80.3393 56.2386 79.0287 57.2835 78.1106C58.3283 77.1925 59.6078 76.6033 60.8676 76.0266C61.4383 75.7654 62.1836 75.5313 62.6259 75.981C63.5356 76.9061 65.054 76.3168 66.2557 75.847C67.7311 75.2702 69.307 74.9595 70.8879 74.9335L71.027 74.9314C71.9761 74.9177 73.0445 74.9022 73.6236 74.1558C73.9923 73.6806 74.6973 73.7082 75.289 73.78L79.3588 74.2741C79.6699 74.3118 80.0426 74.398 80.1407 74.6999C80.4036 75.5094 81.331 75.8398 82.1351 76.0858C84.9937 76.9606 87.7878 78.1483 90.2146 79.9134C92.6415 81.6786 94.6927 84.053 95.781 86.8747C94.0114 84.4199 92.196 81.9189 89.7402 80.1756C89.0374 79.6767 88.2898 79.246 87.5311 78.84C85.7404 77.8819 83.8766 77.0561 81.9405 76.4563C72.9525 73.672 62.5556 76.2543 55.8502 82.9365C54.8779 83.9054 53.9663 84.9726 53.415 86.2372L54.1434 86.4665C52.9889 86.9903 52.1314 88.1377 51.9458 89.4072C52.4104 88.5996 53.0726 87.91 53.8562 87.4179C53.6319 88.1783 53.0486 88.7893 52.4768 89.3882C51.7481 90.1515 51.038 90.8952 51.1134 91.9038C51.4594 90.9823 52.3309 90.2866 53.2949 90.1626C51.7659 91.6789 50.1252 93.4584 50.1739 95.6275C50.7316 94.375 51.6787 93.3045 52.8458 92.6074L51.1655 94.8991C50.53 95.7658 49.8608 96.7562 50.0061 97.8265C50.5589 96.8195 51.3493 95.948 52.2924 95.3057C51.8382 96.3538 51.1899 97.3149 50.3913 98.1237C51.1507 98.0306 51.8819 97.7113 52.4707 97.2157C52.2239 97.5654 52.0015 97.9601 51.9932 98.3903C51.9848 98.8204 52.2595 99.282 52.679 99.3439C52.8059 99.0557 53.2042 98.934 53.4669 99.1031C52.6708 99.8893 52.6626 101.346 53.4497 102.141C53.5197 101.767 53.8304 101.452 54.1988 101.382C53.6116 102.424 53.506 103.732 53.9183 104.857C54.0431 104.22 54.3916 103.63 54.8867 103.218C54.6012 104.73 53.9701 106.173 53.0571 107.403ZM52.7094 106.921C53.2065 106.916 53.5156 106.352 53.5675 105.85C53.6295 105.25 53.4826 104.649 53.3368 104.064L52.4721 100.593C52.3093 100.645 52.2904 100.825 52.2706 101.013C52.2537 101.174 52.2362 101.341 52.1279 101.44C51.9091 101.164 51.8842 100.745 52.0688 100.445C52.2551 100.141 52.1332 99.7152 51.8689 99.4783C51.6045 99.2415 51.2367 99.161 50.8842 99.1493C50.6938 99.1429 50.4912 99.1578 50.3354 99.2691C50.1795 99.3803 50.0975 99.617 50.2082 99.7744C50.5378 100.243 50.7857 100.771 50.9371 101.326C50.9484 101.367 50.9594 101.409 50.9704 101.451C51.0456 101.739 51.123 102.036 51.3307 102.241C51.4913 102.4 51.5322 102.642 51.5648 102.867L51.829 104.691C51.8771 105.023 51.9251 105.361 51.8701 105.692C51.8151 106.023 51.6389 106.351 51.3432 106.501L52.2874 106.828C52.4244 106.875 52.5647 106.923 52.7094 106.921ZM63.0013 77.0251C62.8153 77.065 62.6593 76.8991 62.5261 76.7574L62.5107 76.7412C62.3742 76.5963 62.1395 76.47 61.9956 76.6074C60.3198 78.2075 58.4127 79.5578 56.3544 80.6015C55.9809 80.791 55.9307 81.3017 55.9305 81.7256C55.9304 81.8671 56.064 82.0658 56.151 81.9552C56.5754 81.4155 57.1273 80.9965 57.6727 80.5838C59.2076 79.4224 60.7608 78.2501 62.5203 77.4844C62.7338 77.3915 62.9838 77.2601 63.0013 77.0251ZM79.8449 75.2254C79.7498 74.9993 79.4798 74.9177 79.2418 74.8722C78.5931 74.7481 77.9329 74.6919 77.2733 74.6358C76.3675 74.5587 75.4629 74.4817 74.5912 74.2292C74.312 74.1484 74.0731 74.4356 73.9201 74.686C74.3794 74.6375 74.8417 74.6175 75.3035 74.6261C76.1072 74.6411 76.9067 74.7427 77.7043 74.8442C78.1096 74.8957 78.5178 74.9479 78.9065 75.0755C78.9517 75.0904 78.9974 75.1063 79.0432 75.1223L79.0433 75.1223C79.3086 75.2148 79.5829 75.3104 79.8449 75.2254ZM71.2649 78.7022C71.4486 78.7448 71.6236 78.8841 71.651 79.0733C71.6784 79.262 71.5514 79.446 71.389 79.5421C71.2267 79.6382 71.0348 79.6651 70.8484 79.6901L70.2876 79.7655C70.2314 79.7731 70.1734 79.7812 70.1246 79.8105C69.9837 79.8953 69.9934 80.1248 70.1087 80.243C70.2239 80.3612 70.4007 80.3905 70.5646 80.3902C71.3275 80.3887 72.0497 79.8315 72.2828 79.0942C72.3381 78.9191 72.3674 78.7244 72.2989 78.5542C72.2641 78.4678 72.206 78.393 72.1414 78.3265C71.8414 78.0179 71.3943 77.8819 70.9682 77.9124C70.542 77.943 70.1367 78.1272 69.7899 78.3804C69.6237 78.5018 69.4653 78.644 69.3709 78.8284C69.2765 79.0128 69.2562 79.2469 69.3619 79.4249C69.4022 79.4928 69.4644 79.553 69.5415 79.5657C69.6186 79.5785 69.7076 79.528 69.7172 79.4493C69.7438 79.2307 69.901 79.0459 70.0884 78.9348C70.2758 78.8236 70.4919 78.7747 70.7048 78.7315C70.8896 78.694 71.0812 78.6596 71.2649 78.7022ZM56.2294 89.5185C56.439 88.26 57.4406 87.2369 58.6083 86.7627C59.2517 86.5015 59.9879 86.3869 60.635 86.6386C60.7947 86.7008 60.9493 86.7865 61.0643 86.9149C61.1725 87.0356 61.2405 87.1877 61.2918 87.3423C61.6205 88.3319 61.2869 89.4764 60.5806 90.2359C59.8743 90.9954 58.846 91.3939 57.8197 91.4685C57.4909 91.4925 57.1378 91.4789 56.8662 91.2893C56.5947 91.0996 56.4599 90.6782 56.669 90.4196C56.7678 90.4244 56.8211 90.5139 56.8757 90.6056C56.9027 90.651 56.93 90.6969 56.9634 90.7334C57.0773 90.8579 57.2659 90.8669 57.4332 90.8597C58.1609 90.8286 58.8997 90.6456 59.492 90.2154C60.0844 89.7852 60.51 89.0824 60.4976 88.3433C60.4936 88.1051 60.4425 87.8615 60.3096 87.6652C60.0913 87.343 59.6787 87.1976 59.2943 87.2233C58.9099 87.249 58.5495 87.422 58.2222 87.6282C57.7915 87.8996 57.3935 88.2406 57.1235 88.676C56.8535 89.1115 56.7215 89.6498 56.8357 90.151C56.7348 90.3358 56.4348 90.2989 56.3109 90.1292C56.1869 89.9594 56.1947 89.7268 56.2294 89.5185ZM62.9317 99.8909C62.3993 100.239 61.9578 100.783 61.8757 101.42C61.8093 101.936 61.9795 102.449 62.1473 102.94C62.2782 103.323 62.4135 103.715 62.6629 104.032C63.1133 104.605 63.8591 104.842 64.572 104.958C64.7661 104.99 65.0606 104.901 64.9914 104.714C64.2388 104.7 63.4984 104.346 63.0086 103.766C62.5188 103.186 62.2875 102.389 62.3891 101.632C62.4105 101.473 62.4462 101.314 62.5121 101.168C62.6454 100.872 62.8941 100.645 63.1631 100.469C63.7424 100.089 64.4476 99.9107 65.1346 99.971C65.7971 100.029 66.4589 100.324 66.8633 100.859C67.2676 101.395 67.364 102.185 67.0072 102.755C66.9492 102.847 66.9068 103.011 67.0132 103.03C67.5877 102.716 67.9065 102.024 67.8744 101.362C67.8422 100.701 67.498 100.082 67.0251 99.6251C66.7636 99.3727 66.4538 99.1594 66.1029 99.0736C65.6403 98.9605 65.1564 99.0772 64.6962 99.2C64.0839 99.3635 63.4642 99.5432 62.9317 99.8909ZM89.0812 100.713C87.1558 99.9829 85.0636 99.711 83.0192 99.9246C82.1619 100.014 81.302 100.192 80.5313 100.583C79.0772 101.322 78.0375 102.842 77.8645 104.483C77.6915 106.124 78.3907 107.834 79.658 108.868C80.1386 109.26 80.684 109.553 81.2302 109.848L81.2303 109.848L81.2303 109.848L81.2304 109.848L81.2304 109.848L81.2305 109.848L81.2305 109.848L81.2306 109.848L81.2306 109.848L81.2307 109.848L81.2307 109.848L81.2307 109.848L81.2308 109.848L81.2308 109.848L81.2309 109.848L81.2309 109.848L81.231 109.848L81.231 109.848C81.6036 110.048 81.9766 110.249 82.3294 110.482C82.4303 110.579 82.2033 110.677 82.0706 110.634C80.8356 110.229 79.6363 109.614 78.7555 108.647C77.6838 107.47 77.1612 105.799 77.3679 104.211C77.5746 102.622 78.5067 101.147 79.8426 100.293C80.8992 99.6174 82.1625 99.3328 83.4104 99.2872C84.6583 99.2415 85.9025 99.4225 87.1365 99.6165C87.9072 99.7377 88.8109 99.9701 89.0812 100.713ZM68.8221 103.161C68.7347 102.958 68.3832 102.905 68.319 103.117C67.9105 104.466 66.6135 105.486 65.2246 105.55C64.9106 105.565 64.5964 105.535 64.2835 105.505C63.6098 105.438 62.9149 105.36 62.3249 105.024C61.4765 104.539 60.9659 103.545 60.9599 102.557C60.9539 101.57 61.4156 100.609 62.1166 99.9241C62.0194 99.6476 61.6016 99.7812 61.3941 99.9858C60.2443 101.12 60.0471 103.078 60.8538 104.484C61.6606 105.89 63.3513 106.679 64.945 106.5C66.5387 106.321 67.9775 105.238 68.7184 103.795C68.8194 103.598 68.9095 103.364 68.8221 103.161ZM58.842 109.992C58.5824 111.002 58.5578 112.074 58.7707 113.096C58.8662 113.554 58.8766 113.806 58.8785 113.854L58.8788 113.86L58.879 113.862C58.8791 113.862 58.8792 113.859 58.8795 113.854C58.8816 113.806 58.8929 113.553 58.9905 113.094C59.2083 112.07 59.1565 110.989 58.842 109.992ZM60.2213 110.603C59.8525 111.388 59.8982 112.359 60.3391 113.104C60.4381 113.271 60.5133 113.407 60.5687 113.508C60.6432 113.643 60.6821 113.713 60.6956 113.709C60.7104 113.704 60.6947 113.609 60.662 113.411C60.6488 113.331 60.633 113.235 60.6152 113.122L60.2213 110.603ZM61.2598 111.605C61.1033 112.106 61.2185 112.685 61.5542 113.085C61.8969 113.494 62.0089 113.625 61.9045 113.099C61.7979 112.562 61.5764 112.049 61.2598 111.605ZM91.3129 105.907C90.842 107.825 89.3378 109.279 87.8793 110.59C87.946 110.736 88.1614 110.683 88.2994 110.605C89.7767 109.761 90.9721 108.386 91.5174 106.757C92.0628 105.128 91.9272 103.256 91.0663 101.774C90.9941 101.65 90.902 101.517 90.7624 101.489C90.6227 101.462 90.4618 101.626 90.5439 101.744C91.3714 102.933 91.6596 104.494 91.3129 105.907ZM70.074 88.5829C70.0706 88.2794 70.0747 87.9509 70.2553 87.7089C70.5039 87.3758 70.9757 87.3408 71.3874 87.3349C71.5712 87.3323 71.7572 87.33 71.936 87.3731C72.3167 87.465 72.6199 87.7502 72.8901 88.0374C72.95 88.1011 73.0137 88.1794 72.9989 88.2661C72.9805 88.3736 72.8478 88.423 72.7425 88.401C72.6725 88.3864 72.6097 88.3511 72.5468 88.3157L72.5468 88.3157C72.5151 88.2978 72.4833 88.28 72.4506 88.2647C72.072 88.0884 71.6271 88.2817 71.287 88.5259C71.2336 88.5642 71.1759 88.6135 71.1746 88.6799C71.1733 88.7467 71.2296 88.7984 71.2827 88.8379C71.7422 89.1795 72.3305 89.3376 72.8964 89.2717C73.0317 89.256 73.1907 89.2057 73.2258 89.0721C73.2395 89.0199 73.2341 88.9585 73.229 88.8991C73.2204 88.8 73.2123 88.7066 73.2944 88.6721C73.3372 88.6542 73.3858 88.6672 73.4303 88.6803C73.7365 88.7707 74.0946 88.916 74.154 89.2341C74.1711 89.326 74.1589 89.4218 74.1301 89.5107C74.0458 89.7707 73.8106 89.9738 73.5443 90.0167C73.426 90.0358 73.3052 90.0255 73.1859 90.0151C72.8742 89.9879 72.5622 89.9607 72.2533 89.9102C71.6861 89.8175 71.1315 89.646 70.6098 89.402C70.4287 89.3173 70.2406 89.2131 70.1488 89.0335C70.0791 88.8969 70.0758 88.7367 70.074 88.5829ZM81.7229 81.0983C81.5406 80.5982 81.1002 80.2036 80.5886 80.0821C80.4304 80.0445 80.2516 80.0353 80.1174 80.1283C79.9832 80.2214 79.9371 80.4483 80.065 80.55C80.1891 80.6487 80.1141 80.8807 79.9625 80.9246C79.8109 80.9684 79.6478 80.864 79.5721 80.7237C79.4964 80.5833 79.4883 80.4167 79.4874 80.2567C79.4863 80.0432 79.5054 79.805 79.6608 79.6611C79.72 79.6063 79.7939 79.5709 79.867 79.5377C80.1698 79.4003 80.5045 79.2839 80.828 79.3576C81.1363 79.4279 81.3821 79.6589 81.5971 79.8939C81.7733 80.0866 81.9401 80.2883 82.0964 80.498C82.2342 80.6828 82.3666 80.8799 82.4184 81.1056C82.4701 81.3313 82.4255 81.5932 82.2537 81.7459C82.0855 81.8952 81.8269 81.908 81.6227 81.8157C81.4424 81.7342 81.2884 81.5548 81.3018 81.3549C81.3153 81.155 81.5572 80.9892 81.7229 81.0983ZM83.3497 95.1569C83.8018 95.1438 84.223 94.7903 84.3207 94.3421C84.3802 94.0696 84.3068 93.7454 84.0728 93.5987C83.9018 93.4916 83.6868 93.4995 83.4863 93.5125C83.2087 93.5306 82.9205 93.5552 82.6793 93.6959C82.438 93.8366 82.2587 94.1281 82.3343 94.3999C82.4571 94.8417 82.8975 95.17 83.3497 95.1569ZM83.4077 94.4948C83.3203 94.5187 83.1957 94.4958 83.1878 94.4043C83.1845 94.3663 83.2047 94.3303 83.2277 94.3001C83.3562 94.1312 83.6009 94.0656 83.7949 94.1481C83.7275 94.3156 83.5799 94.4478 83.4077 94.4948ZM83.6413 87.7045C83.5676 87.5321 83.7103 87.3311 83.8837 87.265C84.0225 87.2121 84.1733 87.2176 84.3229 87.2231C84.3601 87.2244 84.3973 87.2258 84.4342 87.2262C84.6194 87.2285 84.824 87.1972 84.9442 87.0542C84.9865 87.0037 85.0153 86.9296 84.983 86.872C84.9492 86.8117 84.8695 86.8013 84.8014 86.7977C84.3293 86.7729 83.772 86.7876 83.4999 87.1799C83.4414 87.2642 83.2982 87.2357 83.2435 87.1488C83.1888 87.0619 83.2014 86.9479 83.2325 86.8497C83.3439 86.4982 83.6639 86.2425 84.0134 86.14C84.3629 86.0375 84.7383 86.0698 85.0931 86.1514C85.2127 86.1789 85.3369 86.2151 85.4243 86.3025C85.4936 86.3718 85.5324 86.4667 85.5577 86.5621C85.6785 87.0181 85.5001 87.5405 85.127 87.8227C84.7539 88.1049 84.2097 88.1292 83.8137 87.8814C83.743 87.8372 83.6743 87.7819 83.6413 87.7045ZM82.0233 95.7628C82.2425 96.0294 82.5022 96.2718 82.8171 96.4075C83.4536 96.6818 84.2674 96.4284 84.6429 95.839C84.7796 95.6244 84.8407 95.2969 84.6385 95.1446C84.3146 95.8355 83.3752 96.1406 82.7163 95.7689C82.5901 95.6976 82.4753 95.6066 82.371 95.5052C81.8971 95.0448 81.65 94.2928 81.928 93.6897C82.0186 93.4931 82.1578 93.3233 82.31 93.1709C82.6419 92.8383 83.1169 92.566 83.56 92.7139C83.5783 92.7201 83.5966 92.7269 83.615 92.7338L83.615 92.7338C83.6771 92.757 83.7394 92.7802 83.8046 92.7764C83.8892 92.7714 83.9775 92.6946 83.9558 92.6115C83.9493 92.5869 83.9343 92.5656 83.9188 92.5456C83.6449 92.1915 83.1074 92.0821 82.7202 92.3017C82.2593 92.563 81.7911 92.8707 81.5459 93.3452C81.147 94.1176 81.4727 95.0933 82.0233 95.7628ZM89.3636 83.8491C89.3434 83.8786 89.3484 83.9197 89.3532 83.9589C89.359 84.0056 89.3644 84.0496 89.3267 84.0685C89.1888 84.1376 89.0237 84.1305 88.8767 84.0847C88.4753 83.9597 88.2062 83.5858 87.9791 83.2274C87.8463 83.0178 87.7141 82.7952 87.6926 82.547C87.6712 82.2987 87.7962 82.0192 88.0318 81.9491C88.2945 81.8708 88.5521 82.069 88.7565 82.2538C88.9872 82.4622 89.2229 82.677 89.3656 82.955C89.5083 83.2329 89.5401 83.592 89.3636 83.8491ZM88.4909 82.9191C88.5475 82.9749 88.5784 83.0499 88.6095 83.125C88.64 83.1989 88.6706 83.2729 88.7257 83.3286C88.7954 83.3992 88.9013 83.4308 88.9976 83.4098C88.8172 83.1264 88.6081 82.8617 88.3746 82.6214C88.3122 82.6404 88.307 82.7344 88.3446 82.7884C88.3674 82.8213 88.3992 82.8454 88.4311 82.8696C88.4518 82.8853 88.4725 82.901 88.4909 82.9191ZM54.1314 108.529C54.1092 108.901 54.1373 109.332 54.4306 109.557C54.5284 109.501 54.5217 109.359 54.5094 109.246C54.4337 108.551 54.6463 107.881 54.8602 107.206C55.0134 106.723 55.1673 106.238 55.2166 105.74C55.231 105.595 55.193 105.397 55.0499 105.392C54.9427 105.388 54.8736 105.502 54.8304 105.602C54.4296 106.526 54.1918 107.522 54.1314 108.529ZM82.5872 95.1129C82.9182 95.2615 83.2852 95.413 83.6315 95.3063C83.7692 95.2639 83.8919 95.1831 84.0125 95.1033C84.012 95.3088 83.8379 95.4813 83.6439 95.54C83.4499 95.5988 83.2412 95.5673 83.0434 95.5239C82.8236 95.4756 82.5549 95.3387 82.5872 95.1129ZM56.4057 112.261C56.4901 112.108 56.5045 111.927 56.517 111.753L56.617 110.362C56.666 109.679 56.715 108.994 56.6711 108.311C56.6655 108.225 56.6569 108.134 56.6074 108.064C56.558 107.994 56.4533 107.956 56.3855 108.009C56.3356 108.047 56.323 108.116 56.3144 108.179C56.2059 108.969 56.1479 109.766 56.141 110.563C56.1359 111.141 56.1619 111.738 56.4057 112.261ZM54.9079 111.066C54.8201 111.141 54.674 111.075 54.6256 110.969C54.5772 110.863 54.5967 110.74 54.6175 110.625C54.8343 109.425 55.0804 108.23 55.3552 107.042C55.3621 107.012 55.3695 106.981 55.3884 106.957C55.4608 106.866 55.607 106.958 55.6584 107.062C55.7844 107.319 55.7241 107.624 55.661 107.904L54.9836 110.902C54.9701 110.962 54.9541 111.026 54.9079 111.066ZM57.254 111.119C57.2163 111.569 57.2828 112.021 57.3491 112.468C57.3727 112.627 57.4856 112.838 57.6272 112.766L57.9032 109.77C57.9144 109.648 57.922 109.513 57.8476 109.417C57.7731 109.321 57.5846 109.325 57.5608 109.445L57.3573 110.472C57.3149 110.686 57.2723 110.901 57.254 111.119ZM85.7543 101.938C84.9685 101.528 84.0122 101.366 83.1959 101.71C82.5863 101.967 80.8632 103.077 80.6339 104.499C80.4804 105.451 80.482 106.424 80.8104 107.343L80.8632 107.488C80.961 107.748 81.2726 108.047 81.4467 107.832C80.9381 106.899 80.8431 105.743 81.1923 104.737C81.5414 103.731 82.329 102.892 83.3016 102.488C83.5063 102.403 83.72 102.336 83.9401 102.315C84.3853 102.272 84.8297 102.419 85.2277 102.626C86.0844 103.071 87.146 103.812 87.5538 104.697C87.947 105.55 88.2366 106.568 87.8808 107.438C87.5249 108.308 85.1876 108.938 85.1876 108.938L85.4463 109.417C85.4463 109.417 86.7547 109.155 87.5538 108.564C90.9085 106.084 86.506 102.331 85.7543 101.938Z" fill="#00160A"/>
  <path fill-rule="evenodd" clip-rule="evenodd" d="M26.4518 89.6941C25.2653 89.8233 24.0086 89.5447 23.0823 88.7814C22.4262 88.2407 21.9652 87.4886 21.6417 86.6962C21.2905 85.8359 21.0886 84.9131 21.048 83.9828C21.0327 83.6325 21.0409 83.2758 21.1423 82.9407C21.3092 82.3891 21.7112 81.9465 22.1215 81.5471C22.9944 80.6974 24.0204 79.9221 25.217 79.7435C26.0324 79.6218 26.8618 79.7877 27.6599 79.9962C28.2868 80.1599 28.9128 80.3529 29.4767 80.6756C30.7225 81.3885 31.5859 82.7483 31.7108 84.1944C31.8357 85.6404 31.682 86.5986 29.7592 88.3952C28.7601 89.0573 27.6382 89.5649 26.4518 89.6941ZM28.544 85.1549C28.3516 85.2163 28.1598 85.3253 27.9612 85.2898C27.5553 85.2173 27.4827 84.6522 27.5728 84.2441C27.8308 83.0759 28.6331 82.0441 29.6928 81.518C29.4529 81.0765 28.8157 81.044 28.365 81.2563C27.9143 81.4685 27.562 81.851 27.1262 82.093C26.9093 82.2135 26.6522 82.2988 26.4163 82.2238C26.028 82.1004 25.8798 81.5843 26.0069 81.192C26.134 80.7998 26.4513 80.5071 26.7559 80.2333C25.6521 80.2726 24.56 80.6088 23.6207 81.1984C22.8854 81.66 22.188 82.4169 22.2855 83.2888C22.8935 82.7921 23.6073 82.4296 24.3634 82.2335C24.5238 82.1919 24.7251 82.171 24.8254 82.3047C24.9015 82.4059 24.8796 82.5514 24.8309 82.6687C24.5892 83.2504 23.8785 83.4456 23.4376 83.891C23.3798 83.9495 23.3242 84.017 23.3102 84.0987C23.2828 84.2588 23.4331 84.4047 23.591 84.4315C23.7489 84.4582 23.9074 84.3999 24.0571 84.3425C24.3682 84.2234 24.6793 84.1043 24.9903 83.9852C25.2155 83.899 25.4828 83.8167 25.6831 83.9522C25.8902 84.0923 25.9098 84.4111 25.7927 84.6341C25.6756 84.8572 25.4607 85.0067 25.2539 85.1474C24.7554 85.4865 24.2568 85.8256 23.7583 86.1647C23.3409 86.4486 22.8733 86.8314 22.913 87.3398C22.9504 87.8183 23.469 88.1435 23.941 88.1128C24.413 88.082 24.8284 87.7891 25.1767 87.4644C25.5251 87.1397 25.8395 86.769 26.244 86.5203C26.508 86.358 26.8846 86.2679 27.0991 86.4932C27.2647 86.6672 27.2488 86.947 27.1866 87.1806C27.0074 87.854 26.5228 88.4369 25.899 88.7295C26.4066 88.8484 26.9359 88.8708 27.4514 88.7953C27.7454 88.7522 28.0498 88.6695 28.2624 88.4589C28.475 88.2483 28.5573 87.8778 28.3729 87.6414C28.0978 87.2889 28.1087 86.773 28.2845 86.3602C28.4602 85.9474 28.7742 85.614 29.0817 85.2903C28.9937 85.1061 28.7365 85.0935 28.544 85.1549ZM30.8937 85.9551C31.1701 85.3067 31.1802 84.5735 31.1102 83.8706C31.0328 83.0932 30.7658 82.2044 30.0442 81.932C28.9869 82.3774 28.1709 83.3711 27.9298 84.507C27.9096 84.6024 27.8937 84.705 27.9307 84.7951C27.9677 84.8853 28.0777 84.951 28.1629 84.9057C28.4552 84.7502 28.8147 84.662 29.1119 84.8077C29.4091 84.9534 29.5538 85.408 29.3132 85.6372C29.0473 85.8904 28.7742 86.1539 28.6308 86.4941C28.4874 86.8344 28.508 87.2748 28.7781 87.5235C28.981 87.7103 28.9815 88.0772 28.7791 88.2647C29.3546 88.094 29.7647 87.5919 30.1379 87.1156C30.4232 86.7516 30.7117 86.382 30.8937 85.9551ZM24.2687 82.6021C23.6701 82.8541 23.089 83.149 22.5312 83.484C22.3986 83.5637 22.2645 83.648 22.1675 83.7695C22.0365 83.9337 21.9868 84.1479 21.9463 84.3551C21.8156 85.0245 21.7481 85.7452 22.0251 86.367C22.1135 86.5655 22.2344 86.747 22.3546 86.9275C22.3901 86.9807 22.4304 87.0376 22.4912 87.0556C22.5521 87.0735 22.6324 87.0237 22.6181 86.9611C22.5741 86.7681 22.7181 86.5865 22.8602 86.4507C23.6928 85.6553 24.8143 85.1988 25.563 84.3218C25.4494 84.1852 25.234 84.2494 25.0721 84.3196C24.6864 84.4867 24.2887 84.6253 23.8832 84.7339C23.674 84.7899 23.4409 84.8354 23.25 84.7321C22.9706 84.581 22.9252 84.1674 23.0727 83.8831C23.2203 83.5988 23.5009 83.4153 23.7714 83.2484C24.042 83.0815 24.3258 82.9073 24.4882 82.6314C24.4586 82.5529 24.3452 82.5699 24.2687 82.6021ZM26.3175 87.9299C26.5821 87.7142 26.8679 87.4598 26.8968 87.1166C26.9119 86.9371 26.7985 86.7177 26.6218 86.7348C26.5675 86.74 26.5179 86.7673 26.4711 86.7957C25.7018 87.2622 25.1955 88.1743 24.3276 88.401C24.5729 88.5124 24.8286 88.6001 25.0901 88.6624C25.168 88.681 25.2491 88.6973 25.3275 88.6809C25.4186 88.6617 25.4949 88.6007 25.5675 88.5415C25.8175 88.3377 26.0675 88.1338 26.3175 87.9299ZM27.033 80.4733C26.8618 80.6655 26.6906 80.8576 26.5194 81.0498C26.3838 81.202 26.2383 81.4029 26.3138 81.5932C26.3694 81.7335 26.5336 81.8044 26.6821 81.7927C26.8306 81.781 26.9659 81.7039 27.0905 81.6209C27.5343 81.3254 27.9339 80.9228 28.4518 80.8047C28.0927 80.6719 27.7336 80.5391 27.3745 80.4063C27.2997 80.3786 27.2163 80.351 27.1427 80.3818C27.0986 80.4003 27.065 80.4373 27.033 80.4733Z" fill="#00160A"/>
  <path fill-rule="evenodd" clip-rule="evenodd" d="M33.7156 57.5185C33.6708 58.4291 32.9786 59.4152 32.0865 59.3075C31.6839 58.8349 31.3688 58.2483 31.0573 57.6685C30.4592 56.5552 29.8747 55.4671 28.7102 55.2606C27.5665 55.0577 26.5013 55.9115 25.7889 56.8421C24.7572 58.1899 24.0905 59.8226 23.8803 61.516C23.7568 62.5115 24.159 63.8921 25.1418 63.7825C26.2643 63.6574 27.0626 64.5536 27.8746 65.465C28.6261 66.3087 29.3893 67.1654 30.432 67.2377C31.6736 67.3238 32.6878 68.0787 33.7145 68.8429C34.4001 69.3533 35.0913 69.8678 35.8595 70.1899C37.3047 70.7959 38.9712 70.6787 40.4464 70.1524C41.9215 69.6262 43.2344 68.7197 44.4769 67.7563L44.542 67.7057C45.2203 67.1793 45.9303 66.6282 46.7737 66.5122C51.0864 65.9192 55.0976 63.3519 57.4833 59.6577C60.8656 62.4018 65.5946 63.3397 69.7459 62.0897C70.4502 61.8776 71.1591 61.5932 71.6815 61.0688C72.2038 60.5445 72.5 59.7302 72.2433 59.0315C71.9625 58.2675 71.1233 57.8584 70.3258 57.76C69.8886 57.7061 69.448 57.722 69.007 57.738C68.6435 57.7511 68.2798 57.7643 67.9176 57.7383C65.7248 57.581 63.8988 56.046 62.2385 54.5837C64.6442 53.8348 66.5948 51.9536 67.8827 49.7596C69.1706 47.5656 69.8609 45.0662 70.3852 42.5684C70.6612 41.2539 70.8661 39.7731 70.1262 38.6586C69.795 38.1597 69.3095 37.795 68.8256 37.4315C68.2807 37.0223 67.7379 36.6146 67.4203 36.0189C66.8093 34.873 65.6183 34.1935 64.4887 33.5745C61.5325 31.9546 58.1369 30.2874 54.9509 31.3692C53.7099 31.7906 52.6378 32.5981 51.5926 33.3972C49.8569 34.7243 47.9975 36.281 47.667 38.4609C44.827 37.1714 41.1528 38.2012 39.3674 40.7873C38.959 41.3788 38.6455 42.0311 38.3323 42.6827C37.9636 43.4499 37.5953 44.2162 37.0732 44.8812C34.9762 43.9115 32.8395 43.03 30.6706 42.2399C29.7089 41.8896 28.5602 41.58 27.7315 42.1864C27.067 42.6727 26.8632 43.6272 27.0582 44.4347C27.2533 45.2422 27.774 45.9268 28.3324 46.5351C29.5438 47.8549 30.999 48.9435 32.5997 49.7273C32.6511 49.7525 32.7029 49.7775 32.7549 49.8027L32.755 49.8027L32.7555 49.8029C33.2567 50.0453 33.7719 50.2944 34.1056 50.7392C34.4741 51.2303 34.497 52.052 33.9804 52.3779C33.2174 52.8592 33.0769 53.9392 33.2333 54.837C33.2868 55.1438 33.3652 55.4477 33.4436 55.7512C33.5945 56.3358 33.7451 56.919 33.7156 57.5185ZM54.4298 62.3196C52.5073 64.3685 49.8019 65.5671 47.0356 65.9175C44.2694 66.2679 41.4446 65.8124 38.8021 64.911C39.5129 64.9106 40.0269 63.9661 39.6488 63.3552C38.1924 65.0782 35.9722 65.8852 33.8565 66.6221C31.9452 67.2878 29.6606 66.8043 28.2567 65.3292C26.8527 63.8541 26.4728 61.4338 27.4601 59.6444C27.8893 58.8666 28.6172 58.1895 29.4923 58.1132C30.3675 58.0368 31.3098 58.7733 31.2286 59.661C30.7417 59.5751 30.2292 59.9949 30.2091 60.4961C32.0931 60.2901 33.8642 59.1945 34.9079 57.5894C35.2681 57.0354 35.5419 56.432 35.8159 55.828L35.8159 55.828L35.8159 55.828L35.8159 55.828L35.8159 55.828C35.9999 55.4225 36.1839 55.0167 36.3943 54.6255C36.9182 53.6518 37.6703 52.7235 38.7125 52.3889C39.549 52.1203 40.4532 52.2694 41.3178 52.4207L45.1587 53.0928C45.4462 52.8409 44.9806 52.4373 44.6089 52.3585C43.4085 52.1039 42.1913 51.947 40.9741 51.7901L40.974 51.7901C39.8452 51.6446 38.7164 51.4991 37.6007 51.2757C35.2818 50.8114 32.9512 49.9621 31.2634 48.2828C32.4082 47.6144 33.2793 46.4785 33.6367 45.188C33.709 44.9269 33.5367 44.4981 33.3278 44.6671C33.0891 45.5049 32.8304 46.3787 32.2325 47.0049C31.6345 47.6311 30.5849 47.9062 29.908 47.3689C29.0294 46.6715 28.1056 45.9107 27.7582 44.8349C27.4107 43.7592 27.9604 42.3144 29.0682 42.1825C29.5655 42.1233 30.0516 42.3319 30.5101 42.5359L35.1364 44.594C36.5132 45.2066 37.9106 45.8253 39.398 46.0475C40.4423 46.2036 41.5043 46.1598 42.559 46.1157L45.5489 45.9905C45.6711 45.9854 45.7965 45.9796 45.9091 45.9308C46.2095 45.8008 46.3113 45.4284 46.3776 45.1038C47.18 41.1744 48.2579 37.0276 51.1743 34.3179C52.4792 33.1053 54.1048 32.2516 55.8338 31.8708C57.5381 31.4954 59.4185 31.6057 60.8858 32.5624C58.4244 32.7463 56.0343 33.7997 54.2216 35.4997C53.46 34.6746 52.0426 35.349 51.4351 36.2968C50.4934 37.766 50.5105 39.8069 51.4767 41.2596C52.2899 42.4824 52.5915 43.9415 52.8938 45.4039C53.1716 46.7479 53.45 48.0948 54.1267 49.2638C55.1973 51.1132 57.1908 52.3003 59.2729 52.6684C61.3549 53.0364 63.5134 52.652 65.4922 51.8988C63.2775 54.1409 59.7395 54.9163 56.8105 53.8017C56.597 53.7205 56.3847 53.6297 56.1721 53.5389L56.172 53.5388C55.499 53.2512 54.8237 52.9626 54.1018 52.9712C54.5247 53.4257 55.0649 53.7669 55.6534 53.9513C54.9748 55.1082 54.2628 56.2449 53.5187 57.3595C53.4235 57.5021 53.315 57.6541 53.1521 57.7023C52.9706 57.756 52.7811 57.6642 52.6156 57.5714C51.2474 56.8039 50.0211 55.7769 49.0189 54.5594L47.0139 57.0346C48.0428 58.3111 49.2458 59.4429 50.5777 60.3876C48.8049 62.6103 46.1192 64.058 43.312 64.304C46.2178 64.4542 49.1594 63.0709 50.9253 60.724C52.0432 61.361 53.2177 61.8958 54.4298 62.3196ZM63.6192 40.5542C64.2613 39.8436 64.4992 38.8287 64.4443 37.8661C64.3895 36.9036 64.0705 35.9779 63.7174 35.0828C64.6372 34.9721 65.5716 35.3243 66.3042 35.8994C67.0369 36.4745 67.5872 37.257 68.0386 38.0778C68.5858 39.0728 69.0052 40.1487 69.1873 41.2731C69.6159 43.9207 68.7008 46.6201 67.3982 48.9548C67.1452 49.4082 66.8731 49.8584 66.5038 50.2203C66.132 50.5848 65.6746 50.8468 65.2059 51.0678C63.2716 51.9799 61.0466 52.2431 58.9575 51.807C60.2911 50.68 61.233 49.1275 61.8328 47.4748C62.4326 45.8221 62.7072 44.0656 62.8652 42.3117L62.8661 42.3019C62.906 41.8596 62.9479 41.3948 63.1962 41.0295C63.2785 40.9086 63.3802 40.8038 63.482 40.6989C63.5284 40.6512 63.5747 40.6035 63.6192 40.5542ZM61.2058 47.8594C60.6303 49.2256 59.7387 50.48 58.5301 51.3184C58.3886 51.4166 58.2366 51.5114 58.0663 51.5316C57.916 51.5494 57.7654 51.5073 57.6211 51.4611C56.5935 51.1319 55.6226 50.5484 54.9633 49.6833C54.7241 49.3693 54.5288 49.0231 54.3546 48.6678C53.0857 46.0801 52.9614 42.9407 54.0216 40.258C54.0723 40.1299 54.1447 39.986 54.2782 39.9591C54.4507 39.9244 54.5832 40.1036 54.6801 40.2526C55.4721 41.4706 56.953 42.0872 58.3895 42.1511C59.826 42.215 61.2391 41.8006 62.6012 41.3333C62.353 41.9494 62.2898 42.6206 62.2271 43.2855C62.2192 43.3692 62.2114 43.4529 62.2031 43.5363C62.0571 45.0147 61.7813 46.4932 61.2058 47.8594ZM60.9133 35.1675C61.6484 34.9979 62.506 34.9512 63.0677 35.4615C63.2491 35.6264 63.3838 35.8378 63.4947 36.0577C64.1904 37.4375 63.9179 39.2547 62.8494 40.362C61.6141 41.642 59.6589 41.8531 57.8999 41.7011C57.2687 41.6466 56.6196 41.548 56.0807 41.21C55.3836 40.7726 54.9707 40.0018 54.5889 39.2658C56.2839 37.3435 58.4349 35.7393 60.9133 35.1675ZM66.8583 58.3722C66.6276 58.9632 66.3948 59.5622 66.3193 60.1932C66.2438 60.8242 66.342 61.5014 66.7202 62.0081C63.5823 62.1843 60.3936 61.2023 57.8813 59.2861C58.6914 58.1225 59.3312 56.8369 59.7732 55.4846C59.9477 54.9504 60.6141 54.7276 61.1551 54.8513C61.6532 54.9651 62.0713 55.2894 62.4792 55.6057L62.5845 55.6871C63.9201 56.7163 65.3921 57.5461 66.8583 58.3722ZM44.9314 66.4427C44.4365 67.0082 43.8451 67.4776 43.2409 67.9203C41.9799 68.8445 40.6047 69.6844 39.0719 69.9529C36.8257 70.3463 34.3988 69.363 33.0371 67.5077L37.9366 65.6528C38.0539 65.6084 38.1754 65.5633 38.3004 65.5704C38.371 65.5745 38.4389 65.595 38.507 65.6157C38.5523 65.6294 38.5977 65.6431 38.6439 65.652C38.8012 65.6822 38.9599 65.6557 39.1193 65.629C39.2185 65.6125 39.3179 65.5958 39.4174 65.5928C39.7842 65.5816 40.1212 65.7517 40.4547 65.92L40.4548 65.9201C40.5394 65.9628 40.6238 66.0054 40.7084 66.0449C42.0076 66.6513 43.5055 66.5531 44.9314 66.4427ZM37.8572 45.1671C37.8226 45.0887 37.859 44.9985 37.8955 44.9211C38.8989 42.7883 40.2262 40.8129 41.8162 39.0862C42.9346 40.6623 43.6789 42.5098 43.969 44.4296C44.027 44.8134 43.9643 45.3441 43.5847 45.3921C41.7652 45.6223 39.9138 45.591 38.1029 45.2995C38.0072 45.2841 37.8967 45.2569 37.8572 45.1671ZM44.71 45.0355C44.3353 42.9452 43.5576 40.9301 42.4336 39.1377C43.3849 38.6294 44.5095 38.6211 45.5846 38.6245C46.2635 38.6266 47.0047 38.6509 47.5221 39.0971L46.18 43.1164C45.9521 43.7988 45.7214 44.5002 45.7501 45.2201L44.9017 45.2339C44.8715 45.2344 44.8403 45.2347 44.8124 45.2229C44.7445 45.1941 44.7231 45.109 44.71 45.0355ZM55.6262 55.3214C55.8516 54.9323 56.0663 54.5167 56.0891 54.0659C57.1041 54.5293 58.222 54.7589 59.3347 54.7326C59.5094 54.7284 59.5031 55.0017 59.4315 55.1635C59.2149 55.6529 58.9979 56.1428 58.7472 56.6152C58.4899 57.1 58.1977 57.5648 57.9059 58.0291L57.2064 59.1419C57.1106 59.2942 57.0118 59.45 56.8695 59.5585C56.4876 59.8499 55.9426 59.7098 55.5069 59.5111C54.7841 59.1815 54.1188 58.7225 53.5509 58.1616C54.3396 57.2934 55.0366 56.3395 55.6262 55.3214ZM29.3772 56.283C29.7136 56.6272 29.9333 57.0682 30.1476 57.5014L29.1387 57.6475C28.8025 57.6961 28.4578 57.7476 28.1607 57.9145C27.8716 58.0768 27.6486 58.337 27.4524 58.6068C26.6318 59.7351 26.177 61.1328 26.1742 62.5351C26.1731 63.0417 25.5833 63.403 25.1005 63.2746C24.6177 63.1462 24.2898 62.6595 24.2063 62.1601C24.1229 61.6607 24.2404 61.1501 24.3878 60.6662C24.9065 58.9632 25.8344 57.3548 27.2072 56.2431C27.4695 56.0307 27.7594 55.8318 28.0907 55.7781C28.5623 55.7016 29.0409 55.9389 29.3772 56.283ZM71.7468 59.1337C71.8635 59.2859 71.95 59.4712 71.9447 59.664C71.9379 59.9131 71.7824 60.1316 71.6148 60.3138C70.6409 61.3731 69.144 61.7338 67.7263 61.9038C67.6328 61.915 67.5348 61.9251 67.4472 61.8903C67.3751 61.8617 67.3173 61.8054 67.2659 61.7467C66.9239 61.3563 66.7884 60.8106 66.8161 60.2889C66.8439 59.7673 67.0213 59.2648 67.2421 58.7929C67.2886 58.6935 67.3425 58.5892 67.4374 58.5359C67.513 58.4934 67.6034 58.49 67.6898 58.4877L69.4056 58.4421C69.8281 58.4308 70.2551 58.42 70.6686 58.5084C71.0822 58.5968 71.4872 58.7953 71.7468 59.1337ZM52.6245 42.6797C51.9254 41.365 51.4024 39.954 51.0743 38.4976L51.3567 37.7319C51.7062 37.0453 52.1467 36.4065 52.6626 35.8382C52.8727 35.6067 53.2369 35.5811 53.5269 35.6926C53.8169 35.8042 54.0502 36.0259 54.2753 36.2424L55.2883 37.2164C55.3184 37.2454 55.3499 37.2767 55.3599 37.3175C55.3788 37.3944 55.3162 37.4649 55.2596 37.5195C54.7852 37.9772 54.3637 38.4933 54.0258 39.0623C53.5149 39.9222 53.203 40.8859 52.8953 41.8402L52.6245 42.6797ZM55.2136 35.2956C57.2761 34.1745 59.5321 33.1195 61.8586 33.3717C63.0749 33.5036 64.2384 33.9948 65.2515 34.6904C62.3492 33.9333 59.1141 34.6317 56.7668 36.5222C56.4039 36.8144 55.8596 37.1317 55.5366 36.7949C55.4537 36.7084 55.3994 36.5872 55.3466 36.4691L55.3466 36.4691C55.2619 36.28 55.1809 36.0988 54.9912 36.0811C54.8104 36.0642 54.7299 35.8152 54.8066 35.6481C54.8833 35.481 55.0534 35.3826 55.2136 35.2956ZM49.5475 55.8019C49.9546 56.1989 50.4029 56.5494 50.8502 56.899L52.6572 58.3115C52.1007 58.8092 51.5563 59.3208 51.0245 59.8455C49.7585 59.084 48.6285 58.0904 47.7054 56.9271C48.2107 56.3929 48.6957 55.839 49.1591 55.2671C49.2319 55.4781 49.3886 55.647 49.5475 55.8019ZM37.929 51.9813C36.9776 52.7357 35.9939 53.5298 35.4705 54.6342C35.3683 54.8499 35.2838 55.077 35.1994 55.3037L35.1994 55.3038C35.0201 55.7857 34.8414 56.2661 34.4938 56.6329C34.3397 56.587 34.2791 56.4026 34.2416 56.2441L33.8795 54.7157C33.8307 54.5095 33.7815 54.2975 33.8092 54.0873C33.8369 53.8781 33.9385 53.6875 34.0384 53.5023L35.1007 51.532C35.1243 51.488 35.1489 51.443 35.1869 51.411C35.2808 51.3318 35.4199 51.357 35.5385 51.3866L37.929 51.9813ZM53.386 58.7497C54.0349 59.4267 54.8413 59.9472 55.7206 60.2565C55.8851 60.0994 56.2029 60.186 56.2677 60.4056C55.9651 60.804 55.6329 61.1793 55.2749 61.5272C55.115 61.6825 54.8588 61.6497 54.6431 61.5995C53.5893 61.354 52.5742 60.938 51.6479 60.3719C51.586 60.3341 51.5162 60.2802 51.5224 60.2071C51.5265 60.1579 51.5647 60.1196 51.6005 60.0862L52.901 58.8705C53.0373 58.7431 53.2568 58.6148 53.386 58.7497ZM69.9902 41.7677C69.9781 41.9167 69.9575 42.0829 69.8427 42.1766C69.8418 41.0065 69.5559 39.8377 69.0175 38.803C68.9199 38.6154 68.814 38.4319 68.6963 38.2566L68.6773 38.2285L68.6505 38.1891L68.6503 38.1888C68.5315 38.0148 68.4099 37.8367 68.3811 37.6289L69.7746 39.1064C69.9028 39.2423 70.0347 39.3841 70.0953 39.562C70.1538 39.7335 70.1398 39.9206 70.1252 40.1014L69.9902 41.7677ZM68.389 39.8901L68.0734 39.4864C67.7262 39.0422 67.3002 38.5572 66.7416 38.5566C66.4174 38.5562 66.1192 38.7247 65.838 38.8884L65.401 39.1427C65.2817 39.2122 65.1591 39.2845 65.0749 39.395C64.8322 39.7136 65.0093 40.1792 65.2387 40.5078C65.3974 40.7353 65.5877 40.9536 65.8402 41.0631C66.1669 41.2046 66.5426 41.142 66.885 41.0462C67.3539 40.9149 67.8069 40.7256 68.2309 40.4837C68.3665 40.4064 68.5163 40.293 68.5095 40.1353C68.5054 40.0425 68.4459 39.9629 68.389 39.8901ZM65.632 40.2017C65.5777 40.114 65.5216 40.0202 65.5207 39.9166C65.519 39.714 65.7181 39.578 65.8934 39.481L66.5163 39.1362C66.6105 39.084 66.7085 39.0307 66.8155 39.0234C66.9226 39.0161 67.0416 39.0684 67.0776 39.171C67.1838 39.4737 67.4455 39.7151 67.7525 39.7937C67.8519 39.8191 67.8838 39.9587 67.8369 40.0512C67.7899 40.1436 67.6937 40.1977 67.6019 40.2439C67.2736 40.4093 66.9304 40.5441 66.578 40.6461C66.4367 40.6871 66.2872 40.7229 66.1442 40.6884C65.9105 40.632 65.7598 40.4082 65.632 40.2017ZM61.2011 43.3226C60.5833 43.3956 60.4658 44.526 60.7527 45.129C60.8117 45.253 60.9041 45.3807 61.0387 45.3981C61.269 45.4277 61.3961 45.1395 61.4471 44.9097L61.4483 44.9043C61.5154 44.6015 61.8152 43.2501 61.2011 43.3226ZM58.0152 44.8055C58.1387 44.5131 58.1799 44.1853 58.1327 43.8708C58.1108 43.7246 58.0674 43.5763 57.9712 43.4653C57.875 43.3543 57.716 43.2898 57.5789 43.3398C57.4548 43.3851 57.3769 43.5082 57.3182 43.628C57.1109 44.0509 57.0282 44.5358 57.0835 45.0048C57.1093 45.2229 57.3802 45.3422 57.5857 45.2732C57.7913 45.2042 57.9299 45.0074 58.0152 44.8055ZM59.8362 44.1362C59.9321 44.0556 60.0531 44.2021 60.0921 44.3221C60.2199 44.7167 60.3258 45.1187 60.409 45.5255C60.4616 45.7825 60.505 46.0496 60.449 46.3058C60.37 46.6672 60.0994 46.9611 59.7854 47.1494C59.4714 47.3377 59.114 47.4351 58.7616 47.5305C58.6685 47.5557 58.5515 47.5736 58.4914 47.4972C58.4403 47.4324 58.4655 47.3308 58.5236 47.2724C58.5806 47.2151 58.66 47.1887 58.7363 47.1632L58.7408 47.1617C59.2901 46.9786 59.8772 46.648 60.005 46.0757C60.0753 45.7611 59.9898 45.4449 59.9039 45.1275C59.8256 44.8384 59.7471 44.5481 59.7857 44.2569C59.7916 44.2125 59.8023 44.1648 59.8362 44.1362ZM56 42.849C55.8553 42.6456 55.9712 42.3366 56.181 42.204C56.3908 42.0714 56.6559 42.0732 56.901 42.1053C57.1936 42.1436 57.4814 42.2192 57.7556 42.3295C57.814 42.3531 57.8769 42.383 57.9026 42.4411C57.9502 42.5489 57.827 42.6668 57.7107 42.6667C57.6171 42.6666 57.5322 42.6209 57.4483 42.5757C57.428 42.5647 57.4077 42.5538 57.3874 42.5435C56.9296 42.313 56.3225 42.4466 56 42.849ZM61.2764 42.7789C61.494 42.7422 61.7247 42.7932 61.9074 42.9184C61.9839 42.9707 62.0933 42.8827 62.0937 42.7891C62.0941 42.6956 62.0254 42.6169 61.953 42.559C61.7969 42.4344 61.6026 42.3599 61.4044 42.3485C61.2764 42.3412 61.1348 42.3663 61.0524 42.4659C60.97 42.5655 60.9949 42.7524 61.1184 42.7871C61.1625 42.7995 61.2087 42.7911 61.2542 42.7829L61.2764 42.7789ZM58.5763 48.5158C58.6376 48.4807 58.7184 48.542 58.7275 48.6128C58.7366 48.6835 58.6968 48.7512 58.6513 48.8057C58.4232 49.0789 58.0302 49.163 57.683 49.099C57.3358 49.0349 57.0247 48.8455 56.7319 48.6457C56.5942 48.5517 56.4585 48.4547 56.3251 48.3546C56.1867 48.2509 56.0393 48.124 56.0227 47.9503C56.0062 47.7765 56.2255 47.6014 56.3507 47.7211C56.6584 48.0152 56.9732 48.3142 57.356 48.4962C57.7388 48.6782 58.2082 48.7267 58.5763 48.5158ZM51.9865 49.9088C50.7043 47.0801 50.1694 43.9066 50.4521 40.8062C50.4569 40.7532 50.4635 40.6964 50.498 40.6564C50.5467 40.5998 50.6465 40.6022 50.6925 40.661C50.6761 42.3665 50.6604 44.0823 50.9347 45.7651C51.2091 47.4479 51.7916 49.1127 52.8551 50.4333C52.8868 50.4728 52.9191 50.5121 52.9514 50.5514L52.9514 50.5514C53.1344 50.774 53.3188 50.9986 53.4226 51.2671C52.731 51.2535 52.2756 50.5466 51.9865 49.9088ZM53.2442 37.1352C53.2205 37.1092 53.1929 37.0862 53.1608 37.0722C53.0683 37.0317 52.9599 37.0732 52.879 37.134C52.5562 37.3765 52.5549 37.9435 52.8766 38.1874C53.0335 38.0517 53.1946 37.9108 53.2865 37.7235C53.3785 37.5363 53.3841 37.2889 53.2442 37.1352ZM56.027 40.1224C56.3748 40.409 56.7712 40.6347 57.1935 40.7867C58.5561 41.2771 60.0874 40.9692 61.4024 40.3592C61.6033 40.266 61.8596 40.3151 62.0132 40.4762C61.1689 41.0869 60.1345 41.4225 59.0978 41.4223C58.8691 41.4222 58.6408 41.4063 58.413 41.3861C57.947 41.3448 57.4775 41.2842 57.0391 41.1185C56.6006 40.9529 56.1913 40.6727 55.9431 40.2702L56.027 40.1224ZM70.8654 58.7613C70.8519 58.8083 70.8892 58.8534 70.9235 58.888L71.4412 59.4094C71.4976 59.2594 71.4343 59.0849 71.3257 58.9681C71.2171 58.8514 71.0705 58.7804 70.9274 58.7119C70.8994 58.7132 70.8733 58.734 70.8654 58.7613Z" fill="#00160A"/>
  <path fill-rule="evenodd" clip-rule="evenodd" d="M104.868 38.4774C105.502 38.7005 106.1 38.12 106.646 37.7245C107.492 37.1125 108.595 36.881 109.611 37.1027C109.779 37.1394 109.956 37.1946 110.067 37.3284C110.168 37.4508 110.197 37.6177 110.213 37.7767C110.313 38.7503 110.074 39.7564 109.546 40.5759C109.289 40.9746 108.968 41.3296 108.738 41.7449C108.509 42.1603 108.378 42.6678 108.541 43.1141C109.513 45.768 109.109 48.8981 107.495 51.2077C105.882 53.5173 103.105 54.9405 100.316 54.8875C98.8895 54.8605 97.4921 54.4741 96.1481 53.9881C95.5617 53.7761 94.9171 53.5435 94.3351 53.7674C93.273 54.1759 92.1548 54.4339 91.0231 54.5315C90.7422 54.5557 90.4488 54.5681 90.1897 54.4556C89.8018 54.2872 89.5676 53.8603 89.5231 53.4345C89.4785 53.0086 89.5945 52.5824 89.741 52.1808C90.183 50.9695 91.555 49.0773 92.3855 48.6414C92.3183 47.1705 92.3256 45.6823 92.639 44.2445C92.9523 42.8068 93.5918 41.4116 94.6408 40.3943C95.074 39.9741 95.5699 39.6244 96.0892 39.3209C98.716 37.786 102.004 37.47 104.868 38.4774ZM100.868 38.358C98.8591 38.4057 96.9038 39.2246 95.3336 40.4969C94.8725 40.8705 94.4392 41.2855 94.0932 41.7704C93.8204 42.1526 93.6047 42.5744 93.4244 43.0095C92.355 45.5912 92.5991 48.693 94.0589 51.0697C94.0907 51.1215 94.1272 51.1764 94.184 51.1965C94.2541 51.2214 94.3295 51.1852 94.395 51.1497C98.9799 48.67 103.061 45.2355 106.311 41.1217C106.388 41.0237 106.47 40.9099 106.453 40.7855C106.44 40.6922 106.375 40.6164 106.311 40.5482C104.924 39.0725 102.876 38.3103 100.868 38.358ZM103.676 53.7698C105.854 52.7322 107.508 50.6817 108.215 48.348C108.375 47.8196 108.49 47.2733 108.502 46.7205C108.511 46.2557 108.447 45.7928 108.384 45.3324C108.291 44.6649 108.199 43.9974 108.106 43.3298C108.082 43.1529 107.914 42.9193 107.791 43.0474C104.384 46.6063 100.663 49.856 96.6881 52.7451C96.5558 52.8413 96.4102 52.9602 96.4031 53.1252C96.3948 53.3161 96.5743 53.4546 96.7375 53.5501C98.8215 54.7698 101.498 54.8074 103.676 53.7698ZM90.2435 53.4981C90.4019 53.756 90.7453 53.8088 91.0447 53.8172C92.615 53.8613 94.1687 53.3943 95.5737 52.681C96.9787 51.9677 98.2504 51.0136 99.4862 50.0292C101.134 48.7162 102.734 47.3402 104.292 45.9186C106.222 44.1581 108.118 42.2907 109.385 39.9923C109.631 39.5477 109.857 39.0602 109.818 38.5523C109.78 38.0443 109.381 37.5315 108.879 37.5513C107.815 37.5935 106.768 38.0088 105.958 38.7107C105.797 38.8503 105.911 39.1474 106.109 39.2229C106.308 39.2985 106.529 39.2234 106.722 39.1366C106.916 39.0498 107.118 38.9482 107.329 38.972C107.65 39.0083 107.879 39.3425 107.898 39.6704C107.917 39.9983 107.774 40.3134 107.606 40.5939C107.294 41.1131 106.887 41.5656 106.476 42.0076C102.822 45.937 98.6064 49.3278 94.0026 52.0412C93.588 52.2856 93.1685 52.5253 92.7223 52.7033C92.4882 52.7967 92.2199 52.8717 91.9915 52.7649C91.617 52.5898 91.5869 52.0561 91.6993 51.6534C91.868 51.0488 92.2326 50.5023 92.723 50.1187C92.6301 49.8531 92.5372 49.5875 92.4443 49.3219C91.2338 50.1067 90.3842 51.4415 90.1772 52.8841C90.1473 53.0923 90.1338 53.3196 90.2435 53.4981ZM93.6855 51.6754C93.694 51.648 93.6783 51.6195 93.6632 51.5952C93.5069 51.343 93.3505 51.0908 93.1941 50.8386C93.1234 50.7245 92.9865 50.5953 92.8804 50.6764C92.4981 50.9686 92.2245 51.4038 92.1244 51.8787C92.1046 51.9724 92.0931 52.0771 92.1434 52.1582C92.237 52.3091 92.4605 52.2755 92.6259 52.2154C92.9784 52.0871 93.318 51.9223 93.6377 51.7241C93.6574 51.7119 93.6785 51.6978 93.6855 51.6754ZM107.289 39.6711C107.274 39.6056 107.197 39.5772 107.13 39.5742C106.929 39.5653 106.718 39.7334 106.731 39.9377C106.744 40.142 107.043 40.2706 107.168 40.11C107.206 40.0615 107.222 39.9997 107.237 39.9398C107.252 39.8805 107.267 39.8212 107.282 39.7618C107.289 39.7321 107.296 39.7009 107.289 39.6711Z" fill="#00160A"/>
  </svg>
  